<?xml version="1.0" encoding="UTF-8" standalone="no"?>
<!DOCTYPE svg  PUBLIC '-//W3C//DTD SVG 1.1//EN'  'http://www.w3.org/Graphics/SVG/1.1/DTD/svg11.dtd'>
<svg version="1.1" xmlns="http://www.w3.org/2000/svg">
<defs>
<font id="Buenard-Regular" horiz-adv-x="322">
<font-face ascent="800" cap-height="658" x-height="423" underline-thickness="50" font-family="Buenard" panose-1="2 0 0 0 0 0 0 0 0 0" descent="-200" bbox="-413 -260 1020 1009.14" units-per-em="1000" underline-position="-150" unicode-range="U+0020-2212" font-weight="400"/>
<missing-glyph horiz-adv-x="218"/>
<glyph horiz-adv-x="218" glyph-name=".notdef"/>
<glyph horiz-adv-x="0" glyph-name=".null"/>
<glyph horiz-adv-x="333" glyph-name="nonmarkingreturn"/>
<glyph horiz-adv-x="218" unicode=" " glyph-name="space"/>
<glyph horiz-adv-x="253" d="M76 660l13 16q17 0 53 -6t43 -12q-20 -223 -31 -349l-10 -108l-29 -8l-12 7l-7 158zM182 46q0 -24 -15 -39t-41 -15t-41 16q-16 16 -16 38t16 38t41 16q24 0 40 -15t16 -39z" unicode="!" glyph-name="exclam"/>
<glyph horiz-adv-x="338" d="M50 717l14 11q16 0 40 -6t34 -11q0 -51 -39 -234l-28 -5l-10 7zM206 717l14 11q16 0 40 -6t34 -11q0 -51 -39 -234l-28 -5l-10 7z" unicode='&quot;' glyph-name="quotedbl"/>
<glyph horiz-adv-x="541" d="M216 383l-20 -145h119l21 145h-120zM281 0l25 174h-120l-25 -174h-52l25 174h-111l12 64h109l20 145h-112l12 64h110l23 161h53l-24 -161h119l23 161h53l-23 -161h112l-13 -64h-108l-21 -145h112l-12 -64h-109l-25 -174h-53z" unicode="#" glyph-name="numbersign"/>
<glyph horiz-adv-x="534" d="M174 469q0 -46 83 -88l5 168q-88 -5 -88 -80zM373 167q0 53 -82 98l-7 -195q41 4 65 30t24 67zM301 592q54 -2 143 -28q-8 -85 -23 -142l-32 -4q-6 84 -16 107q-25 17 -73 22l-6 -184q126 -58 152 -107q13 -25 13 -56q-1 -78 -49 -122t-127 -52l-3 -83l-38 -4l3 86 q-81 1 -164 34q-3 27 -3 65t7 88l35 10q10 -142 126 -152l7 214q-88 45 -116 70q-42 38 -42 88q1 70 47 108t122 42l3 93l38 5z" unicode="$" glyph-name="dollar"/>
<glyph horiz-adv-x="784" d="M644 54q23 28 23 83q1 55 -23 83t-58 28t-56 -28q-24 -28 -24 -83t24 -83t57 -28q34 0 57 28zM699 249q43 -42 43 -110t-44 -112t-112 -44q-68 1 -112 43t-43 110q-1 68 43 112t113 43q69 0 112 -42zM255 374q23 28 23 83t-24 83t-56 28q-34 0 -58 -28t-23 -82 q-1 -54 23 -84q24 -28 58 -28t57 28zM310 569q43 -42 43 -110q1 -68 -43 -112t-112 -44q-68 1 -112 43t-44 110t44 112t112 43q69 0 112 -42zM174 -16l370 626h66l-370 -626h-66z" unicode="%" glyph-name="percent"/>
<glyph horiz-adv-x="629" d="M189 488q0 -53 67 -130q30 8 54 42t25 74q0 40 -22 67q-23 26 -55 26q-32 -1 -50 -23t-19 -56zM131 162q1 -54 39 -94t100 -40t123 53q-15 16 -194 212q-68 -47 -68 -131zM496 -7q-14 0 -74 58q-74 -67 -166 -67t-152 41q-62 41 -62 122q0 121 132 173q-1 1 -1 2 q-35 34 -51 64t-15 76q0 62 47 105q46 43 110 43t110 -36t47 -92q-1 -57 -43 -100t-96 -53q6 -7 16 -17t67 -72t87 -93q25 39 25 81t-25 89l27 18q61 -50 92 -91q-25 -42 -91 -126q60 -59 80 -72q28 -21 81 -21l-5 -32h-140z" unicode="&amp;" glyph-name="ampersand"/>
<glyph horiz-adv-x="182" d="M50 717l14 11q16 0 40 -6t34 -11q0 -51 -39 -234l-28 -5l-10 7z" unicode="&apos;" glyph-name="quotesingle"/>
<glyph horiz-adv-x="323" d="M194 479q-28 -95 -28 -231t28 -232t98 -166l-23 -20q-88 66 -140 176t-52 243t52 243t140 174l20 -23q-67 -70 -95 -164z" unicode="(" glyph-name="parenleft"/>
<glyph horiz-adv-x="323" d="M194 492q52 -110 52 -243t-52 -243t-140 -176l-23 20q69 70 97 166t29 232t-27 231q-28 94 -96 164l20 23q88 -64 140 -174z" unicode=")" glyph-name="parenright"/>
<glyph horiz-adv-x="417" d="M365 627q10 -21 10 -39t-1 -26q-30 -10 -129 -20q56 -52 93 -92l-10 -21q-20 -20 -59 -28q-18 23 -59 115q-28 -65 -58 -115l-23 1q-20 11 -46 48q28 35 93 92q-84 10 -128 20l-6 22q7 29 32 59q35 -13 116 -61q-16 71 -21 130l19 11q35 0 65 -11q0 -44 -21 -130 q60 35 116 61z" unicode="*" glyph-name="asterisk"/>
<glyph horiz-adv-x="460" d="M261 411v-167h153v-58h-153v-171h-62v171h-153v58h153v167h62z" unicode="+" glyph-name="plus"/>
<glyph horiz-adv-x="239" d="M170 86q27 -22 27 -60q0 -36 -41 -100t-80 -104l-24 19q70 96 70 148q0 27 -66 32l-8 20q10 15 30 37t36 33q29 -3 56 -25z" unicode="," glyph-name="comma"/>
<glyph horiz-adv-x="304" d="M35 192l11 65h222l-10 -65h-223z" unicode="-" glyph-name="hyphen"/>
<glyph horiz-adv-x="205" d="M40 51q0 27 16 43t46 16q28 0 46 -16t17 -43q1 -27 -17 -43t-46 -16t-45 16t-17 43z" unicode="." glyph-name="period"/>
<glyph horiz-adv-x="441" d="M23 -142l340 809l55 -28l-340 -809z" unicode="/" glyph-name="slash"/>
<glyph horiz-adv-x="547" d="M416 214q0 88 -41 133t-101 45t-102 -45q-41 -45 -41 -133t41 -134q42 -46 102 -46t101 46t41 134zM444 378q66 -62 66 -162q0 -102 -66 -166t-171 -64t-171 62t-65 164q1 100 67 164t170 64t170 -62z" unicode="0" glyph-name="zero"/>
<glyph horiz-adv-x="303" d="M196 71q0 -23 18 -31q16 -8 56 -14l13 -2l-7 -31q-52 7 -123 7t-123 -7l-7 31q53 8 72 16t19 31v266q0 20 -8 28t-26 8h-52l-6 24q75 29 158 43l16 -16v-353z" unicode="1" glyph-name="one"/>
<glyph horiz-adv-x="445" d="M115 384q-9 -22 -9 -54t1 -52l-32 -6q-9 18 -19 62t-12 66q102 40 164 40t107 -30t45 -92q0 -36 -18 -68t-36 -50t-60 -52q-35 -27 -115 -82l4 -9h181q11 11 31 43t24 48l32 -7q-1 -15 -11 -68t-17 -73h-325l-6 47q94 73 140 119t65 78q19 31 19 69q0 39 -21 63t-62 24 t-70 -16z" unicode="2" glyph-name="two"/>
<glyph horiz-adv-x="435" d="M272 305q0 95 -86 95q-48 0 -74 -16q-8 -24 -8 -54t1 -52l-32 -6q-8 18 -18 62t-13 66q102 40 166 40t106 -30q44 -30 44 -84q0 -56 -38 -94t-90 -54v-9q66 1 112 -39t46 -117t-60 -130t-138 -53q-80 0 -167 31q1 21 13 69t19 69l34 -6q-2 -29 -2 -59t6 -49 q33 -15 83 -15t85 36t35 94q0 130 -144 130q-11 0 -23 -1l2 39q51 11 96 49t45 88z" unicode="3" glyph-name="three"/>
<glyph horiz-adv-x="455" d="M270 57v269l-4 1l-9 -23l-170 -238l5 -9h178zM352 0v-85q0 -23 18 -31q15 -8 49 -16l-7 -31q-70 7 -105 7t-121 -7l-7 31q53 8 72 16t19 31v85h-229l-26 42l277 390h60v-375h82l-16 -57h-66z" unicode="4" glyph-name="four"/>
<glyph horiz-adv-x="397" d="M178 208q68 0 119 -34q70 -45 70 -149q1 -83 -57 -139t-140 -56q-60 0 -162 31q2 20 14 71t20 71l34 -7q-2 -34 -2 -64t4 -46q42 -16 88 -16t78 39t32 100q0 85 -50 117q-36 23 -89 23q-24 0 -50 -4l-28 35l43 246l163 11q56 4 82 17l7 -10q-1 -10 -9 -39t-13 -39h-193 l-21 -156l6 -7q28 5 54 5z" unicode="5" glyph-name="five"/>
<glyph horiz-adv-x="460" d="M258 359q80 0 124 -47t45 -131q0 -83 -56 -139t-135 -56q-96 0 -146 67t-50 165t28 170t76 120q99 96 229 102l3 -32q-120 -17 -182 -105t-62 -243q0 -72 22 -133q12 -31 34 -49t52 -19q51 1 75 39t24 100t-25 105q-25 42 -72 42t-88 -27l-3 16q27 35 49 45t58 10z" unicode="6" glyph-name="six"/>
<glyph horiz-adv-x="414" d="M33 270q-4 42 -4 91t3 68q40 -5 94 -5h262l22 -31q-240 -363 -245 -549q-39 -14 -89 -14l-9 12q12 161 266 516l-5 7h-241q-12 -27 -21 -97z" unicode="7" glyph-name="seven"/>
<glyph horiz-adv-x="457" d="M319 468q0 46 -25 72q-24 26 -66 26t-66 -25t-24 -65t30 -69q30 -30 86 -60q65 55 65 121zM119 152q0 -54 29 -88t79 -35q49 0 79 29q30 30 30 74t-34 76t-96 66l-6 3t-7 4q-74 -50 -74 -129zM92 359q-32 39 -31 99q-1 60 51 106t120 46t114 -34t46 -92q0 -57 -32 -96 t-73 -55l-2 -7q53 -20 94 -64t41 -112t-60 -116t-139 -48q-80 0 -132 40t-52 116q1 42 25 77t50 51t53 26l-1 7q-40 16 -72 56z" unicode="8" glyph-name="eight"/>
<glyph horiz-adv-x="460" d="M146 156q25 -41 78 -41t103 43q1 12 1 44t-4 65q-4 32 -16 63q-25 66 -81 66q-106 0 -106 -136q0 -63 25 -104zM323 112q-57 -40 -127 -40t-116 48t-47 126t57 136t136 58q98 0 146 -68t48 -166t-30 -167q-30 -70 -78 -114q-100 -89 -234 -95l-3 32q89 12 159 72t89 178z " unicode="9" glyph-name="nine"/>
<glyph horiz-adv-x="253" d="M80 308q-16 16 -16 42t16 44q16 16 46 16q28 0 46 -16t17 -43q1 -26 -17 -43t-46 -17q-30 1 -46 17zM64 52q0 26 16 42t46 17q28 -1 46 -17t17 -42q1 -26 -17 -42t-46 -17q-28 1 -46 17q-16 16 -16 42z" unicode=":" glyph-name="colon"/>
<glyph horiz-adv-x="239" d="M72 308q-16 16 -16 42t16 44q16 16 46 16q28 0 46 -16t17 -43q1 -26 -17 -43t-46 -17q-30 1 -46 17zM170 86q27 -22 27 -60q0 -36 -41 -100t-80 -104l-24 19q70 96 70 148q0 27 -66 32l-8 20q10 15 30 37t36 33q29 -3 56 -25z" unicode=";" glyph-name="semicolon"/>
<glyph horiz-adv-x="469" d="M425 -16l-381 200v48l381 200v-67l-305 -157l305 -157v-67z" unicode="&lt;" glyph-name="less"/>
<glyph horiz-adv-x="460" d="M410 106h-360v58h360v-58zM410 261h-360v58h360v-58z" unicode="=" glyph-name="equal"/>
<glyph horiz-adv-x="469" d="M425 184l-381 -200v67l305 157l-305 157v67l381 -200v-48z" unicode="&gt;" glyph-name="greater"/>
<glyph horiz-adv-x="432" d="M113 46q-1 24 15 39t42 15t41 -16q16 -16 16 -38t-16 -38q-15 -16 -41 -16t-42 15t-15 39zM202 285q-16 -21 -15 -39q0 -18 12 -50l-24 -20q-47 44 -65 91q0 21 12 37l18 24t20 23l21 21q7 6 25 22t22 21q72 67 72 109t-28 68t-72 26t-66 -30t-24 -98l-34 -8 q-26 89 -26 130q104 47 176 47q72 1 112 -37q42 -38 42 -112q0 -28 -16 -57t-34 -46q-17 -17 -49 -44q-31 -27 -47 -41t-32 -37z" unicode="?" glyph-name="question"/>
<glyph horiz-adv-x="879" d="M559 374q-14 13 -66 13q-53 -1 -93 -49t-58 -111t-19 -123t29 -59q30 -1 79 55t98 133q9 21 19 69t11 72zM520 -16q-33 0 -33 40q0 24 11 65l16 65l-6 2q-85 -125 -138 -156q-26 -16 -50 -16q-77 0 -77 100q0 86 41 166q40 80 108 132q68 50 141 50q37 0 104 -14l11 -16 q-13 -31 -21 -65l-55 -238q-6 -19 -6 -33t10 -15q10 0 31 10q20 10 33 20q57 41 95 95t38 105q-1 125 -75 199t-205 74q-155 0 -259 -102t-104 -260t84 -248t242 -90q40 0 90 16t84 40l20 -24q-41 -38 -101 -64t-116 -26q-182 0 -284 107t-102 285q-1 118 63 216t169 152 t225 54q158 0 252 -87t94 -235q0 -48 -64 -118t-141 -121q-86 -65 -125 -65z" unicode="@" glyph-name="at"/>
<glyph horiz-adv-x="650" d="M294 537l-87 -250h198l-88 243l-11 42l-7 3zM134 65q0 -20 25 -27l59 -13l-6 -33q-55 8 -104 8t-105 -8l-7 33q42 9 54 21t28 55l199 544q44 10 76 29l215 -573q16 -43 29 -55t55 -21l-7 -33q-55 8 -119 8t-120 -8l-6 33q35 5 59 13t24 27q0 7 -3 14l-57 158h-233 l-54 -158q-2 -5 -2 -14z" unicode="A" glyph-name="A"/>
<glyph horiz-adv-x="593" d="M214 366h63q63 0 101 35t38 97t-36 91q-36 30 -101 30q-37 0 -65 -7v-246zM214 324v-243q0 -25 29 -37t63 -12q64 0 107 38t43 110q0 144 -155 144h-87zM93 650l186 8q232 0 232 -148q0 -66 -38 -98t-89 -43v-7q69 -4 121 -46t52 -132q0 -88 -71 -140t-177 -52l-139 8 q-46 0 -113 -8l-7 33q40 5 58 13t17 31v509q0 24 -16 31q-13 6 -49 11l-10 2l7 31q9 -3 36 -3z" unicode="B" glyph-name="B"/>
<glyph horiz-adv-x="660" d="M385 -16q-149 0 -243 86t-95 238q0 154 94 256t252 102q62 0 106 -8t80 -16t41 -8q-10 -109 -27 -171l-34 -6q-13 106 -34 137q-47 26 -151 26t-165 -79t-61 -206t68 -216t179 -89q79 0 121 36t65 120l34 -5q-1 -75 -21 -164q-97 -33 -209 -33z" unicode="C" glyph-name="C"/>
<glyph horiz-adv-x="750" d="M95 652l234 8q171 0 269 -70q105 -73 105 -237q0 -165 -92 -263t-254 -98q-46 0 -109 4t-91 4t-100 -8l-7 33q40 5 58 13t17 31v510q-1 13 -3 17t-12 10q-13 7 -50 14l-10 2l7 31q15 -1 38 -1zM214 88q0 -52 128 -52t194 79t66 219q0 281 -292 281q-60 0 -96 -9v-518z " unicode="D" glyph-name="D"/>
<glyph horiz-adv-x="583" d="M214 312v-264h230q12 12 30 56t25 69l36 -6q-1 -27 -8 -87t-13 -80h-344q-46 0 -113 -8l-7 33q40 5 58 13t17 31v514q0 24 -16 30q-13 6 -49 11l-10 2l7 33q76 -9 113 -9h251q45 0 82 6q3 -36 3 -75t-3 -80l-37 -6q-14 85 -32 108h-220v-243h150q28 0 33 15q6 14 11 47 l1 12l38 -4q-8 -50 -8 -94t8 -94l-38 -4q-5 42 -11 58t-34 16h-150z" unicode="E" glyph-name="E"/>
<glyph horiz-adv-x="512" d="M345 308h-131v-231q0 -15 4 -23t18 -12l83 -14l-7 -36q-70 8 -126 8t-129 -8l-7 33q40 5 58 13t17 31v514q0 25 -16 30q-26 9 -59 13l7 33q76 -9 113 -9h241q44 0 82 6q3 -28 3 -68t-2 -89l-37 -6q-19 92 -34 110h-209v-247h131q28 0 33 15q6 14 10 47l2 12l38 -4 q-8 -50 -8 -94t8 -94l-38 -4q-6 42 -12 58t-33 16z" unicode="F" glyph-name="F"/>
<glyph horiz-adv-x="690" d="M514 202q0 15 -4 23t-18 12l-76 14l7 36q70 -8 134 -8t101 8l6 -33q-30 -6 -46 -13t-15 -31v-191q-92 -35 -218 -35q-149 0 -243 86t-95 238q0 154 94 256t252 102q54 0 90 -6q37 -6 49 -8t46 -10t41 -8q-10 -99 -26 -161l-34 -6q-12 95 -33 127q-48 26 -152 26t-165 -79 t-61 -206t68 -216t179 -89q74 0 119 26v146z" unicode="G" glyph-name="G"/>
<glyph horiz-adv-x="795" d="M581 364v216q-1 14 -3 20t-12 10q-18 9 -56 14l-13 1l7 33q74 -8 117 -8t117 8l7 -33q-66 -8 -73 -23q-2 -6 -2 -20v-514q0 -14 2 -20t12 -10q15 -6 50 -12l11 -1l-7 -33q-74 8 -117 8t-117 -8l-7 33q75 9 81 25q3 6 3 20v241h-367v-241q0 -14 2 -20t12 -10q19 -9 57 -14 l13 -1l-7 -33q-74 8 -117 8t-117 -8l-7 33q66 8 72 23q3 6 3 20v514q-1 14 -3 20t-12 10q-14 6 -50 12l-10 1l7 33q74 -8 117 -8t117 8l7 -33q-48 -5 -66 -13t-18 -30v-218h367z" unicode="H" glyph-name="H"/>
<glyph horiz-adv-x="339" d="M214 582v-514q0 -14 2 -20t12 -10q15 -6 52 -12l11 -1l-7 -33q-68 8 -114 8t-113 -8l-7 33q66 8 72 23q3 6 3 20v514q-1 14 -3 20t-12 10q-14 6 -50 12l-10 1l7 33q67 -8 113 -8t114 8l7 -33q-67 -8 -75 -23q-2 -6 -2 -20z" unicode="I" glyph-name="I"/>
<glyph horiz-adv-x="303" d="M196 582v-532q0 -79 -17 -127t-83 -112l-72 -71l-24 25q107 124 107 235v582q-1 14 -3 20t-12 10q-14 6 -50 12l-10 1l7 33q67 -8 113 -8t114 8l7 -33q-67 -8 -75 -23q-2 -6 -2 -20z" unicode="J" glyph-name="J"/>
<glyph horiz-adv-x="668" d="M214 582v-507q0 -15 4 -23t18 -12l71 -13l-7 -35q-70 8 -120 8t-123 -8l-7 33q66 8 72 23q3 6 3 20v514q-1 14 -3 20t-12 10q-14 6 -50 12l-10 1l7 33q67 -8 110 -8t110 8l7 -33q-61 -9 -68 -23q-2 -6 -2 -20zM464 602q0 14 -56 23l7 33q47 -8 95 -8t92 8l7 -33 q-33 -5 -53 -15t-42 -34l-202 -213l246 -267q34 -38 56 -50t58 -21l-7 -33q-53 8 -123 8t-122 -8l-7 33l12 3t12 2q5 0 11 2t10 4l6 3q7 5 7 13t-18 28l-225 247v18l221 231q15 16 15 26z" unicode="K" glyph-name="K"/>
<glyph horiz-adv-x="528" d="M214 573v-525h211q12 12 33 56t28 69l34 -7q-2 -24 -10 -84t-14 -82h-329q-28 0 -110 -8l-7 32q40 4 58 12t17 33v512q0 24 -16 31q-13 6 -49 12l-10 1l7 33q73 -8 129 -8t126 8l7 -36q-65 -8 -81 -13t-20 -13t-4 -23z" unicode="L" glyph-name="L"/>
<glyph horiz-adv-x="926" d="M669 659q41 -9 91 -9t97 9l7 -33q-38 -5 -56 -12t-18 -35l30 -507q2 -26 18 -34q13 -6 55 -13l-7 -33q-67 8 -119 8t-118 -8l-7 35q52 6 71 15q18 7 17 30l-29 500l-6 5q-11 -50 -21 -74l-144 -361q-20 -52 -41 -120l-7 -22l-60 -17q-28 94 -49 146l-149 373l-19 66 l-7 -5l-35 -491q-1 -13 3 -19t12 -11q15 -6 60 -13l13 -2l-7 -35q-67 8 -104 8t-104 -8l-7 33q35 5 54 13q16 8 17 31l37 513q2 24 -16 31q-13 7 -47 11l-11 2l7 33q47 -9 102 -9t96 9q8 -36 20 -68l166 -433l13 -47l7 -2q3 33 9 48l163 428z" unicode="M" glyph-name="M"/>
<glyph horiz-adv-x="764" d="M191 77q0 -15 4 -23t18 -12l83 -14l-7 -36q-70 8 -114 8t-118 -8l-7 33q40 5 58 13t17 31v514q0 24 -16 30q-14 7 -48 11l-11 2l7 33q47 -9 95 -9t89 9q21 -40 62 -96l251 -347q17 -25 28 -59l4 -12l5 4v431q0 23 -17 30q-16 8 -54 12l-13 2l7 35q76 -9 106 -9t105 9 l7 -33q-39 -4 -57 -12t-18 -31v-390q0 -80 6 -164l2 -28l-75 -15q-35 84 -115 192l-243 329q-17 24 -31 54l-5 11l-5 -4v-491z" unicode="N" glyph-name="N"/>
<glyph horiz-adv-x="755" d="M203 542q-55 -76 -55 -203t62 -217t174 -90t168 76q55 76 55 203t-62 217q-63 90 -175 90t-167 -76zM137 71q-90 87 -90 240q-1 153 89 254t241 101t241 -87t90 -240t-90 -254t-240 -101q-151 0 -241 87z" unicode="O" glyph-name="O"/>
<glyph horiz-adv-x="537" d="M89 650l188 8q244 0 244 -184q0 -83 -68 -142t-155 -59q-14 0 -35 9t-31 16l-4 16q14 -4 33 -4q161 0 161 151q0 158 -151 158q-27 0 -57 -7v-535q0 -15 4 -23t18 -12l83 -14l-7 -36q-70 8 -126 8t-129 -8l-7 33q40 5 58 13t17 31v510q0 23 -16 30q-13 6 -49 11l-10 2 l7 31q5 -3 32 -3z" unicode="P" glyph-name="P"/>
<glyph horiz-adv-x="755" d="M203 542q-55 -76 -55 -203t62 -218t175 -91t167 76t55 204q0 128 -62 218q-63 90 -175 90t-167 -76zM132 76q-85 86 -85 237q-1 151 89 252t241 101t241 -87t90 -239t-86 -251q-86 -100 -230 -104q22 -7 95 -63t109 -57q36 0 72 43l23 -28q-49 -54 -75 -74t-58 -19 q-31 1 -71 31q-41 30 -75 60t-53 31t-42 -15t-38 -32l-28 23q17 22 55 56t57 43q-146 6 -231 92z" unicode="Q" glyph-name="Q"/>
<glyph horiz-adv-x="649" d="M87 650l192 8q108 0 175 -40t67 -129q1 -66 -45 -115t-108 -54v-7q26 -7 54 -44t49 -79q58 -116 95 -140t85 -24l-5 -32h-142q-31 0 -92 108q-15 24 -35 60t-27 48t-13 22q-7 10 -9 13q-2 5 -6 11t-8 9q-2 3 -6 7q-14 17 -51 17h-43v-212q0 -15 4 -23t18 -12l83 -14 l-7 -36q-70 8 -126 8t-129 -8l-7 33q40 5 58 13t17 31v510q0 23 -16 30q-13 6 -49 11l-10 2l7 31q5 -3 30 -3zM214 331h55q73 0 113 36t40 109t-35 108t-108 35q-39 0 -65 -7v-281z" unicode="R" glyph-name="R"/>
<glyph horiz-adv-x="524" d="M138 75q38 -45 102 -45t100 31t37 84q0 50 -42 86q-40 34 -129 81q-9 4 -33 20q-23 16 -33 24t-27 26q-17 16 -24 30q-19 38 -19 75q0 83 58 131t149 48q33 0 177 -26q-8 -87 -26 -154l-34 -6q-7 85 -19 117q-37 25 -97 25t-92 -27t-32 -75q0 -63 98 -118q14 -6 50 -26 t58 -34t52 -38q57 -47 57 -117q-1 -99 -67 -151t-164 -52t-183 37q-2 11 -2 73t4 89l37 9q6 -72 44 -117z" unicode="S" glyph-name="S"/>
<glyph horiz-adv-x="573" d="M422 -8q-66 8 -136 8t-135 -8l-8 34q65 8 79 14t17 13q3 6 3 19v531h-167q-15 -42 -21 -125l-37 6q-9 69 -9 111t1 62q56 -7 101 -7h353q45 0 101 7q1 -19 1 -59t-10 -114l-36 -6q-6 83 -21 125h-167v-531q0 -13 3 -19t12 -10q15 -6 68 -15l16 -2z" unicode="T" glyph-name="T"/>
<glyph horiz-adv-x="724" d="M558 229v352q0 13 -2 19t-12 10q-19 8 -52 12l-12 2l7 34q67 -8 103 -8t103 8l7 -34q-42 -4 -60 -12t-17 -30v-337q-1 -127 -69 -193t-198 -66t-192 60q-63 60 -63 187v349q-1 14 -3 20t-12 10q-14 6 -50 12l-10 1l7 33q67 -8 115 -8t115 8l7 -33q-71 -9 -78 -25 q-2 -5 -2 -19v-332q0 -103 46 -153t138 -50t138 49t46 134z" unicode="U" glyph-name="U"/>
<glyph horiz-adv-x="643" d="M506 585q0 20 -26 27l-61 13l6 33q55 -8 105 -8t104 8l7 -33q-41 -9 -51 -19t-27 -57l-211 -556h-74l-200 556q-16 43 -28 55t-52 21l7 33q53 -8 117 -8t121 8l6 -33q-37 -5 -61 -13t-24 -27q0 -7 3 -14l154 -447l10 -41l7 -3l6 44l159 447q3 8 3 14z" unicode="V" glyph-name="V"/>
<glyph horiz-adv-x="1018" d="M5 658q53 -8 117 -8t121 8l6 -33q-37 -5 -61 -13t-23 -28q0 -6 2 -13l142 -432l6 -29l6 -1l4 33l167 507h72l168 -514l6 -26l5 -1l6 30l135 433q3 8 3 14q0 20 -26 27l-61 13l6 33q54 -8 104 -8t103 8l7 -33q-42 -9 -52 -20t-26 -56l-189 -557h-68l-169 501l-6 27l-5 1 l-8 -34l-165 -495h-69l-185 557q-14 43 -26 55t-54 21z" unicode="W" glyph-name="W"/>
<glyph horiz-adv-x="669" d="M234 -8q-55 8 -107 8t-112 -9l-7 33q26 6 44 18t43 46l190 242l-160 221q-34 42 -50 55t-48 19l7 33q53 -8 125 -8t127 8l6 -33q-65 -7 -75 -29q-5 -12 3 -25l138 -187l138 187q7 13 2 25t-14 16q-22 9 -52 12l-10 1l6 33q56 -8 106 -8t103 8l7 -33q-40 -9 -52 -17 t-40 -46l-166 -216l182 -247q30 -41 46 -55t47 -19l-7 -33q-54 8 -130 8t-132 -8l-6 33q36 7 62 15t26 23q0 7 -6 16l-154 211l-158 -211q-10 -14 -2 -25t25 -16l61 -13z" unicode="X" glyph-name="X"/>
<glyph horiz-adv-x="592" d="M-2 659q54 -9 120 -9t133 9l-3 -32q-30 -5 -51 -13t-21 -22t8 -29l132 -233l131 234q7 12 7 23t-11 19q-12 8 -69 21l-3 32q70 -9 116 -9t107 9l-4 -32q-31 -3 -48 -15t-37 -50l-166 -286v-208q0 -24 16 -31q16 -8 58 -13l14 -1l-8 -31q-65 8 -123 8t-124 -8l-7 32 q49 4 67 12t18 32v206l-171 295q-18 33 -33 44t-44 14z" unicode="Y" glyph-name="Y"/>
<glyph horiz-adv-x="587" d="M58 463q-1 11 -1 31q-1 20 3 74t9 82l24 12q30 -12 71 -12h347l14 -50l-376 -547h285q16 16 44 70t39 83l36 -9q-1 -27 -14 -99t-21 -98h-469l-9 47l378 550h-274q-29 -41 -51 -141z" unicode="Z" glyph-name="Z"/>
<glyph horiz-adv-x="327" d="M112 -156v806h196v-54h-129v-698h129v-54h-196z" unicode="[" glyph-name="bracketleft"/>
<glyph horiz-adv-x="441" d="M78 667l340 -809l-55 -28l-340 809z" unicode="\" glyph-name="backslash"/>
<glyph horiz-adv-x="327" d="M309 650v-806h-197v55h125v696h-125v55h197z" unicode="]" glyph-name="bracketright"/>
<glyph horiz-adv-x="474" d="M36 311l177 355h48l177 -355l-54 -26l-147 305l-147 -305z" unicode="^" glyph-name="asciicircum"/>
<glyph horiz-adv-x="500" d="M0 -156v49h500v-49h-500z" unicode="_" glyph-name="underscore"/>
<glyph d="M86 676h13q45 0 72 -6q8 -10 43 -72t45 -81l-32 -19l-151 162z" unicode="`" glyph-name="grave"/>
<glyph horiz-adv-x="455" d="M363 286v-204q0 -36 39 -36l27 1l8 -29q-49 -11 -104 -34q-37 25 -47 67q-46 -39 -74 -53t-56 -14q-52 0 -82 32t-30 86t39 82q39 26 108 33l92 10v45q0 57 -17 86q-18 29 -62 29t-66 -12q-6 -21 -6 -92l-42 -12q-22 73 -25 112q108 49 156 49q74 0 108 -36t34 -110z M145 64q18 -20 52 -20t86 40v114l-77 -14q-79 -13 -79 -72q0 -28 18 -48z" unicode="a" glyph-name="a"/>
<glyph horiz-adv-x="517" d="M267 373q-26 1 -52 -9t-39 -19l-13 -9v-229q1 -37 29 -59t77 -23q49 0 83 44t34 132q0 172 -119 172zM163 375q85 57 145 57q83 0 125 -56t42 -156q-1 -100 -61 -168t-146 -68t-185 41v597q0 18 -5 26t-20 8l-42 -6l-6 30q72 32 146 38l15 -18q-8 -30 -8 -98v-227z" unicode="b" glyph-name="b"/>
<glyph horiz-adv-x="435" d="M328 265q1 10 1 24q0 60 -11 82q-27 19 -83 19q-104 0 -104 -167q0 -86 39 -131t99 -45t120 41l16 -24q-89 -80 -163 -80q-88 0 -144 59t-56 157t54 164q54 68 147 68q31 0 80 -14t75 -24q-2 -20 -14 -68t-22 -67z" unicode="c" glyph-name="c"/>
<glyph horiz-adv-x="528" d="M164 86q33 -42 85 -43q52 0 103 40v249q-17 27 -46 43t-57 16q-53 0 -85 -44q-32 -43 -33 -131q0 -88 33 -130zM432 85q0 -27 15 -33t32 -6t32 2l7 -30q-65 -13 -117 -34q-37 28 -46 68q-83 -68 -132 -68q-89 0 -135 56t-46 157t58 168t158 67q50 0 94 -21v211 q0 31 -18 34h-10q-16 0 -42 -4l-11 -2l-5 30q28 12 77 24t81 14l15 -18q-7 -30 -7 -98v-517z" unicode="d" glyph-name="d"/>
<glyph horiz-adv-x="450" d="M234 391q-53 -1 -78 -43t-25 -102l192 24q0 121 -89 121zM275 47q60 0 120 43l16 -22q-91 -84 -175 -84t-140 58q-54 58 -54 156t55 166t143 68t130 -54q43 -54 43 -148l-282 -20q8 -163 144 -163z" unicode="e" glyph-name="e"/>
<glyph horiz-adv-x="327" d="M107 474q-1 100 49 172t140 72q43 0 110 -18q-7 -51 -35 -125l-29 -2q0 42 -20 72t-58 30q-38 1 -58 -43q-19 -44 -19 -101v-119l119 8l-9 -53l-110 3v-303q0 -13 3 -18t12 -10q17 -9 60 -15l14 -2l-8 -30q-84 8 -114 8t-112 -8l-8 30q40 6 54 14t16 12q2 5 3 18v306 l-63 1l-3 28l66 15v58z" unicode="f" glyph-name="f"/>
<glyph horiz-adv-x="471" d="M132 283q0 -53 26 -89t72 -35q92 0 92 111q0 52 -26 88t-71 36q-93 0 -93 -111zM100 -125q0 -37 37 -61t99 -25q62 0 104 28t41 67q-1 40 -21 58t-68 22l-120 9q-40 -33 -56 -53t-16 -45zM48 277q0 75 51 115t131 40q52 0 85 -16l11 -6q67 6 124 32l13 -14l-11 -48 q-18 -3 -40 -3t-45 2q17 -17 29 -45t11 -57q0 -73 -51 -115t-131 -42l-39 4q-42 -32 -42 -49q0 -27 76 -32l99 -7q63 -5 96 -35t33 -79q0 -48 -40 -92t-98 -67t-127 -23t-116 30t-47 90q0 28 9 46l99 75q-66 18 -66 64q0 13 7 27l78 62q-10 2 -31 16t-34 28q-14 14 -24 42 q-10 26 -10 57z" unicode="g" glyph-name="g"/>
<glyph horiz-adv-x="567" d="M474 281v-215q0 -13 2 -18t12 -10q14 -7 49 -14l10 -2l-7 -30q-82 8 -104 8t-103 -8l-7 29q34 5 48 13t18 13q2 5 2 17v197q0 58 -20 84t-72 26q-51 0 -115 -50v-257q1 -14 3 -18t12 -9q19 -10 54 -16l-7 -29q-81 8 -103 8t-104 -8l-8 30q40 6 54 14t16 12q2 5 3 18v556 q0 30 -17 33q-5 1 -11 1q-15 0 -34 -4l-11 -2l-5 30q29 12 75 24t76 14l14 -18q-7 -30 -7 -98v-244l37 29q57 45 120 45q62 0 96 -35t34 -116z" unicode="h" glyph-name="h"/>
<glyph horiz-adv-x="284" d="M72 599q0 24 16 40t42 16t42 -16t17 -40q-1 -23 -17 -39t-42 -16t-42 16t-16 39zM187 66q1 -13 3 -18t12 -10q19 -10 48 -14l10 -2l-7 -30q-67 8 -106 8t-105 -8l-8 30q40 6 54 14t16 12q2 5 3 18v275q0 29 -17 32q-4 1 -9 1q-14 0 -38 -5l-6 30q30 13 75 23t71 10 l15 -18q-11 -42 -11 -98v-250z" unicode="i" glyph-name="i"/>
<glyph horiz-adv-x="249" d="M95 -28v369q0 29 -17 32q-4 1 -8 1q-14 0 -40 -5l-5 30q31 13 75 23t71 10l14 -18q-10 -45 -10 -98v-314q0 -71 -13 -98q-35 -75 -127 -164l-21 21q52 64 74 136q7 28 7 75zM60 599q0 24 16 40t42 16t42 -16t17 -40q-1 -23 -17 -39t-42 -16t-42 16t-16 39z" unicode="j" glyph-name="j"/>
<glyph horiz-adv-x="513" d="M325 22q32 4 32 22q0 10 -11 22l-159 168v-168q1 -13 3 -18t13 -11l46 -15l-8 -30q-85 8 -103 8t-96 -8l-8 30q40 6 54 14t16 12q2 5 3 18v556q0 29 -17 34h-8q-14 0 -38 -4l-10 -2l-5 31q79 33 151 37l14 -18q-7 -30 -7 -97v-367l144 123q13 11 13 19q0 13 -37 15l-3 29 q40 -6 88 -6t85 6l-3 -30q-24 -4 -40 -8t-38 -24l-126 -109l175 -185q25 -27 44 -34l35 -10l-7 -30q-51 8 -95 8t-90 -8z" unicode="k" glyph-name="k"/>
<glyph horiz-adv-x="284" d="M187 66q1 -13 3 -18t12 -10q19 -10 48 -14l10 -2l-7 -30q-85 8 -107 8t-104 -8l-8 30q40 6 54 14t16 12q2 5 3 18v556q0 29 -17 34h-8q-14 0 -38 -4l-10 -2l-5 31q79 33 151 37l14 -18q-7 -30 -7 -58v-39v-537z" unicode="l" glyph-name="l"/>
<glyph horiz-adv-x="836" d="M339 432q96 0 118 -79l46 35q57 44 118 44t91 -34t31 -117v-215q1 -13 3 -18t11 -10q12 -7 48 -14l10 -2l-7 -30q-82 8 -104 8t-103 -8l-7 29q34 5 48 13t18 13q2 5 2 17v197q0 60 -18 85t-64 25t-117 -54q2 -22 2 -36v-215q1 -13 3 -18t11 -10q18 -10 53 -16l-7 -30 q-83 8 -101 8t-100 -8l-7 29q57 10 65 25q3 5 3 18v197q1 60 -17 85t-68 25t-113 -50v-257q1 -14 3 -18t12 -9q19 -10 54 -16l-7 -29q-81 8 -103 8t-104 -8l-8 30q40 6 54 14t16 12q2 5 3 18v270q0 30 -17 33q-5 1 -11 1q-14 0 -33 -4l-11 -2l-5 30q71 31 130 38l16 -18 q0 -26 10 -56l38 29q57 45 115 45z" unicode="m" glyph-name="m"/>
<glyph horiz-adv-x="567" d="M187 64q1 -14 3 -18t12 -9q19 -10 54 -16l-7 -29q-81 8 -103 8t-104 -8l-8 30q40 6 54 14t16 12q2 5 3 18v270q0 30 -17 33q-5 1 -11 1q-14 0 -33 -4l-11 -2l-5 30q71 31 130 38l16 -18q0 -26 10 -56l38 29q57 45 120 45q62 0 96 -35t34 -116v-215q0 -13 2 -18t12 -10 q14 -7 49 -14l10 -2l-7 -30q-82 8 -104 8t-103 -8l-7 29q34 5 48 13t18 13q2 5 2 17v197q0 58 -20 84t-72 26q-51 0 -115 -50v-257z" unicode="n" glyph-name="n"/>
<glyph horiz-adv-x="502" d="M131 219q0 -94 35 -144t98 -50q106 0 106 172q0 93 -36 143t-98 51q-105 0 -105 -172zM96 42q-54 58 -54 158t58 166t154 66t151 -58t55 -158t-58 -166t-155 -66t-151 58z" unicode="o" glyph-name="o"/>
<glyph horiz-adv-x="532" d="M282 25q51 1 85 45t34 131q0 171 -116 171q-45 0 -106 -52v-236q17 -25 45 -42t58 -17zM99 336q0 30 -17 33q-5 1 -11 1q-14 0 -33 -4l-11 -2l-5 30q67 31 132 38l16 -18l6 -54l49 35q50 37 103 37q82 0 122 -56t40 -156t-61 -168t-156 -68q-51 0 -94 26v-188 q0 -22 21 -29l72 -13l-8 -33q-78 9 -114 9t-110 -9l-8 30q58 12 64 26q3 5 3 18v515z" unicode="p" glyph-name="p"/>
<glyph horiz-adv-x="505" d="M164 84q34 -42 86 -41q52 0 103 36v231q1 37 -29 59t-79 22t-81 -45q-32 -44 -33 -132t33 -130zM435 314v-493q1 -13 3 -18t12 -10l48 -16l-7 -30q-53 9 -97 9t-125 -9l-7 33q55 7 74 14t19 28v223q-72 -61 -132 -61q-87 0 -134 56t-47 156t58 168t157 68q27 0 63 -8 t52 -8q18 0 55 16l15 -8q-7 -30 -7 -110z" unicode="q" glyph-name="q"/>
<glyph horiz-adv-x="381" d="M278 364q-38 0 -91 -75v-222q0 -13 4 -19t15 -9q17 -7 62 -11l15 -2l-7 -34q-90 8 -129 8t-105 -8l-8 30q40 6 54 14t16 12q2 5 3 18v270q0 30 -17 33q-5 1 -11 1q-14 0 -33 -4l-11 -2l-5 30q70 31 132 38l16 -18q0 -32 9 -77l33 42q43 53 90 53q20 0 71 -19 q-14 -79 -34 -129l-27 -2q0 36 -10 59t-32 23z" unicode="r" glyph-name="r"/>
<glyph horiz-adv-x="381" d="M179 22q81 0 81 70q0 31 -23 50t-65 39q-42 21 -57 29t-31 22q-33 29 -33 82q1 54 41 86t108 32q32 0 121 -23q-6 -61 -17 -100l-20 -4q-24 91 -91 91q-35 0 -53 -17t-17 -43q0 -26 18 -42t43 -28t43 -21l22 -11q31 -16 37 -22t17 -14t15 -16l9 -18q10 -18 10 -46 q0 -66 -46 -100q-45 -34 -117 -34t-126 27q-2 15 -2 55t2 54l29 6q8 -46 35 -75t67 -29z" unicode="s" glyph-name="s"/>
<glyph horiz-adv-x="336" d="M165 124q0 -47 17 -63q18 -16 52 -16t81 31l15 -23q-84 -69 -139 -69q-106 0 -106 125v263h-58l-5 26l63 18v67l80 37v-110l128 9l-8 -53l-120 4v-246z" unicode="t" glyph-name="t"/>
<glyph horiz-adv-x="550" d="M453 85q0 -27 15 -33t32 -6t32 2l7 -30q-69 -14 -117 -34q-47 34 -47 73l-36 -27q-59 -46 -119 -46q-127 0 -127 151v203q0 32 -17 35q-4 1 -9 1q-13 0 -31 -4l-10 -2l-5 30q59 25 145 34l14 -18q-7 -30 -7 -98v-161q-1 -57 21 -83t69 -27q47 0 109 47v246q0 32 -16 35 q-5 1 -11 1q-15 0 -35 -4l-11 -2l-6 30q66 29 152 34l15 -18q-7 -30 -7 -98v-231z" unicode="u" glyph-name="u"/>
<glyph horiz-adv-x="451" d="M352 367q0 13 -16 18l-45 9l-2 29q59 -7 84 -7t84 7l-7 -31q-21 0 -29 -8t-19 -34l-151 -359h-46l-154 362q-11 25 -19 31t-29 8l-6 31q66 -7 100 -7t100 7l-3 -29q-32 -6 -46 -10t-14 -17q0 -6 3 -14l99 -241l6 -25l6 -1l7 28l93 239q4 8 4 14z" unicode="v" glyph-name="v"/>
<glyph horiz-adv-x="686" d="M-2 423q66 -7 103 -7t103 7l-2 -29q-40 -6 -54 -10t-14 -14t3 -17l86 -235l5 -26l5 -2l7 29l101 297h48l100 -297l5 -27l6 -2l9 32l84 231q3 7 3 13q0 14 -16 19l-52 9l-2 29q50 -6 85 -6t85 6l-6 -31q-23 -1 -31 -8t-17 -31l-136 -362h-47l-101 292l-5 26l-6 2l-7 -29 l-99 -291h-48l-141 362q-10 24 -18 31t-30 8z" unicode="w" glyph-name="w"/>
<glyph horiz-adv-x="483" d="M187 -8q-53 8 -91 8t-86 -8l-7 30q33 2 74 42l128 146l-118 148q-16 20 -29 26t-34 9l-4 30q44 -7 105 -7t103 7l-2 -30q-22 -3 -34 -7t-14 -12q-4 -9 4 -20l79 -100l79 99q7 9 2 19t-17 13l-35 7l-2 30q38 -6 88 -6t86 6l-3 -30q-11 0 -15 -2l-6 -3t-7 -3q-3 -2 -5 -4 q-2 -1 -6 -6l-14 -14l-8 -8l-111 -130l130 -162q31 -36 63 -38l-7 -30q-49 8 -101 8t-102 -8l-7 30q32 6 44 10t16 14t-4 22l-88 110l-91 -110q-9 -13 -6 -23t13 -13l47 -10z" unicode="x" glyph-name="x"/>
<glyph horiz-adv-x="466" d="M65 -244h-12q-23 38 -32 97l18 9q28 -13 51 -13q48 0 75 58l42 92l-160 354q-12 25 -19 31t-29 8l-6 31q63 -7 99 -7t100 7l-2 -29q-32 -6 -46 -10t-14 -17q0 -6 3 -14l105 -240l5 -25h6l7 30l94 234q4 8 4 14q0 13 -16 18l-45 9l-2 29q50 -6 84 -6t84 6l-7 -31 q-22 -1 -29 -7t-17 -32l-211 -491q-45 -105 -130 -105z" unicode="y" glyph-name="y"/>
<glyph horiz-adv-x="405" d="M165 416h193l11 -23l-238 -350h165q9 9 27 43t24 52l31 -6q-2 -39 -27 -132h-316l-6 23l239 352h-154q-8 -11 -20 -41t-18 -50l-29 5q0 19 4 67t7 63l20 11q44 -14 87 -14z" unicode="z" glyph-name="z"/>
<glyph horiz-adv-x="327" d="M138 411l-9 153q0 55 51 78q20 9 50 16t34 8l13 -24q-1 -1 -13 -5t-16 -6q-4 -3 -14 -7t-15 -8t-11 -10q-11 -12 -11 -32t7 -75t7 -78q0 -57 -31 -103t-68 -57v-9q37 -10 68 -58t31 -107q0 -27 -7 -85t-7 -75q1 -17 3 -24t8 -13t11 -10t15 -8t14 -7q4 -2 16 -6t13 -5 l-13 -24q-4 1 -26 6q-22 6 -31 8t-27 10t-27 18q-24 25 -24 60l9 165q0 55 -22 97t-63 43v39q41 0 63 40t22 95z" unicode="{" glyph-name="braceleft"/>
<glyph horiz-adv-x="317" d="M125 -170v836h67v-836h-67z" unicode="|" glyph-name="bar"/>
<glyph horiz-adv-x="327" d="M189 97l9 -165q0 -55 -50 -78q-20 -9 -50 -16t-35 -8l-13 24q2 1 14 5t15 6q4 3 14 7t15 8t11 10q11 10 11 32t-7 80t-7 85q0 59 31 107t68 58v9q-37 11 -68 57t-31 103q0 23 7 78t7 71t-2 23t-9 13q-6 6 -11 10t-15 8t-14 7q-3 2 -15 6t-14 5l13 24q3 -1 25 -6 q22 -6 32 -8t28 -10t26 -18q24 -25 24 -60l-9 -153q0 -55 22 -95t63 -40v-39q-41 -1 -63 -43t-22 -97z" unicode="}" glyph-name="braceright"/>
<glyph horiz-adv-x="499" d="M155 247q-41 0 -88 -66l-34 22q15 25 49 63t53 52l35 6q18 -4 82 -38t92 -33q40 0 88 67l34 -18q-16 -26 -50 -68t-52 -54l-35 -6q-19 4 -83 38t-91 35z" unicode="~" glyph-name="asciitilde"/>
<glyph horiz-adv-x="218" unicode=" " glyph-name="nbspace"/>
<glyph horiz-adv-x="253" d="M177 -244l-14 -16q-17 0 -52 6t-43 12q18 223 30 349l10 108l28 8l13 -7l7 -158zM71 370q0 24 15 39q14 15 40 15t42 -16t16 -38t-16 -38t-41 -16t-41 15t-15 39z" unicode="¡" glyph-name="exclamdown"/>
<glyph horiz-adv-x="441" d="M134 319q0 -119 79 -154l11 310q-90 -10 -90 -156zM90 157q-45 54 -45 140q1 86 49 149t132 71l3 88l38 5l-4 -93q66 -7 138 -37q-3 -20 -15 -64t-21 -61l-37 7q1 10 1 23q0 55 -11 73q-16 11 -56 16l-11 -319q8 -2 27 -2q53 0 114 36l16 -24q-88 -73 -160 -75l-3 -102 l-38 -4l4 108q-76 11 -121 65z" unicode="¢" glyph-name="cent"/>
<glyph horiz-adv-x="511" d="M127 330v36q0 100 54 172t150 72q45 0 115 -18q-8 -62 -35 -142l-34 -2q0 38 -10 100q-25 17 -69 17t-65 -43t-21 -99v-93h150l-8 -42h-142v-101q0 -78 -38 -118l-21 -7l3 -6h232q10 11 28 52t23 63l34 -7q-1 -24 -8 -84t-11 -80h-304q-28 0 -110 -8l-7 32q12 1 33 8 q61 22 61 93v163h-78l8 42h70z" unicode="£" glyph-name="sterling"/>
<glyph horiz-adv-x="574" d="M194 406q-38 -42 -37 -102q-1 -62 37 -104t94 -41q56 -1 92 41q38 42 38 104t-38 102q-38 42 -92 42q-56 0 -94 -42zM91 303q0 71 41 125q-44 31 -74 57l3 19q13 19 26 25l19 4q30 -36 55 -74q53 46 125 46t126 -46q30 43 56 74l19 -4q13 -6 26 -25l3 -19 q-40 -34 -74 -56q42 -57 42 -127t-42 -124q44 -31 74 -56l-3 -19q-13 -19 -26 -25l-19 -4q-30 36 -56 73q-52 -45 -124 -45t-127 45q-22 -34 -55 -73l-19 4q-13 6 -26 25l-3 19q34 30 74 56q-41 54 -41 125z" unicode="¤" glyph-name="currency"/>
<glyph horiz-adv-x="592" d="M250 251v28l-161 236q-19 33 -35 44t-47 14l-4 32q45 -9 115 -9t138 9l-3 -32q-31 -5 -46 -11t-20 -20q-5 -12 5 -28l124 -174l123 174q9 12 7 24t-8 17q-8 4 -59 18l-3 32q67 -9 112 -9t106 9l-4 -32q-34 -3 -53 -15t-42 -50l-156 -227v-30h138l-8 -42h-130v-53h124 l-8 -42h-116v-46q0 -24 16 -31q16 -8 58 -13l14 -1l-8 -31q-65 8 -123 8t-124 -8l-7 32q49 4 67 12t18 32v46h-135l8 42h127v53h-121l8 42h113z" unicode="¥" glyph-name="yen"/>
<glyph horiz-adv-x="317" d="M125 384v282h67v-282h-67zM125 -170v289h67v-289h-67z" unicode="¦" glyph-name="brokenbar"/>
<glyph horiz-adv-x="448" d="M313 214q0 41 -28 68q-31 28 -111 72q-6 3 -9 4q-35 -24 -35 -67q0 -26 14 -47q14 -22 28 -32t42 -28q53 -37 60 -40q18 12 28 32t11 38zM53 266q0 34 20 66t50 52q-73 50 -73 125t50 116t136 41q42 0 137 -27q-1 -21 -7 -67t-12 -62l-27 -5q-14 77 -23 95q-28 23 -76 23 q-48 1 -71 -23t-23 -59t23 -55t57 -42t60 -36q24 -14 32 -20t27 -19q19 -14 26 -24t17 -27q19 -29 19 -70q1 -41 -23 -76t-57 -53q77 -54 77 -130t-56 -118t-142 -42q-88 0 -146 35q-2 42 -2 77t2 62l33 7q9 -60 41 -98t80 -38q101 0 101 90q0 40 -35 69q-31 25 -95 63 q-64 42 -83 63q-37 41 -37 107z" unicode="§" glyph-name="section"/>
<glyph horiz-adv-x="384" d="M232 591q0 23 16 38t40 15t40 -15t15 -38q1 -23 -15 -37t-40 -15q-24 1 -40 15t-16 37zM40 591q0 23 16 38t40 15t40 -15t15 -38q1 -23 -15 -37t-40 -15q-24 1 -40 15t-16 37z" unicode="¨" glyph-name="dieresis"/>
<glyph horiz-adv-x="706" d="M84 297q0 -114 78 -194t191 -80t191 80t78 194t-78 194t-191 80t-191 -80t-78 -194zM40 297q0 129 92 221t221 92t221 -92t92 -221t-92 -221t-221 -92t-221 92t-92 221zM361 133q-76 0 -125 43t-49 119q1 76 49 127t128 51q36 0 113 -17q-4 -55 -13 -92l-23 -4 q-6 57 -10 67q-25 12 -73 12t-74 -36q-26 -37 -26 -95t30 -100t72 -41q42 0 62 17t33 57l20 -2q0 -33 -10 -89q-51 -17 -104 -17z" unicode="©" glyph-name="copyright"/>
<glyph horiz-adv-x="329" d="M106 392q0 -14 9 -24t31 -10t47 20v65l-41 -7q-46 -9 -46 -44zM263 511v-125q0 -15 7 -21q7 -3 17 -3t22 2l6 -31q-38 -7 -83 -27q-10 4 -20 18t-14 27q-37 -29 -56 -37t-35 -8q-37 0 -57 22t-20 60t28 55t79 23l56 7v29q0 72 -48 72q-24 0 -42 -8q-5 -16 -5 -32t1 -27 l-33 -8q-6 9 -12 37t-7 39q75 35 115 35q101 0 101 -99z" unicode="ª" glyph-name="ordfeminine"/>
<glyph horiz-adv-x="466" d="M396 28l-173 168v24l173 168l23 -22l-103 -158l103 -158zM218 28l-173 168v24l173 168l23 -22l-103 -158l103 -158z" unicode="«" glyph-name="guillemotleft"/>
<glyph horiz-adv-x="567" d="M54 234v65h459v-199h-60v134h-399z" unicode="¬" glyph-name="logicalnot"/>
<glyph horiz-adv-x="497" d="M73 449q-1 -76 51 -130t124 -54t124 54t52 130q0 77 -52 131t-124 54t-124 -54t-51 -131zM32 449q0 91 63 154t154 63t153 -63t63 -154q-1 -91 -63 -153t-153 -63q-91 1 -154 63t-63 153zM163 377q22 0 22 12v140q0 7 -5 8l-17 4l1 16h12l68 2q33 -1 54 -13t21 -34 q1 -22 -13 -37q-14 -14 -33 -15v-3q13 -3 33 -35t29 -39q9 -6 25 -6l-3 -16h-47q-9 1 -17 13q-9 12 -13 20t-11 18q-19 32 -24 34t-7 3h-15v-57q0 -9 7 -11l25 -4l-2 -17q-33 2 -45 2t-44 -2zM223 468h18q38 0 38 36t-35 37q-14 0 -21 -3v-70z" unicode="®" glyph-name="registered"/>
<glyph horiz-adv-x="500" d="M0 547v49h500v-49h-500z" unicode="¯" glyph-name="overscore"/>
<glyph horiz-adv-x="299" d="M78 548q0 -28 20 -49t50 -21t52 21t21 49q1 28 -21 49t-52 21t-50 -21t-20 -49zM27 548q-1 50 35 84t86 34t88 -34q36 -34 36 -84t-36 -84t-88 -34q-50 0 -86 34t-35 84z" unicode="°" glyph-name="degree"/>
<glyph horiz-adv-x="460" d="M414 18h-368v56h368v-56zM261 496v-155h149v-56h-149v-158h-62v158h-149v56h149v155h62z" unicode="±" glyph-name="plusminus"/>
<glyph horiz-adv-x="367" d="M106 612q-3 -16 -3 -34t2 -35l-32 -4q-19 36 -28 96q77 30 125 30t82 -24t33 -73q0 -28 -12 -53t-25 -39q-40 -45 -121 -108l3 -7h121q8 7 23 29t19 32l27 -5q0 -11 -8 -49t-13 -53h-249l-5 40q70 61 105 104q56 58 56 104q0 27 -12 44t-40 17q-26 0 -48 -12z" unicode="²" glyph-name="twosuperior"/>
<glyph horiz-adv-x="347" d="M203 574q0 24 -13 38t-43 13q-30 0 -45 -7q-3 -34 -3 -46v-16l-28 -5q-16 27 -23 90q90 25 128 25t70 -20t32 -54t-24 -55q-24 -22 -56 -28v-7q42 0 72 -21t30 -67t-42 -76q-42 -32 -96 -32q-53 0 -119 18q1 14 9 50t15 51l29 -4q-1 -15 -1 -35t4 -32q21 -7 51 -7 q30 1 50 17q21 16 21 42q0 70 -78 70q-8 0 -17 -1l2 30q26 5 50 25t25 44z" unicode="³" glyph-name="threesuperior"/>
<glyph d="M151 670q27 6 54 6h31l10 -16l-151 -162l-32 19q10 19 45 81t43 72z" unicode="´" glyph-name="acute"/>
<glyph horiz-adv-x="523" d="M116 14q0 -195 40 -263l-14 -11q-16 0 -40 6t-34 11q1 149 15 360v284l10 15q26 12 62 16l15 -18q-7 -26 -7 -98v-161q-1 -53 15 -79t54 -26t74 48t36 96v207l10 15q26 11 63 16l15 -18q-7 -30 -7 -98v-221q0 -43 24 -43q14 0 34 18t34 35l20 -17q-64 -104 -121 -104 q-31 0 -50 23t-19 56v33q-35 -58 -70 -85t-83 -27t-76 30z" unicode="µ" glyph-name="mu"/>
<glyph horiz-adv-x="481" d="M373 565v-523q0 -121 -67 -180q-36 -32 -83 -32h-12q-26 32 -47 117l20 10q32 -19 56 -19t42 18t24 44q7 22 7 77v445q0 87 -13 121l20 23q82 -8 151 -35l-9 -40q-40 8 -60 8q-20 1 -24 -7t-5 -27zM70 294q-48 46 -48 126q0 82 50 136t131 54h30l23 -19v-324l-23 -19h-30 q-85 0 -133 46z" unicode="¶" glyph-name="paragraph"/>
<glyph horiz-adv-x="285" d="M87 271q-1 23 15 38t40 15t40 -15t16 -38t-16 -37t-40 -15q-24 1 -40 15t-15 37z" unicode="·" glyph-name="periodcentered"/>
<glyph d="M224 -94q22 -22 22 -60t-28 -60q-28 -24 -68 -25h-3q-40 0 -90 28l15 31q40 -18 68 -18q53 0 53 40q0 26 -23 40q-15 8 -30 8t-28 -3l-13 21l52 92h40l-22 -71q33 -1 55 -23z" unicode="¸" glyph-name="cedilla"/>
<glyph horiz-adv-x="293" d="M188 379q0 -17 14 -24q12 -7 51 -13l-5 -32q-38 5 -98 5t-95 -5l-7 32q40 4 55 12t15 25v196q0 17 -6 23t-22 6h-40l-4 24q69 29 125 38l17 -17v-270z" unicode="¹" glyph-name="onesuperior"/>
<glyph horiz-adv-x="362" d="M112 466q0 -58 20 -89t58 -31q59 0 59 106q-1 56 -21 86t-57 31q-59 0 -59 -103zM72 345q-38 40 -39 108q0 69 41 113t109 44t107 -40t39 -107q0 -68 -41 -113q-42 -45 -110 -45t-106 40z" unicode="º" glyph-name="ordmasculine"/>
<glyph horiz-adv-x="466" d="M243 196l-173 -168l-23 22l103 158l-103 158l23 22l173 -168v-24zM421 196l-173 -168l-23 22l103 158l-103 158l23 22l173 -168v-24z" unicode="»" glyph-name="guillemotright"/>
<glyph horiz-adv-x="731" d="M546 146v139l-2 1l-6 -14l-90 -121l3 -5h95zM616 100v-45q0 -13 11 -19l29 -9l-4 -32q-50 5 -73 5t-83 -5l-4 32q32 3 43 9t11 19v45h-130l-22 37l159 214h63v-205h49l-10 -46h-39zM204 379q0 -17 14 -24q12 -7 51 -13l-5 -32q-38 5 -98 5t-95 -5l-7 32q40 4 55 12t15 25 v196q0 17 -6 23t-22 6h-40l-4 24q69 29 125 38l17 -17v-270zM183 8l360 679l40 -24l-360 -679z" unicode="¼" glyph-name="onequarter"/>
<glyph horiz-adv-x="779" d="M497 297q-3 -15 -3 -33t2 -36l-32 -4q-19 36 -28 96q78 30 126 30t80 -24q34 -24 34 -73q0 -28 -12 -53q-12 -26 -25 -40t-41 -40t-80 -67l3 -7h121q8 6 23 28t19 33l27 -5q0 -12 -8 -50t-13 -52h-249l-5 40q70 61 105 104q56 58 56 104q-1 27 -13 44t-38 17t-49 -12z M204 379q0 -17 14 -24q12 -7 51 -13l-5 -32q-38 5 -98 5t-95 -5l-7 32q40 4 55 12t15 25v196q0 17 -6 23t-22 6h-40l-4 24q69 29 125 38l17 -17v-270zM161 8l360 679l40 -24l-360 -679z" unicode="½" glyph-name="onehalf"/>
<glyph horiz-adv-x="738" d="M553 146v139l-2 1l-6 -14l-90 -121l3 -5h95zM623 100v-45q0 -13 11 -19l29 -9l-4 -32q-50 5 -73 5t-83 -5l-4 32q32 3 43 9t11 19v45h-130l-22 37l159 214h63v-205h49l-10 -46h-39zM216 574q0 24 -13 38t-43 13q-30 0 -45 -7q-3 -34 -3 -46v-16l-28 -5q-16 27 -23 90 q89 25 127 25t71 -20q32 -20 32 -54q-1 -34 -25 -55q-24 -22 -55 -28v-7q41 0 71 -21t31 -67q-1 -46 -43 -76q-42 -32 -95 -32t-119 18q2 14 10 50t14 51l29 -4q-1 -15 -1 -35t4 -32q20 -7 50 -7q30 1 51 17t21 42q0 70 -78 70q-8 0 -17 -1l2 30q27 5 51 25t24 44zM190 8 l360 679l40 -24l-360 -679z" unicode="¾" glyph-name="threequarters"/>
<glyph horiz-adv-x="432" d="M317 370q1 -24 -15 -39t-42 -15t-41 16q-16 16 -16 38t16 38q15 16 41 16t42 -15t15 -39zM228 131q16 21 15 39q0 18 -12 50l24 20q47 -44 65 -91q0 -21 -12 -37l-18 -24t-20 -23l-21 -21q-7 -6 -25 -22t-22 -21q-72 -67 -72 -109t28 -68t72 -26t66 30t24 98l34 8 q26 -89 26 -130q-104 -47 -176 -47q-72 -1 -112 37q-42 38 -42 112q0 28 16 57t34 46q17 17 49 44q31 27 47 41t32 37z" unicode="¿" glyph-name="questiondown"/>
<glyph horiz-adv-x="650" d="M156 799l6 18q12 5 42 11t42 5q11 -7 62 -59t62 -66l-26 -27zM294 537l-87 -250h198l-88 243l-11 42l-7 3zM134 65q0 -20 25 -27l59 -13l-6 -33q-55 8 -104 8t-105 -8l-7 33q42 9 54 21t28 55l199 544q44 10 76 29l215 -573q16 -43 29 -55t55 -21l-7 -33q-55 8 -119 8 t-120 -8l-6 33q35 5 59 13t24 27q0 7 -3 14l-57 158h-233l-54 -158q-2 -5 -2 -14z" unicode="À" glyph-name="Agrave"/>
<glyph horiz-adv-x="650" d="M429 817l6 -18l-188 -118l-26 27q11 14 62 66t62 59q13 1 43 -5t41 -11zM294 537l-87 -250h198l-88 243l-11 42l-7 3zM134 65q0 -20 25 -27l59 -13l-6 -33q-55 8 -104 8t-105 -8l-7 33q42 9 54 21t28 55l199 544q44 10 76 29l215 -573q16 -43 29 -55t55 -21l-7 -33 q-55 8 -119 8t-120 -8l-6 33q35 5 59 13t24 27q0 7 -3 14l-57 158h-233l-54 -158q-2 -5 -2 -14z" unicode="Á" glyph-name="Aacute"/>
<glyph horiz-adv-x="650" d="M303 831q25 0 41 -2q12 -9 54 -63t48 -64l-28 -21l-115 90l-115 -90l-28 21q6 10 48 64t54 63q16 2 41 2zM294 537l-87 -250h198l-88 243l-11 42l-7 3zM134 65q0 -20 25 -27l59 -13l-6 -33q-55 8 -104 8t-105 -8l-7 33q42 9 54 21t28 55l199 544q44 10 76 29l215 -573 q16 -43 29 -55t55 -21l-7 -33q-55 8 -119 8t-120 -8l-6 33q35 5 59 13t24 27q0 7 -3 14l-57 158h-233l-54 -158q-2 -5 -2 -14z" unicode="Â" glyph-name="Acircumflex"/>
<glyph horiz-adv-x="650" d="M234 733q-24 0 -58 -42l-27 16q9 18 35 47t40 40l23 4q12 -2 57 -22q44 -20 68 -19q24 0 59 43l27 -17q-10 -18 -36 -48t-39 -40l-23 -4q-12 2 -57 22t-69 20zM294 537l-87 -250h198l-88 243l-11 42l-7 3zM134 65q0 -20 25 -27l59 -13l-6 -33q-55 8 -104 8t-105 -8l-7 33 q42 9 54 21t28 55l199 544q44 10 76 29l215 -573q16 -43 29 -55t55 -21l-7 -33q-55 8 -119 8t-120 -8l-6 33q35 5 59 13t24 27q0 7 -3 14l-57 158h-233l-54 -158q-2 -5 -2 -14z" unicode="Ã" glyph-name="Atilde"/>
<glyph horiz-adv-x="650" d="M343 739q-1 23 15 38t40 15t40 -15t16 -38t-16 -37t-40 -15q-24 1 -40 15t-15 37zM151 739q-1 23 15 38t40 15t40 -15t16 -38t-16 -37t-40 -15q-24 1 -40 15t-15 37zM294 537l-87 -250h198l-88 243l-11 42l-7 3zM134 65q0 -20 25 -27l59 -13l-6 -33q-55 8 -104 8t-105 -8 l-7 33q42 9 54 21t28 55l199 544q44 10 76 29l215 -573q16 -43 29 -55t55 -21l-7 -33q-55 8 -119 8t-120 -8l-6 33q35 5 59 13t24 27q0 7 -3 14l-57 158h-233l-54 -158q-2 -5 -2 -14z" unicode="Ä" glyph-name="Adieresis"/>
<glyph horiz-adv-x="650" d="M224 766q0 34 26 60t60 25q34 1 60 -25t26 -60t-26 -60t-60 -25q-34 -1 -60 25t-26 60zM262 766q0 -22 14 -37t34 -15t34 15t14 37t-14 37t-34 15t-34 -15t-14 -37zM294 537l-87 -250h198l-88 243l-11 42l-7 3zM134 65q0 -20 25 -27l59 -13l-6 -33q-55 8 -104 8t-105 -8 l-7 33q42 9 54 21t28 55l199 544q44 10 76 29l215 -573q16 -43 29 -55t55 -21l-7 -33q-55 8 -119 8t-120 -8l-6 33q35 5 59 13t24 27q0 7 -3 14l-57 158h-233l-54 -158q-2 -5 -2 -14z" unicode="Å" glyph-name="Aring"/>
<glyph horiz-adv-x="857" d="M414 603h-22l-111 -243h133v243zM459 650h236q46 0 82 6v-155l-37 -6q-14 85 -32 108h-205v-243h135q28 0 33 15q6 14 11 47l1 12l38 -4q-8 -50 -8 -94t8 -94l-38 -4q-5 42 -11 58t-34 16h-135v-264h215q12 12 30 56t25 69l36 -6q-1 -27 -8 -87t-13 -80h-329 q-46 0 -113 -8l-7 33q39 5 57 13t18 31v243h-155l-106 -233q-9 -19 -9 -29t8 -13q13 -6 47 -11l11 -1l-6 -33q-60 8 -109 8t-100 -8l-7 33q43 8 57 17q17 9 40 59l261 555q47 -6 113 -6z" unicode="Æ" glyph-name="AE"/>
<glyph horiz-adv-x="660" d="M47 299q0 163 94 265t252 102q62 0 106 -8t80 -16t41 -8q-10 -109 -27 -171l-34 -6q-13 106 -34 137q-47 26 -151 26t-165 -79t-61 -206t68 -216t179 -89q79 0 121 36t65 120l34 -5q-1 -75 -21 -164q-97 -33 -209 -33h-3l-17 -55q33 -1 55 -23t22 -60t-28 -60 q-28 -24 -68 -25h-3q-40 0 -90 28l15 31q40 -18 68 -18q53 0 53 40q0 26 -23 40q-15 8 -30 8t-28 -3l-13 21l44 79q-131 13 -211 97t-81 215z" unicode="Ç" glyph-name="Ccedilla"/>
<glyph horiz-adv-x="583" d="M147 799l6 18q11 5 41 11t43 5q11 -7 62 -59t62 -66l-26 -27zM214 312v-264h230q12 12 30 56t25 69l36 -6q-1 -27 -8 -87t-13 -80h-344q-46 0 -113 -8l-7 33q40 5 58 13t17 31v514q0 24 -16 30q-13 6 -49 11l-10 2l7 33q76 -9 113 -9h251q45 0 82 6q3 -36 3 -75t-3 -80 l-37 -6q-14 85 -32 108h-220v-243h150q28 0 33 15q6 14 11 47l1 12l38 -4q-8 -50 -8 -94t8 -94l-38 -4q-5 42 -11 58t-34 16h-150z" unicode="È" glyph-name="Egrave"/>
<glyph horiz-adv-x="583" d="M420 817l6 -18l-188 -118l-26 27q11 14 62 66t62 59q12 1 42 -5t42 -11zM214 312v-264h230q12 12 30 56t25 69l36 -6q-1 -27 -8 -87t-13 -80h-344q-46 0 -113 -8l-7 33q40 5 58 13t17 31v514q0 24 -16 30q-13 6 -49 11l-10 2l7 33q76 -9 113 -9h251q45 0 82 6 q3 -36 3 -75t-3 -80l-37 -6q-14 85 -32 108h-220v-243h150q28 0 33 15q6 14 11 47l1 12l38 -4q-8 -50 -8 -94t8 -94l-38 -4q-5 42 -11 58t-34 16h-150z" unicode="É" glyph-name="Eacute"/>
<glyph horiz-adv-x="583" d="M294 831q25 0 41 -2q12 -9 54 -63t48 -64l-28 -21l-115 90l-115 -90l-28 21q6 10 48 64t54 63q16 2 41 2zM214 312v-264h230q12 12 30 56t25 69l36 -6q-1 -27 -8 -87t-13 -80h-344q-46 0 -113 -8l-7 33q40 5 58 13t17 31v514q0 24 -16 30q-13 6 -49 11l-10 2l7 33 q76 -9 113 -9h251q45 0 82 6q3 -36 3 -75t-3 -80l-37 -6q-14 85 -32 108h-220v-243h150q28 0 33 15q6 14 11 47l1 12l38 -4q-8 -50 -8 -94t8 -94l-38 -4q-5 42 -11 58t-34 16h-150z" unicode="Ê" glyph-name="Ecircumflex"/>
<glyph horiz-adv-x="583" d="M334 738q0 23 16 38t40 15t40 -15t15 -38q1 -24 -15 -38t-40 -14t-40 14t-16 38zM142 738q0 23 16 38t40 15t40 -15t15 -38q1 -24 -15 -38t-40 -14t-40 14t-16 38zM214 312v-264h230q12 12 30 56t25 69l36 -6q-1 -27 -8 -87t-13 -80h-344q-46 0 -113 -8l-7 33q40 5 58 13 t17 31v514q0 24 -16 30q-13 6 -49 11l-10 2l7 33q76 -9 113 -9h251q45 0 82 6q3 -36 3 -75t-3 -80l-37 -6q-14 85 -32 108h-220v-243h150q28 0 33 15q6 14 11 47l1 12l38 -4q-8 -50 -8 -94t8 -94l-38 -4q-5 42 -11 58t-34 16h-150z" unicode="Ë" glyph-name="Edieresis"/>
<glyph horiz-adv-x="339" d="M24 799l6 18q12 5 42 11t42 5q11 -7 62 -59t62 -66l-26 -27zM214 582v-514q0 -14 2 -20t12 -10q15 -6 52 -12l11 -1l-7 -33q-68 8 -114 8t-113 -8l-7 33q66 8 72 23q3 6 3 20v514q-1 14 -3 20t-12 10q-14 6 -50 12l-10 1l7 33q67 -8 113 -8t114 8l7 -33q-67 -8 -75 -23 q-2 -6 -2 -20z" unicode="Ì" glyph-name="Igrave"/>
<glyph horiz-adv-x="339" d="M297 817l6 -18l-188 -118l-26 27q11 14 62 66t62 59q13 1 43 -5t41 -11zM214 582v-514q0 -14 2 -20t12 -10q15 -6 52 -12l11 -1l-7 -33q-68 8 -114 8t-113 -8l-7 33q66 8 72 23q3 6 3 20v514q-1 14 -3 20t-12 10q-14 6 -50 12l-10 1l7 33q67 -8 113 -8t114 8l7 -33 q-67 -8 -75 -23q-2 -6 -2 -20z" unicode="Í" glyph-name="Iacute"/>
<glyph horiz-adv-x="339" d="M171 831q25 0 41 -2q12 -9 54 -63t48 -64l-28 -21l-115 90l-115 -90l-28 21q6 10 48 64t54 63q16 2 41 2zM214 582v-514q0 -14 2 -20t12 -10q15 -6 52 -12l11 -1l-7 -33q-68 8 -114 8t-113 -8l-7 33q66 8 72 23q3 6 3 20v514q-1 14 -3 20t-12 10q-14 6 -50 12l-10 1l7 33 q67 -8 113 -8t114 8l7 -33q-67 -8 -75 -23q-2 -6 -2 -20z" unicode="Î" glyph-name="Icircumflex"/>
<glyph horiz-adv-x="339" d="M211 738q-1 23 15 38t40 15t40 -15t16 -38q0 -24 -16 -38t-40 -14t-40 14t-15 38zM19 738q-1 23 15 38t40 15t40 -15t16 -38q0 -24 -16 -38t-40 -14t-40 14t-15 38zM214 582v-514q0 -14 2 -20t12 -10q15 -6 52 -12l11 -1l-7 -33q-68 8 -114 8t-113 -8l-7 33q66 8 72 23 q3 6 3 20v514q-1 14 -3 20t-12 10q-14 6 -50 12l-10 1l7 33q67 -8 113 -8t114 8l7 -33q-67 -8 -75 -23q-2 -6 -2 -20z" unicode="Ï" glyph-name="Idieresis"/>
<glyph horiz-adv-x="750" d="M214 88q0 -52 128 -52t194 79t66 219q0 281 -292 281q-60 0 -96 -9v-245h181l-9 -46h-172v-227zM95 652l234 8q171 0 269 -70q105 -73 105 -237q0 -165 -92 -263t-254 -98q-46 0 -109 4t-91 4t-100 -8l-7 33q40 5 58 13t17 31v246h-79l9 46h70v218q-1 13 -3 17t-12 10 q-13 7 -50 14l-10 2l7 31q15 -1 38 -1z" unicode="Ð" glyph-name="Eth"/>
<glyph horiz-adv-x="764" d="M323 734q-24 0 -58 -42l-27 16q10 18 36 47t39 40l23 4q12 -1 57 -21t69 -20t58 43l27 -17q-11 -18 -37 -48t-38 -40l-23 -4q-12 2 -57 22t-69 20zM191 77q0 -15 4 -23t18 -12l83 -14l-7 -36q-70 8 -114 8t-118 -8l-7 33q40 5 58 13t17 31v514q0 24 -16 30q-14 7 -48 11 l-11 2l7 33q47 -9 95 -9t89 9q21 -40 62 -96l251 -347q17 -25 28 -59l4 -12l5 4v431q0 23 -17 30q-16 8 -54 12l-13 2l7 35q76 -9 106 -9t105 9l7 -33q-39 -4 -57 -12t-18 -31v-390q0 -80 6 -164l2 -28l-75 -15q-35 84 -115 192l-243 329q-17 24 -31 54l-5 11l-5 -4v-491z " unicode="Ñ" glyph-name="Ntilde"/>
<glyph horiz-adv-x="755" d="M228 799l6 18q12 5 42 11t42 5q11 -7 62 -59t62 -66l-26 -27zM203 542q-55 -76 -55 -203t62 -217t174 -90t168 76q55 76 55 203t-62 217q-63 90 -175 90t-167 -76zM137 71q-90 87 -90 240q-1 153 89 254t241 101t241 -87t90 -240t-90 -254t-240 -101q-151 0 -241 87z" unicode="Ò" glyph-name="Ograve"/>
<glyph horiz-adv-x="755" d="M501 817l6 -18l-188 -118l-26 27q11 14 62 66t62 59q13 1 43 -5t41 -11zM203 542q-55 -76 -55 -203t62 -217t174 -90t168 76q55 76 55 203t-62 217q-63 90 -175 90t-167 -76zM137 71q-90 87 -90 240q-1 153 89 254t241 101t241 -87t90 -240t-90 -254t-240 -101 q-151 0 -241 87z" unicode="Ó" glyph-name="Oacute"/>
<glyph horiz-adv-x="755" d="M375 831q25 0 41 -2q12 -9 54 -63t48 -64l-28 -21l-115 90l-115 -90l-28 21q6 10 48 64t54 63q16 2 41 2zM203 542q-55 -76 -55 -203t62 -217t174 -90t168 76q55 76 55 203t-62 217q-63 90 -175 90t-167 -76zM137 71q-90 87 -90 240q-1 153 89 254t241 101t241 -87 t90 -240t-90 -254t-240 -101q-151 0 -241 87z" unicode="Ô" glyph-name="Ocircumflex"/>
<glyph horiz-adv-x="755" d="M306 733q-24 0 -58 -42l-27 16q9 18 35 47t40 40l23 4q12 -2 57 -22q44 -20 68 -19q24 0 59 43l27 -17q-10 -18 -36 -48t-39 -40l-23 -4q-12 2 -57 22t-69 20zM203 542q-55 -76 -55 -203t62 -217t174 -90t168 76q55 76 55 203t-62 217q-63 90 -175 90t-167 -76zM137 71 q-90 87 -90 240q-1 153 89 254t241 101t241 -87t90 -240t-90 -254t-240 -101q-151 0 -241 87z" unicode="Õ" glyph-name="Otilde"/>
<glyph horiz-adv-x="755" d="M415 738q-1 23 15 38t40 15t40 -15t16 -38q0 -24 -16 -38t-40 -14t-40 14t-15 38zM223 738q-1 23 15 38t40 15t40 -15t16 -38q0 -24 -16 -38t-40 -14t-40 14t-15 38zM203 542q-55 -76 -55 -203t62 -217t174 -90t168 76q55 76 55 203t-62 217q-63 90 -175 90t-167 -76z M137 71q-90 87 -90 240q-1 153 89 254t241 101t241 -87t90 -240t-90 -254t-240 -101q-151 0 -241 87z" unicode="Ö" glyph-name="Odieresis"/>
<glyph horiz-adv-x="460" d="M368 34l-138 138l-138 -138l-41 41l138 138l-138 138l41 41l138 -138l138 138l41 -41l-138 -138l138 -138z" unicode="×" glyph-name="multiply"/>
<glyph horiz-adv-x="755" d="M148 345q0 -121 49 -204l303 434q-57 43 -134 43q-108 0 -163 -76t-55 -197zM607 305q0 150 -72 235l-307 -441q62 -67 166 -67t158 76q55 76 55 197zM143 64q-96 88 -96 244q-1 156 89 257t239 101q92 0 165 -34l45 65l34 -37l-37 -52q126 -87 126 -267q0 -155 -90 -256 t-238 -101q-115 0 -197 51l-46 -66l-35 36z" unicode="Ø" glyph-name="Oslash"/>
<glyph horiz-adv-x="724" d="M225 799l6 18q11 5 41 11t43 5q11 -7 62 -59t62 -66l-26 -27zM558 229v352q0 13 -2 19t-12 10q-19 8 -52 12l-12 2l7 34q67 -8 103 -8t103 8l7 -34q-42 -4 -60 -12t-17 -30v-337q-1 -127 -69 -193t-198 -66t-192 60q-63 60 -63 187v349q-1 14 -3 20t-12 10q-14 6 -50 12 l-10 1l7 33q67 -8 115 -8t115 8l7 -33q-71 -9 -78 -25q-2 -5 -2 -19v-332q0 -103 46 -153t138 -50t138 49t46 134z" unicode="Ù" glyph-name="Ugrave"/>
<glyph horiz-adv-x="724" d="M498 817l6 -18l-188 -118l-26 27q11 14 62 66t62 59q12 1 42 -5t42 -11zM558 229v352q0 13 -2 19t-12 10q-19 8 -52 12l-12 2l7 34q67 -8 103 -8t103 8l7 -34q-42 -4 -60 -12t-17 -30v-337q-1 -127 -69 -193t-198 -66t-192 60q-63 60 -63 187v349q-1 14 -3 20t-12 10 q-14 6 -50 12l-10 1l7 33q67 -8 115 -8t115 8l7 -33q-71 -9 -78 -25q-2 -5 -2 -19v-332q0 -103 46 -153t138 -50t138 49t46 134z" unicode="Ú" glyph-name="Uacute"/>
<glyph horiz-adv-x="724" d="M372 831q25 0 41 -2q12 -9 54 -63t48 -64l-28 -21l-115 90l-115 -90l-28 21q6 10 48 64t54 63q16 2 41 2zM558 229v352q0 13 -2 19t-12 10q-19 8 -52 12l-12 2l7 34q67 -8 103 -8t103 8l7 -34q-42 -4 -60 -12t-17 -30v-337q-1 -127 -69 -193t-198 -66t-192 60 q-63 60 -63 187v349q-1 14 -3 20t-12 10q-14 6 -50 12l-10 1l7 33q67 -8 115 -8t115 8l7 -33q-71 -9 -78 -25q-2 -5 -2 -19v-332q0 -103 46 -153t138 -50t138 49t46 134z" unicode="Û" glyph-name="Ucircumflex"/>
<glyph horiz-adv-x="724" d="M412 738q0 23 16 38t40 15t40 -15t15 -38q1 -24 -15 -38t-40 -14t-40 14t-16 38zM220 738q0 23 16 38t40 15t40 -15t15 -38q1 -24 -15 -38t-40 -14t-40 14t-16 38zM558 229v352q0 13 -2 19t-12 10q-19 8 -52 12l-12 2l7 34q67 -8 103 -8t103 8l7 -34q-42 -4 -60 -12 t-17 -30v-337q-1 -127 -69 -193t-198 -66t-192 60q-63 60 -63 187v349q-1 14 -3 20t-12 10q-14 6 -50 12l-10 1l7 33q67 -8 115 -8t115 8l7 -33q-71 -9 -78 -25q-2 -5 -2 -19v-332q0 -103 46 -153t138 -50t138 49t46 134z" unicode="Ü" glyph-name="Udieresis"/>
<glyph horiz-adv-x="592" d="M433 817l6 -18l-188 -118l-26 27q11 14 62 66t62 59q13 1 43 -5t41 -11zM-2 659q54 -9 120 -9t133 9l-3 -32q-30 -5 -51 -13t-21 -22t8 -29l132 -233l131 234q7 12 7 23t-11 19q-12 8 -69 21l-3 32q70 -9 116 -9t107 9l-4 -32q-31 -3 -48 -15t-37 -50l-166 -286v-208 q0 -24 16 -31q16 -8 58 -13l14 -1l-8 -31q-65 8 -123 8t-124 -8l-7 32q49 4 67 12t18 32v206l-171 295q-18 33 -33 44t-44 14z" unicode="Ý" glyph-name="Yacute"/>
<glyph horiz-adv-x="537" d="M228 214l33 -4q161 0 161 141q0 75 -40 111t-111 37q-27 0 -57 -7v-424q0 -14 2 -20t12 -10q15 -6 52 -12l11 -1l-7 -33q-68 8 -114 8t-113 -8l-7 33q66 8 72 23q3 6 3 20v514q-1 14 -3 20t-12 10q-14 6 -50 12l-10 1l7 33q67 -8 113 -8t114 8l7 -33q-67 -8 -75 -23 q-2 -6 -2 -20v-47q30 3 63 3q244 0 244 -174q0 -79 -68 -135t-155 -56q-14 0 -35 9t-31 16z" unicode="Þ" glyph-name="Thorn"/>
<glyph horiz-adv-x="590" d="M446 441q-21 -19 -42 -35q-48 -36 -48 -60t21 -42t59 -40q38 -20 53 -30t35 -26q36 -32 36 -94t-44 -96t-114 -34q-69 0 -121 27q-2 15 -2 55t2 54l29 6q8 -46 34 -75t63 -29q76 0 76 70q0 34 -22 56t-67 45q-46 23 -62 35t-32 38t-16 58t12 52q12 22 31 36q18 14 36 30 q43 34 43 98t-30 100t-99 35q-33 0 -54 -24q-36 -41 -36 -120v-464q0 -13 3 -18t14 -12l37 -15l-8 -30q-62 8 -88 8t-103 -8l-8 30q40 6 54 14t16 12q2 5 3 18v306h-63l-3 29l66 15v58q1 100 53 172t143 72t141 -50t50 -116t-48 -111z" unicode="ß" glyph-name="germandbls"/>
<glyph horiz-adv-x="455" d="M119 676h13q45 0 72 -6q8 -10 43 -72t45 -81l-32 -19l-151 162zM363 286v-204q0 -36 39 -36l27 1l8 -29q-49 -11 -104 -34q-37 25 -47 67q-46 -39 -74 -53t-56 -14q-52 0 -82 32t-30 86t39 82q39 26 108 33l92 10v45q0 57 -17 86q-18 29 -62 29t-66 -12q-6 -21 -6 -92 l-42 -12q-22 73 -25 112q108 49 156 49q74 0 108 -36t34 -110zM145 64q18 -20 52 -20t86 40v114l-77 -14q-79 -13 -79 -72q0 -28 18 -48z" unicode="à" glyph-name="agrave"/>
<glyph horiz-adv-x="455" d="M236 670q27 6 54 6h31l10 -16l-151 -162l-32 19q10 19 45 81t43 72zM363 286v-204q0 -36 39 -36l27 1l8 -29q-49 -11 -104 -34q-37 25 -47 67q-46 -39 -74 -53t-56 -14q-52 0 -82 32t-30 86t39 82q39 26 108 33l92 10v45q0 57 -17 86q-18 29 -62 29t-66 -12 q-6 -21 -6 -92l-42 -12q-22 73 -25 112q108 49 156 49q74 0 108 -36t34 -110zM145 64q18 -20 52 -20t86 40v114l-77 -14q-79 -13 -79 -72q0 -28 18 -48z" unicode="á" glyph-name="aacute"/>
<glyph horiz-adv-x="455" d="M220 676q25 0 41 -2q9 -8 45 -72t46 -85l-32 -19l-100 112l-100 -112l-32 19q10 21 46 85t45 72q16 2 41 2zM363 286v-204q0 -36 39 -36l27 1l8 -29q-49 -11 -104 -34q-37 25 -47 67q-46 -39 -74 -53t-56 -14q-52 0 -82 32t-30 86t39 82q39 26 108 33l92 10v45 q0 57 -17 86q-18 29 -62 29t-66 -12q-6 -21 -6 -92l-42 -12q-22 73 -25 112q108 49 156 49q74 0 108 -36t34 -110zM145 64q18 -20 52 -20t86 40v114l-77 -14q-79 -13 -79 -72q0 -28 18 -48z" unicode="â" glyph-name="acircumflex"/>
<glyph horiz-adv-x="455" d="M151 566q-24 0 -58 -42l-27 16q10 18 36 47t39 40l23 4q12 -1 57 -21t69 -20t58 43l27 -17q-11 -18 -37 -48t-38 -40l-23 -4q-12 2 -57 22t-69 20zM363 286v-204q0 -36 39 -36l27 1l8 -29q-49 -11 -104 -34q-37 25 -47 67q-46 -39 -74 -53t-56 -14q-52 0 -82 32t-30 86 t39 82q39 26 108 33l92 10v45q0 57 -17 86q-18 29 -62 29t-66 -12q-6 -21 -6 -92l-42 -12q-22 73 -25 112q108 49 156 49q74 0 108 -36t34 -110zM145 64q18 -20 52 -20t86 40v114l-77 -14q-79 -13 -79 -72q0 -28 18 -48z" unicode="ã" glyph-name="atilde"/>
<glyph horiz-adv-x="455" d="M260 591q0 23 16 38t40 15t40 -15t15 -38q1 -23 -15 -37t-40 -15q-24 1 -40 15t-16 37zM68 591q0 23 16 38t40 15t40 -15t15 -38q1 -23 -15 -37t-40 -15q-24 1 -40 15t-16 37zM363 286v-204q0 -36 39 -36l27 1l8 -29q-49 -11 -104 -34q-37 25 -47 67q-46 -39 -74 -53 t-56 -14q-52 0 -82 32t-30 86t39 82q39 26 108 33l92 10v45q0 57 -17 86q-18 29 -62 29t-66 -12q-6 -21 -6 -92l-42 -12q-22 73 -25 112q108 49 156 49q74 0 108 -36t34 -110zM145 64q18 -20 52 -20t86 40v114l-77 -14q-79 -13 -79 -72q0 -28 18 -48z" unicode="ä" glyph-name="adieresis"/>
<glyph horiz-adv-x="455" d="M132 588q0 34 26 60t60 25q34 1 60 -25t26 -60t-26 -60t-60 -25q-34 -1 -60 25t-26 60zM170 588q0 -22 14 -37t34 -15t34 15t14 37t-14 37t-34 15t-34 -15t-14 -37zM363 286v-204q0 -36 39 -36l27 1l8 -29q-49 -11 -104 -34q-37 25 -47 67q-46 -39 -74 -53t-56 -14 q-52 0 -82 32t-30 86t39 82q39 26 108 33l92 10v45q0 57 -17 86q-18 29 -62 29t-66 -12q-6 -21 -6 -92l-42 -12q-22 73 -25 112q108 49 156 49q74 0 108 -36t34 -110zM145 64q18 -20 52 -20t86 40v114l-77 -14q-79 -13 -79 -72q0 -28 18 -48z" unicode="å" glyph-name="aring"/>
<glyph horiz-adv-x="679" d="M191 44q49 0 110 55q-18 42 -18 99l-77 -14q-79 -13 -79 -72q0 -28 18 -48t46 -20zM532 356q-20 34 -68 35q-48 0 -73 -43t-25 -102l186 24q0 52 -20 86zM507 47q59 0 117 43l16 -22q-89 -84 -166 -84q-108 0 -160 87q-91 -87 -158 -87q-52 0 -82 32t-30 86t39 82 q39 26 108 33l92 10v45q0 57 -17 86t-63 29t-70 -13q-4 -20 -4 -88l-41 -10q-16 50 -23 107q108 49 156 49q93 0 124 -57q52 57 132 57q81 0 123 -54t42 -148l-276 -20q8 -163 141 -163z" unicode="æ" glyph-name="ae"/>
<glyph horiz-adv-x="435" d="M84 59q-42 56 -42 147q0 90 54 158t147 68q31 0 80 -14t75 -24q-2 -20 -14 -68t-22 -67l-34 6q1 10 1 24q0 60 -11 82q-27 19 -83 19q-104 0 -104 -167q0 -86 39 -131t99 -45t120 41l16 -24q-89 -80 -163 -80h-3l-17 -55q32 -1 54 -23t23 -60t-27 -60q-28 -24 -70 -25h-2 q-40 0 -90 28l15 31q40 -18 68 -18q53 0 53 40q0 26 -24 40q-14 8 -29 8t-28 -3l-13 21l45 81q-71 14 -113 70z" unicode="ç" glyph-name="ccedilla"/>
<glyph horiz-adv-x="450" d="M139 676h13q45 0 72 -6q8 -10 43 -72t45 -81l-32 -19l-151 162zM234 391q-53 -1 -78 -43t-25 -102l192 24q0 121 -89 121zM275 47q60 0 120 43l16 -22q-91 -84 -175 -84t-140 58q-54 58 -54 156t55 166t143 68t130 -54q43 -54 43 -148l-282 -20q8 -163 144 -163z" unicode="è" glyph-name="egrave"/>
<glyph horiz-adv-x="450" d="M256 670q27 6 54 6h31l10 -16l-151 -162l-32 19q10 19 45 81t43 72zM234 391q-53 -1 -78 -43t-25 -102l192 24q0 121 -89 121zM275 47q60 0 120 43l16 -22q-91 -84 -175 -84t-140 58q-54 58 -54 156t55 166t143 68t130 -54q43 -54 43 -148l-282 -20q8 -163 144 -163z" unicode="é" glyph-name="eacute"/>
<glyph horiz-adv-x="450" d="M240 676q25 0 41 -2q9 -8 45 -72t46 -85l-32 -19l-100 112l-100 -112l-32 19q10 21 46 85t45 72q16 2 41 2zM234 391q-53 -1 -78 -43t-25 -102l192 24q0 121 -89 121zM275 47q60 0 120 43l16 -22q-91 -84 -175 -84t-140 58q-54 58 -54 156t55 166t143 68t130 -54 q43 -54 43 -148l-282 -20q8 -163 144 -163z" unicode="ê" glyph-name="ecircumflex"/>
<glyph horiz-adv-x="450" d="M280 591q0 23 16 38t40 15t40 -15t15 -38q1 -23 -15 -37t-40 -15q-24 1 -40 15t-16 37zM88 591q0 23 16 38t40 15t40 -15t15 -38q1 -23 -15 -37t-40 -15q-24 1 -40 15t-16 37zM234 391q-53 -1 -78 -43t-25 -102l192 24q0 121 -89 121zM275 47q60 0 120 43l16 -22 q-91 -84 -175 -84t-140 58q-54 58 -54 156t55 166t143 68t130 -54q43 -54 43 -148l-282 -20q8 -163 144 -163z" unicode="ë" glyph-name="edieresis"/>
<glyph horiz-adv-x="284" d="M39 676h13q45 0 72 -6q8 -10 43 -72t45 -81l-32 -19l-151 162zM187 66q1 -13 3 -18t12 -10q19 -10 48 -14l10 -2l-7 -30q-67 8 -106 8t-105 -8l-8 30q40 6 54 14t16 12q2 5 3 18v275q0 29 -17 32q-4 1 -9 1q-14 0 -38 -5l-6 30q30 13 75 23t71 10l15 -18q-11 -42 -11 -98 v-250z" unicode="ì" glyph-name="igrave"/>
<glyph horiz-adv-x="284" d="M156 670q27 6 54 6h31l10 -16l-151 -162l-32 19q10 19 45 81t43 72zM187 66q1 -13 3 -18t12 -10q19 -10 48 -14l10 -2l-7 -30q-67 8 -106 8t-105 -8l-8 30q40 6 54 14t16 12q2 5 3 18v275q0 29 -17 32q-4 1 -9 1q-14 0 -38 -5l-6 30q30 13 75 23t71 10l15 -18 q-11 -42 -11 -98v-250z" unicode="í" glyph-name="iacute"/>
<glyph horiz-adv-x="284" d="M140 676q25 0 41 -2q9 -8 45 -72t46 -85l-32 -19l-100 112l-100 -112l-32 19q10 21 46 85t45 72q16 2 41 2zM187 66q1 -13 3 -18t12 -10q19 -10 48 -14l10 -2l-7 -30q-67 8 -106 8t-105 -8l-8 30q40 6 54 14t16 12q2 5 3 18v275q0 29 -17 32q-4 1 -9 1q-14 0 -38 -5 l-6 30q30 13 75 23t71 10l15 -18q-11 -42 -11 -98v-250z" unicode="î" glyph-name="icircumflex"/>
<glyph horiz-adv-x="284" d="M180 591q0 23 16 38t40 15t40 -15t15 -38q1 -23 -15 -37t-40 -15q-24 1 -40 15t-16 37zM-12 591q0 23 16 38t40 15t40 -15t15 -38q1 -23 -15 -37t-40 -15q-24 1 -40 15t-16 37zM187 66q1 -13 3 -18t12 -10q19 -10 48 -14l10 -2l-7 -30q-67 8 -106 8t-105 -8l-8 30 q40 6 54 14t16 12q2 5 3 18v275q0 29 -17 32q-4 1 -9 1q-14 0 -38 -5l-6 30q30 13 75 23t71 10l15 -18q-11 -42 -11 -98v-250z" unicode="ï" glyph-name="idieresis"/>
<glyph horiz-adv-x="460" d="M92 219q0 -94 35 -144t98 -50q101 0 101 172q0 86 -7 123q-39 71 -122 71q-105 0 -105 -172zM421 290q0 -127 -39 -210q-46 -96 -170 -96q-101 0 -155 58t-54 158q-1 100 57 166t151 66q57 0 103 -32q-20 105 -72 174l-114 -65l-14 40l101 58q-63 63 -155 79l3 32 q110 -5 205 -81l111 64l14 -40l-93 -54q121 -124 121 -317z" unicode="ð" glyph-name="eth"/>
<glyph horiz-adv-x="567" d="M219 566q-24 0 -58 -42l-27 16q10 18 36 47t39 40l23 4q12 -1 57 -21t69 -20t58 43l27 -17q-11 -18 -37 -48t-38 -40l-23 -4q-12 2 -57 22t-69 20zM187 64q1 -14 3 -18t12 -9q19 -10 54 -16l-7 -29q-81 8 -103 8t-104 -8l-8 30q40 6 54 14t16 12q2 5 3 18v270 q0 30 -17 33q-5 1 -11 1q-14 0 -33 -4l-11 -2l-5 30q71 31 130 38l16 -18q0 -26 10 -56l38 29q57 45 120 45q62 0 96 -35t34 -116v-215q0 -13 2 -18t12 -10q14 -7 49 -14l10 -2l-7 -30q-82 8 -104 8t-103 -8l-7 29q34 5 48 13t18 13q2 5 2 17v197q0 58 -20 84t-72 26 q-51 0 -115 -50v-257z" unicode="ñ" glyph-name="ntilde"/>
<glyph horiz-adv-x="502" d="M158 675h13q45 0 72 -6q8 -9 43 -71t45 -82l-32 -19l-151 162zM131 219q0 -94 35 -144t98 -50q106 0 106 172q0 93 -36 143t-98 51q-105 0 -105 -172zM96 42q-54 58 -54 158t58 166t154 66t151 -58t55 -158t-58 -166t-155 -66t-151 58z" unicode="ò" glyph-name="ograve"/>
<glyph horiz-adv-x="502" d="M275 669q27 6 54 6h31l10 -16l-151 -162l-32 19q10 20 45 82t43 71zM131 219q0 -94 35 -144t98 -50q106 0 106 172q0 93 -36 143t-98 51q-105 0 -105 -172zM96 42q-54 58 -54 158t58 166t154 66t151 -58t55 -158t-58 -166t-155 -66t-151 58z" unicode="ó" glyph-name="oacute"/>
<glyph horiz-adv-x="502" d="M259 675q25 0 41 -2q9 -9 45 -73t46 -84l-32 -19l-100 112l-100 -112l-32 19q10 20 46 84t45 73q16 2 41 2zM131 219q0 -94 35 -144t98 -50q106 0 106 172q0 93 -36 143t-98 51q-105 0 -105 -172zM96 42q-54 58 -54 158t58 166t154 66t151 -58t55 -158t-58 -166t-155 -66 t-151 58z" unicode="ô" glyph-name="ocircumflex"/>
<glyph horiz-adv-x="502" d="M190 565q-24 0 -58 -42l-27 16q9 18 35 47t40 40l23 4q12 -2 57 -22q44 -20 68 -19q24 0 59 43l27 -17q-10 -18 -36 -48t-39 -40l-23 -4q-12 2 -57 22t-69 20zM131 219q0 -94 35 -144t98 -50q106 0 106 172q0 93 -36 143t-98 51q-105 0 -105 -172zM96 42q-54 58 -54 158 t58 166t154 66t151 -58t55 -158t-58 -166t-155 -66t-151 58z" unicode="õ" glyph-name="otilde"/>
<glyph horiz-adv-x="502" d="M299 590q-1 23 15 38t40 15t40 -15t16 -38q0 -24 -16 -38t-40 -14t-40 14t-15 38zM107 590q-1 23 15 38t40 15t40 -15t16 -38q0 -24 -16 -38t-40 -14t-40 14t-15 38zM131 219q0 -94 35 -144t98 -50q106 0 106 172q0 93 -36 143t-98 51q-105 0 -105 -172zM96 42 q-54 58 -54 158t58 166t154 66t151 -58t55 -158t-58 -166t-155 -66t-151 58z" unicode="ö" glyph-name="odieresis"/>
<glyph horiz-adv-x="460" d="M414 186h-368v58h368v-58zM178 353q0 21 14 35t36 14q24 0 38 -14t15 -35q-1 -22 -15 -36t-38 -14t-36 14q-14 14 -14 36zM178 78q0 22 14 36t37 13q23 0 37 -14q14 -13 15 -35q-1 -22 -15 -36t-38 -13q-24 -1 -36 13q-14 14 -14 36z" unicode="÷" glyph-name="divide"/>
<glyph horiz-adv-x="502" d="M131 219q0 -67 16 -109l173 248q-33 33 -84 33q-105 0 -105 -172zM370 197q0 77 -25 125l-176 -252q34 -45 95 -45q106 0 106 172zM98 40q-56 58 -56 160t58 166q58 66 150 66q60 0 106 -23l41 60l30 -30l-37 -52q70 -59 70 -165t-58 -172t-151 -66q-70 0 -121 30 l-38 -55l-29 30z" unicode="ø" glyph-name="oslash"/>
<glyph horiz-adv-x="550" d="M169 676h13q45 0 72 -6q8 -10 43 -72t45 -81l-32 -19l-151 162zM453 85q0 -27 15 -33t32 -6t32 2l7 -30q-69 -14 -117 -34q-47 34 -47 73l-36 -27q-59 -46 -119 -46q-127 0 -127 151v203q0 32 -17 35q-4 1 -9 1q-13 0 -31 -4l-10 -2l-5 30q59 25 145 34l14 -18 q-7 -30 -7 -98v-161q-1 -57 21 -83t69 -27q47 0 109 47v246q0 32 -16 35q-5 1 -11 1q-15 0 -35 -4l-11 -2l-6 30q66 29 152 34l15 -18q-7 -30 -7 -98v-231z" unicode="ù" glyph-name="ugrave"/>
<glyph horiz-adv-x="550" d="M286 670q27 6 54 6h31l10 -16l-151 -162l-32 19q10 19 45 81t43 72zM453 85q0 -27 15 -33t32 -6t32 2l7 -30q-69 -14 -117 -34q-47 34 -47 73l-36 -27q-59 -46 -119 -46q-127 0 -127 151v203q0 32 -17 35q-4 1 -9 1q-13 0 -31 -4l-10 -2l-5 30q59 25 145 34l14 -18 q-7 -30 -7 -98v-161q-1 -57 21 -83t69 -27q47 0 109 47v246q0 32 -16 35q-5 1 -11 1q-15 0 -35 -4l-11 -2l-6 30q66 29 152 34l15 -18q-7 -30 -7 -98v-231z" unicode="ú" glyph-name="uacute"/>
<glyph horiz-adv-x="550" d="M270 676q25 0 41 -2q9 -8 45 -72t46 -85l-32 -19l-100 112l-100 -112l-32 19q10 21 46 85t45 72q16 2 41 2zM453 85q0 -27 15 -33t32 -6t32 2l7 -30q-69 -14 -117 -34q-47 34 -47 73l-36 -27q-59 -46 -119 -46q-127 0 -127 151v203q0 32 -17 35q-4 1 -9 1q-13 0 -31 -4 l-10 -2l-5 30q59 25 145 34l14 -18q-7 -30 -7 -98v-161q-1 -57 21 -83t69 -27q47 0 109 47v246q0 32 -16 35q-5 1 -11 1q-15 0 -35 -4l-11 -2l-6 30q66 29 152 34l15 -18q-7 -30 -7 -98v-231z" unicode="û" glyph-name="ucircumflex"/>
<glyph horiz-adv-x="550" d="M310 591q0 23 16 38t40 15t40 -15t15 -38q1 -23 -15 -37t-40 -15q-24 1 -40 15t-16 37zM118 591q0 23 16 38t40 15t40 -15t15 -38q1 -23 -15 -37t-40 -15q-24 1 -40 15t-16 37zM453 85q0 -27 15 -33t32 -6t32 2l7 -30q-69 -14 -117 -34q-47 34 -47 73l-36 -27 q-59 -46 -119 -46q-127 0 -127 151v203q0 32 -17 35q-4 1 -9 1q-13 0 -31 -4l-10 -2l-5 30q59 25 145 34l14 -18q-7 -30 -7 -98v-161q-1 -57 21 -83t69 -27q47 0 109 47v246q0 32 -16 35q-5 1 -11 1q-15 0 -35 -4l-11 -2l-6 30q66 29 152 34l15 -18q-7 -30 -7 -98v-231z" unicode="ü" glyph-name="udieresis"/>
<glyph horiz-adv-x="466" d="M257 670q27 6 54 6h31l10 -16l-151 -162l-32 19q10 19 45 81t43 72zM65 -244h-12q-23 38 -32 97l18 9q28 -13 51 -13q48 0 75 58l42 92l-160 354q-12 25 -19 31t-29 8l-6 31q63 -7 99 -7t100 7l-2 -29q-32 -6 -46 -10t-14 -17q0 -6 3 -14l105 -240l5 -25h6l7 30l94 234 q4 8 4 14q0 13 -16 18l-45 9l-2 29q50 -6 84 -6t84 6l-7 -31q-22 -1 -29 -7t-17 -32l-211 -491q-45 -105 -130 -105z" unicode="ý" glyph-name="yacute"/>
<glyph horiz-adv-x="517" d="M267 373q-26 1 -52 -9t-39 -19l-13 -9v-229q1 -37 29 -59t77 -23q49 0 83 44t34 132q0 172 -119 172zM163 375q85 57 145 57q83 0 125 -56t42 -156q-1 -100 -61 -168t-153 -68q-46 0 -98 18v-180q0 -22 21 -29l72 -13l-8 -33q-78 9 -114 9t-110 -9l-8 30q58 12 64 26 q3 5 3 18v801q0 18 -5 26t-20 8l-42 -6l-6 30q72 32 146 38l15 -18q-8 -30 -8 -98v-227z" unicode="þ" glyph-name="thorn"/>
<glyph horiz-adv-x="466" d="M281 591q-1 23 15 38t40 15t40 -15t16 -38t-16 -37t-40 -15q-24 1 -40 15t-15 37zM89 591q-1 23 15 38t40 15t40 -15t16 -38t-16 -37t-40 -15q-24 1 -40 15t-15 37zM65 -244h-12q-23 38 -32 97l18 9q28 -13 51 -13q48 0 75 58l42 92l-160 354q-12 25 -19 31t-29 8l-6 31 q63 -7 99 -7t100 7l-2 -29q-32 -6 -46 -10t-14 -17q0 -6 3 -14l105 -240l5 -25h6l7 30l94 234q4 8 4 14q0 13 -16 18l-45 9l-2 29q50 -6 84 -6t84 6l-7 -31q-22 -1 -29 -7t-17 -32l-211 -491q-45 -105 -130 -105z" unicode="ÿ" glyph-name="ydieresis"/>
<glyph horiz-adv-x="650" d="M172 703l11 61h250l-11 -61h-250zM294 537l-87 -250h198l-88 243l-11 42l-7 3zM134 65q0 -20 25 -27l59 -13l-6 -33q-55 8 -104 8t-105 -8l-7 33q42 9 54 21t28 55l199 544q44 10 76 29l215 -573q16 -43 29 -55t55 -21l-7 -33q-55 8 -119 8t-120 -8l-6 33q35 5 59 13 t24 27q0 7 -3 14l-57 158h-233l-54 -158q-2 -5 -2 -14z" unicode="Ā" glyph-name="Amacron"/>
<glyph horiz-adv-x="455" d="M90 557l11 61h250l-11 -61h-250zM363 286v-204q0 -36 39 -36l27 1l8 -29q-49 -11 -104 -34q-37 25 -47 67q-46 -39 -74 -53t-56 -14q-52 0 -82 32t-30 86t39 82q39 26 108 33l92 10v45q0 57 -17 86q-18 29 -62 29t-66 -12q-6 -21 -6 -92l-42 -12q-22 73 -25 112 q108 49 156 49q74 0 108 -36t34 -110zM145 64q18 -20 52 -20t86 40v114l-77 -14q-79 -13 -79 -72q0 -28 18 -48z" unicode="ā" glyph-name="amacron"/>
<glyph horiz-adv-x="650" d="M400 726q-36 -38 -94 -38t-91 37t-33 98l31 9q15 -79 96 -79t96 79l31 -9q0 -59 -36 -97zM294 537l-87 -250h198l-88 243l-11 42l-7 3zM134 65q0 -20 25 -27l59 -13l-6 -33q-55 8 -104 8t-105 -8l-7 33q42 9 54 21t28 55l199 544q44 10 76 29l215 -573q16 -43 29 -55 t55 -21l-7 -33q-55 8 -119 8t-120 -8l-6 33q35 5 59 13t24 27q0 7 -3 14l-57 158h-233l-54 -158q-2 -5 -2 -14z" unicode="Ă" glyph-name="Abreve"/>
<glyph horiz-adv-x="455" d="M318 549q-36 -38 -94 -38t-92 37q-33 37 -33 98l31 9q15 -79 96 -79t96 79l31 -9q1 -59 -35 -97zM363 286v-204q0 -36 39 -36l27 1l8 -29q-49 -11 -104 -34q-37 25 -47 67q-46 -39 -74 -53t-56 -14q-52 0 -82 32t-30 86t39 82q39 26 108 33l92 10v45q0 57 -17 86 q-18 29 -62 29t-66 -12q-6 -21 -6 -92l-42 -12q-22 73 -25 112q108 49 156 49q74 0 108 -36t34 -110zM145 64q18 -20 52 -20t86 40v114l-77 -14q-79 -13 -79 -72q0 -28 18 -48z" unicode="ă" glyph-name="abreve"/>
<glyph horiz-adv-x="650" d="M294 537l-87 -250h198l-88 243l-11 42l-7 3zM510 -143q0 -19 12 -33t36 -14t56 14l15 -30q-49 -34 -93 -34t-70 24t-26 65q0 22 8 40t30 40q26 26 83 71h-25q-74 0 -130 -8l-6 33q35 5 59 13t24 27q0 7 -3 14l-57 158h-233l-54 -158q-2 -5 -2 -14q0 -20 25 -27l59 -13 l-6 -33q-55 8 -104 8t-105 -8l-7 33q42 9 54 21t28 55l199 544q44 10 76 29l215 -573q16 -43 29 -55t55 -21l-7 -33q-33 4 -46 5q-89 -80 -89 -140z" unicode="Ą" glyph-name="Aogonek"/>
<glyph horiz-adv-x="455" d="M145 64q18 -20 52 -20t86 40v114l-77 -14q-79 -13 -79 -72q0 -28 18 -48zM262 -143q0 -19 12 -33t36 -14t56 14l15 -30q-49 -34 -93 -34t-70 24t-26 65q0 22 8 40t29 39q25 25 85 72q-21 21 -28 51q-46 -39 -74 -53t-56 -14q-52 0 -82 32t-30 86t39 82q39 26 108 33 l92 10v45q0 57 -17 86q-18 29 -62 29t-66 -12q-6 -21 -6 -92l-42 -12q-22 73 -25 112q108 49 156 49q74 0 108 -36t34 -110v-204q0 -36 39 -36l27 1l8 -29q-53 -12 -97 -31q-78 -72 -78 -130z" unicode="ą" glyph-name="aogonek"/>
<glyph horiz-adv-x="660" d="M519 817l6 -18l-188 -118l-26 27q11 14 62 66t62 59q13 1 43 -5t41 -11zM385 -16q-149 0 -243 86t-95 238q0 154 94 256t252 102q62 0 106 -8t80 -16t41 -8q-10 -109 -27 -171l-34 -6q-13 106 -34 137q-47 26 -151 26t-165 -79t-61 -206t68 -216t179 -89q79 0 121 36 t65 120l34 -5q-1 -75 -21 -164q-97 -33 -209 -33z" unicode="Ć" glyph-name="Cacute"/>
<glyph horiz-adv-x="435" d="M259 670q27 6 54 6h31l10 -16l-151 -162l-32 19q10 19 45 81t43 72zM328 265q1 10 1 24q0 60 -11 82q-27 19 -83 19q-104 0 -104 -167q0 -86 39 -131t99 -45t120 41l16 -24q-89 -80 -163 -80q-88 0 -144 59t-56 157t54 164q54 68 147 68q31 0 80 -14t75 -24 q-2 -20 -14 -68t-22 -67z" unicode="ć" glyph-name="cacute"/>
<glyph horiz-adv-x="660" d="M393 831q25 0 41 -2q12 -9 54 -63t48 -64l-28 -21l-115 90l-115 -90l-28 21q6 10 48 64t54 63q16 2 41 2zM385 -16q-149 0 -243 86t-95 238q0 154 94 256t252 102q62 0 106 -8t80 -16t41 -8q-10 -109 -27 -171l-34 -6q-13 106 -34 137q-47 26 -151 26t-165 -79t-61 -206 t68 -216t179 -89q79 0 121 36t65 120l34 -5q-1 -75 -21 -164q-97 -33 -209 -33z" unicode="Ĉ" glyph-name="Ccircumflex"/>
<glyph horiz-adv-x="435" d="M243 676q25 0 41 -2q9 -8 45 -72t46 -85l-32 -19l-100 112l-100 -112l-32 19q10 21 46 85t45 72q16 2 41 2zM328 265q1 10 1 24q0 60 -11 82q-27 19 -83 19q-104 0 -104 -167q0 -86 39 -131t99 -45t120 41l16 -24q-89 -80 -163 -80q-88 0 -144 59t-56 157t54 164 q54 68 147 68q31 0 80 -14t75 -24q-2 -20 -14 -68t-22 -67z" unicode="ĉ" glyph-name="ccircumflex"/>
<glyph horiz-adv-x="660" d="M338 750q0 23 16 38t40 15t40 -15t15 -38q1 -24 -15 -38t-40 -14t-40 14t-16 38zM385 -16q-149 0 -243 86t-95 238q0 154 94 256t252 102q62 0 106 -8t80 -16t41 -8q-10 -109 -27 -171l-34 -6q-13 106 -34 137q-47 26 -151 26t-165 -79t-61 -206t68 -216t179 -89 q79 0 121 36t65 120l34 -5q-1 -75 -21 -164q-97 -33 -209 -33z" unicode="Ċ" glyph-name="Cdot"/>
<glyph horiz-adv-x="435" d="M188 591q0 23 16 38t40 15t40 -15t15 -38q1 -23 -15 -37t-40 -15q-24 1 -40 15t-16 37zM328 265q1 10 1 24q0 60 -11 82q-27 19 -83 19q-104 0 -104 -167q0 -86 39 -131t99 -45t120 41l16 -24q-89 -80 -163 -80q-88 0 -144 59t-56 157t54 164q54 68 147 68q31 0 80 -14 t75 -24q-2 -20 -14 -68t-22 -67z" unicode="ċ" glyph-name="cdot"/>
<glyph horiz-adv-x="660" d="M393 686q-25 0 -41 2q-12 8 -54 62t-48 65l28 21l115 -90l115 90l28 -21q-6 -11 -48 -65t-54 -62q-16 -2 -41 -2zM385 -16q-149 0 -243 86t-95 238q0 154 94 256t252 102q62 0 106 -8t80 -16t41 -8q-10 -109 -27 -171l-34 -6q-13 106 -34 137q-47 26 -151 26t-165 -79 t-61 -206t68 -216t179 -89q79 0 121 36t65 120l34 -5q-1 -75 -21 -164q-97 -33 -209 -33z" unicode="Č" glyph-name="Ccaron"/>
<glyph horiz-adv-x="435" d="M243 503q-25 0 -41 2q-9 9 -45 73t-46 84l32 19l100 -112l100 112l32 -19q-10 -20 -46 -84t-45 -73q-16 -2 -41 -2zM328 265q1 10 1 24q0 60 -11 82q-27 19 -83 19q-104 0 -104 -167q0 -86 39 -131t99 -45t120 41l16 -24q-89 -80 -163 -80q-88 0 -144 59t-56 157t54 164 q54 68 147 68q31 0 80 -14t75 -24q-2 -20 -14 -68t-22 -67z" unicode="č" glyph-name="ccaron"/>
<glyph horiz-adv-x="750" d="M329 686q-25 0 -41 2q-12 8 -54 62t-48 65l28 21l115 -90l115 90l28 -21q-6 -11 -48 -65t-54 -62q-16 -2 -41 -2zM95 652l234 8q171 0 269 -70q105 -73 105 -237q0 -165 -92 -263t-254 -98q-46 0 -109 4t-91 4t-100 -8l-7 33q40 5 58 13t17 31v510q-1 13 -3 17t-12 10 q-13 7 -50 14l-10 2l7 31q15 -1 38 -1zM214 88q0 -52 128 -52t194 79t66 219q0 281 -292 281q-60 0 -96 -9v-518z" unicode="Ď" glyph-name="Dcaron"/>
<glyph horiz-adv-x="595" d="M579 698q25 -18 25 -48t-35 -76t-69 -75l-22 18q20 21 40 51t20 50q0 21 -58 27l-7 16q8 13 25 31t29 26q27 -2 52 -20zM164 86q33 -42 85 -43q52 0 103 40v249q-17 27 -46 43t-57 16q-53 0 -85 -44q-32 -43 -33 -131q0 -88 33 -130zM432 85q0 -27 15 -33t32 -6t32 2 l7 -30q-65 -13 -117 -34q-37 28 -46 68q-83 -68 -132 -68q-89 0 -135 56t-46 157t58 168t158 67q50 0 94 -21v211q0 31 -18 34h-10q-16 0 -42 -4l-11 -2l-5 30q28 12 77 24t81 14l15 -18q-7 -30 -7 -98v-517z" unicode="ď" glyph-name="dcaron"/>
<glyph horiz-adv-x="750" d="M214 88q0 -52 128 -52t194 79t66 219q0 281 -292 281q-60 0 -96 -9v-245h181l-9 -46h-172v-227zM95 652l234 8q171 0 269 -70q105 -73 105 -237q0 -165 -92 -263t-254 -98q-46 0 -109 4t-91 4t-100 -8l-7 33q40 5 58 13t17 31v246h-79l9 46h70v218q-1 13 -3 17t-12 10 q-13 7 -50 14l-10 2l7 31q15 -1 38 -1z" unicode="Đ" glyph-name="Dcroat"/>
<glyph horiz-adv-x="528" d="M164 86q33 -42 85 -43q52 0 103 40v249q-17 27 -46 43t-57 16q-53 0 -85 -44q-32 -43 -33 -131q0 -88 33 -130zM352 587v35q0 31 -18 34h-10q-16 0 -42 -4l-11 -2l-5 30q28 12 77 24t81 14l15 -18q-7 -30 -7 -98v-15h82l-8 -42h-74v-460q0 -27 15 -33t32 -6t32 2l7 -30 q-65 -13 -117 -34q-37 28 -46 68q-83 -68 -132 -68q-89 0 -135 56t-46 157t58 168t158 67q50 0 94 -21v134h-151l8 42h143z" unicode="đ" glyph-name="dslash"/>
<glyph horiz-adv-x="583" d="M163 703l11 61h250l-11 -61h-250zM214 312v-264h230q12 12 30 56t25 69l36 -6q-1 -27 -8 -87t-13 -80h-344q-46 0 -113 -8l-7 33q40 5 58 13t17 31v514q0 24 -16 30q-13 6 -49 11l-10 2l7 33q76 -9 113 -9h251q45 0 82 6q3 -36 3 -75t-3 -80l-37 -6q-14 85 -32 108h-220 v-243h150q28 0 33 15q6 14 11 47l1 12l38 -4q-8 -50 -8 -94t8 -94l-38 -4q-5 42 -11 58t-34 16h-150z" unicode="Ē" glyph-name="Emacron"/>
<glyph horiz-adv-x="450" d="M110 557l11 61h250l-11 -61h-250zM234 391q-53 -1 -78 -43t-25 -102l192 24q0 121 -89 121zM275 47q60 0 120 43l16 -22q-91 -84 -175 -84t-140 58q-54 58 -54 156t55 166t143 68t130 -54q43 -54 43 -148l-282 -20q8 -163 144 -163z" unicode="ē" glyph-name="emacron"/>
<glyph horiz-adv-x="583" d="M392 726q-36 -38 -94 -38t-92 37q-33 37 -33 98l31 9q15 -79 96 -79t96 79l31 -9q1 -59 -35 -97zM214 312v-264h230q12 12 30 56t25 69l36 -6q-1 -27 -8 -87t-13 -80h-344q-46 0 -113 -8l-7 33q40 5 58 13t17 31v514q0 24 -16 30q-13 6 -49 11l-10 2l7 33q76 -9 113 -9 h251q45 0 82 6q3 -36 3 -75t-3 -80l-37 -6q-14 85 -32 108h-220v-243h150q28 0 33 15q6 14 11 47l1 12l38 -4q-8 -50 -8 -94t8 -94l-38 -4q-5 42 -11 58t-34 16h-150z" unicode="Ĕ" glyph-name="Ebreve"/>
<glyph horiz-adv-x="450" d="M338 549q-36 -38 -94 -38t-92 37q-33 37 -33 98l31 9q15 -79 96 -79t96 79l31 -9q1 -59 -35 -97zM234 391q-53 -1 -78 -43t-25 -102l192 24q0 121 -89 121zM275 47q60 0 120 43l16 -22q-91 -84 -175 -84t-140 58q-54 58 -54 156t55 166t143 68t130 -54q43 -54 43 -148 l-282 -20q8 -163 144 -163z" unicode="ĕ" glyph-name="ebreve"/>
<glyph horiz-adv-x="583" d="M239 750q-1 23 15 38t40 15t40 -15t16 -38q0 -24 -16 -38t-40 -14t-40 14t-15 38zM214 312v-264h230q12 12 30 56t25 69l36 -6q-1 -27 -8 -87t-13 -80h-344q-46 0 -113 -8l-7 33q40 5 58 13t17 31v514q0 24 -16 30q-13 6 -49 11l-10 2l7 33q76 -9 113 -9h251q45 0 82 6 q3 -36 3 -75t-3 -80l-37 -6q-14 85 -32 108h-220v-243h150q28 0 33 15q6 14 11 47l1 12l38 -4q-8 -50 -8 -94t8 -94l-38 -4q-5 42 -11 58t-34 16h-150z" unicode="Ė" glyph-name="Edot"/>
<glyph horiz-adv-x="450" d="M185 591q-1 23 15 38t40 15t40 -15t16 -38t-16 -37t-40 -15q-24 1 -40 15t-15 37zM234 391q-53 -1 -78 -43t-25 -102l192 24q0 121 -89 121zM275 47q60 0 120 43l16 -22q-91 -84 -175 -84t-140 58q-54 58 -54 156t55 166t143 68t130 -54q43 -54 43 -148l-282 -20 q8 -163 144 -163z" unicode="ė" glyph-name="edotaccent"/>
<glyph horiz-adv-x="583" d="M380 -143q0 -19 12 -33t36 -14t56 14l15 -30q-49 -34 -93 -34t-70 24t-26 65q0 22 8 40t29 39q25 25 85 72h-262q-46 0 -113 -8l-7 33q40 5 58 13t17 31v514q0 24 -16 30q-13 6 -49 11l-10 2l7 33q76 -9 113 -9h251q45 0 82 6q3 -36 3 -75t-3 -80l-37 -6q-14 85 -32 108 h-220v-243h150q28 0 33 15q6 14 11 47l1 12l38 -4q-8 -50 -8 -94t8 -94l-38 -4q-5 42 -11 58t-34 16h-150v-264h230q12 12 30 56t25 69l36 -6q-1 -27 -8 -87t-13 -80h-41q-93 -81 -93 -143z" unicode="Ę" glyph-name="Eogonek"/>
<glyph horiz-adv-x="450" d="M234 391q-53 -1 -78 -43t-25 -102l192 24q0 121 -89 121zM221 -143q-1 -19 11 -33t37 -14t56 14l15 -30q-50 -34 -94 -34t-69 24q-26 24 -26 62q1 40 25 69t76 69h-10q-92 0 -146 58t-54 156t55 166t143 68t130 -54q43 -54 43 -148l-282 -20q8 -163 144 -163q60 0 120 43 l16 -22q-54 -50 -98 -68q-92 -80 -92 -143z" unicode="ę" glyph-name="eogonek"/>
<glyph horiz-adv-x="583" d="M294 686q-25 0 -41 2q-12 8 -54 62t-48 65l28 21l115 -90l115 90l28 -21q-6 -11 -48 -65t-54 -62q-16 -2 -41 -2zM214 312v-264h230q12 12 30 56t25 69l36 -6q-1 -27 -8 -87t-13 -80h-344q-46 0 -113 -8l-7 33q40 5 58 13t17 31v514q0 24 -16 30q-13 6 -49 11l-10 2l7 33 q76 -9 113 -9h251q45 0 82 6q3 -36 3 -75t-3 -80l-37 -6q-14 85 -32 108h-220v-243h150q28 0 33 15q6 14 11 47l1 12l38 -4q-8 -50 -8 -94t8 -94l-38 -4q-5 42 -11 58t-34 16h-150z" unicode="Ě" glyph-name="Ecaron"/>
<glyph horiz-adv-x="450" d="M240 503q-25 0 -41 2q-9 9 -45 73t-46 84l32 19l100 -112l100 112l32 -19q-10 -20 -46 -84t-45 -73q-16 -2 -41 -2zM234 391q-53 -1 -78 -43t-25 -102l192 24q0 121 -89 121zM275 47q60 0 120 43l16 -22q-91 -84 -175 -84t-140 58q-54 58 -54 156t55 166t143 68t130 -54 q43 -54 43 -148l-282 -20q8 -163 144 -163z" unicode="ě" glyph-name="ecaron"/>
<glyph horiz-adv-x="690" d="M393 831q25 0 41 -2q12 -9 54 -63t48 -64l-28 -21l-115 90l-115 -90l-28 21q6 10 48 64t54 63q16 2 41 2zM514 202q0 15 -4 23t-18 12l-76 14l7 36q70 -8 134 -8t101 8l6 -33q-30 -6 -46 -13t-15 -31v-191q-92 -35 -218 -35q-149 0 -243 86t-95 238q0 154 94 256t252 102 q54 0 90 -6q37 -6 49 -8t46 -10t41 -8q-10 -99 -26 -161l-34 -6q-12 95 -33 127q-48 26 -152 26t-165 -79t-61 -206t68 -216t179 -89q74 0 119 26v146z" unicode="Ĝ" glyph-name="Gcircumflex"/>
<glyph horiz-adv-x="471" d="M230 676q25 0 41 -2q9 -8 45 -72t46 -85l-32 -19l-100 112l-100 -112l-32 19q10 21 46 85t45 72q16 2 41 2zM132 283q0 -53 26 -89t72 -35q92 0 92 111q0 52 -26 88t-71 36q-93 0 -93 -111zM100 -125q0 -37 37 -61t99 -25q62 0 104 28t41 67q-1 40 -21 58t-68 22l-120 9 q-40 -33 -56 -53t-16 -45zM48 277q0 75 51 115t131 40q52 0 85 -16l11 -6q67 6 124 32l13 -14l-11 -48q-18 -3 -40 -3t-45 2q17 -17 29 -45t11 -57q0 -73 -51 -115t-131 -42l-39 4q-42 -32 -42 -49q0 -27 76 -32l99 -7q63 -5 96 -35t33 -79q0 -48 -40 -92t-98 -67t-127 -23 t-116 30t-47 90q0 28 9 46l99 75q-66 18 -66 64q0 13 7 27l78 62q-10 2 -31 16t-34 28q-14 14 -24 42q-10 26 -10 57z" unicode="ĝ" glyph-name="gcircumflex"/>
<glyph horiz-adv-x="690" d="M490 726q-36 -38 -94 -38t-91 37t-33 98l31 9q15 -79 96 -79t96 79l31 -9q0 -59 -36 -97zM514 202q0 15 -4 23t-18 12l-76 14l7 36q70 -8 134 -8t101 8l6 -33q-30 -6 -46 -13t-15 -31v-191q-92 -35 -218 -35q-149 0 -243 86t-95 238q0 154 94 256t252 102q54 0 90 -6 q37 -6 49 -8t46 -10t41 -8q-10 -99 -26 -161l-34 -6q-12 95 -33 127q-48 26 -152 26t-165 -79t-61 -206t68 -216t179 -89q74 0 119 26v146z" unicode="Ğ" glyph-name="Gbreve"/>
<glyph horiz-adv-x="471" d="M328 549q-36 -38 -94 -38t-92 37q-33 37 -33 98l31 9q15 -79 96 -79t96 79l31 -9q1 -59 -35 -97zM132 283q0 -53 26 -89t72 -35q92 0 92 111q0 52 -26 88t-71 36q-93 0 -93 -111zM100 -125q0 -37 37 -61t99 -25q62 0 104 28t41 67q-1 40 -21 58t-68 22l-120 9 q-40 -33 -56 -53t-16 -45zM48 277q0 75 51 115t131 40q52 0 85 -16l11 -6q67 6 124 32l13 -14l-11 -48q-18 -3 -40 -3t-45 2q17 -17 29 -45t11 -57q0 -73 -51 -115t-131 -42l-39 4q-42 -32 -42 -49q0 -27 76 -32l99 -7q63 -5 96 -35t33 -79q0 -48 -40 -92t-98 -67t-127 -23 t-116 30t-47 90q0 28 9 46l99 75q-66 18 -66 64q0 13 7 27l78 62q-10 2 -31 16t-34 28q-14 14 -24 42q-10 26 -10 57z" unicode="ğ" glyph-name="gbreve"/>
<glyph horiz-adv-x="690" d="M338 750q0 23 16 38t40 15t40 -15t15 -38q1 -24 -15 -38t-40 -14t-40 14t-16 38zM514 202q0 15 -4 23t-18 12l-76 14l7 36q70 -8 134 -8t101 8l6 -33q-30 -6 -46 -13t-15 -31v-191q-92 -35 -218 -35q-149 0 -243 86t-95 238q0 154 94 256t252 102q54 0 90 -6q37 -6 49 -8 t46 -10t41 -8q-10 -99 -26 -161l-34 -6q-12 95 -33 127q-48 26 -152 26t-165 -79t-61 -206t68 -216t179 -89q74 0 119 26v146z" unicode="Ġ" glyph-name="Gdot"/>
<glyph horiz-adv-x="471" d="M175 591q-1 23 15 38t40 15t40 -15t16 -38t-16 -37t-40 -15q-24 1 -40 15t-15 37zM132 283q0 -53 26 -89t72 -35q92 0 92 111q0 52 -26 88t-71 36q-93 0 -93 -111zM100 -125q0 -37 37 -61t99 -25q62 0 104 28t41 67q-1 40 -21 58t-68 22l-120 9q-40 -33 -56 -53t-16 -45z M48 277q0 75 51 115t131 40q52 0 85 -16l11 -6q67 6 124 32l13 -14l-11 -48q-18 -3 -40 -3t-45 2q17 -17 29 -45t11 -57q0 -73 -51 -115t-131 -42l-39 4q-42 -32 -42 -49q0 -27 76 -32l99 -7q63 -5 96 -35t33 -79q0 -48 -40 -92t-98 -67t-127 -23t-116 30t-47 90q0 28 9 46 l99 75q-66 18 -66 64q0 13 7 27l78 62q-10 2 -31 16t-34 28q-14 14 -24 42q-10 26 -10 57z" unicode="ġ" glyph-name="gdot"/>
<glyph horiz-adv-x="690" d="M426 -62q25 -18 25 -47t-35 -75t-69 -76l-22 18q21 20 41 50t19 51q0 21 -58 27l-7 16q8 13 25 31t29 26q27 -3 52 -21zM514 202q0 15 -4 23t-18 12l-76 14l7 36q70 -8 134 -8t101 8l6 -33q-30 -6 -46 -13t-15 -31v-191q-92 -35 -218 -35q-149 0 -243 86t-95 238 q0 154 94 256t252 102q54 0 90 -6q37 -6 49 -8t46 -10t41 -8q-10 -99 -26 -161l-34 -6q-12 95 -33 127q-48 26 -152 26t-165 -79t-61 -206t68 -216t179 -89q74 0 119 26v146z" unicode="Ģ" glyph-name="Gcommaaccent"/>
<glyph horiz-adv-x="471" d="M190 502q-25 18 -25 47t35 75t69 76l22 -18q-21 -20 -41 -50t-19 -51q0 -21 58 -27l7 -16q-8 -13 -25 -31t-29 -26q-27 3 -52 21zM132 283q0 -53 26 -89t72 -35q92 0 92 111q0 52 -26 88t-71 36q-93 0 -93 -111zM100 -125q0 -37 37 -61t99 -25q62 0 104 28t41 67 q-1 40 -21 58t-68 22l-120 9q-40 -33 -56 -53t-16 -45zM48 277q0 75 51 115t131 40q52 0 85 -16l11 -6q67 6 124 32l13 -14l-11 -48q-18 -3 -40 -3t-45 2q17 -17 29 -45t11 -57q0 -73 -51 -115t-131 -42l-39 4q-42 -32 -42 -49q0 -27 76 -32l99 -7q63 -5 96 -35t33 -79 q0 -48 -40 -92t-98 -67t-127 -23t-116 30t-47 90q0 28 9 46l99 75q-66 18 -66 64q0 13 7 27l78 62q-10 2 -31 16t-34 28q-14 14 -24 42q-10 26 -10 57z" unicode="ģ" glyph-name="gcommaaccent"/>
<glyph horiz-adv-x="795" d="M398 831q25 0 41 -2q12 -9 54 -63t48 -64l-28 -21l-115 90l-115 -90l-28 21q6 10 48 64t54 63q16 2 41 2zM581 364v216q-1 14 -3 20t-12 10q-18 9 -56 14l-13 1l7 33q74 -8 117 -8t117 8l7 -33q-66 -8 -73 -23q-2 -6 -2 -20v-514q0 -14 2 -20t12 -10q15 -6 50 -12l11 -1 l-7 -33q-74 8 -117 8t-117 -8l-7 33q75 9 81 25q3 6 3 20v241h-367v-241q0 -14 2 -20t12 -10q19 -9 57 -14l13 -1l-7 -33q-74 8 -117 8t-117 -8l-7 33q66 8 72 23q3 6 3 20v514q-1 14 -3 20t-12 10q-14 6 -50 12l-10 1l7 33q74 -8 117 -8t117 8l7 -33q-48 -5 -66 -13 t-18 -30v-218h367z" unicode="Ĥ" glyph-name="Hcircumflex"/>
<glyph horiz-adv-x="567" d="M140 881q25 0 41 -2q12 -9 54 -63t48 -64l-28 -21l-115 90l-115 -90l-28 21q6 10 48 64t54 63q16 2 41 2zM474 281v-215q0 -13 2 -18t12 -10q14 -7 49 -14l10 -2l-7 -30q-82 8 -104 8t-103 -8l-7 29q34 5 48 13t18 13q2 5 2 17v197q0 58 -20 84t-72 26q-51 0 -115 -50 v-257q1 -14 3 -18t12 -9q19 -10 54 -16l-7 -29q-81 8 -103 8t-104 -8l-8 30q40 6 54 14t16 12q2 5 3 18v556q0 30 -17 33q-5 1 -11 1q-15 0 -34 -4l-11 -2l-5 30q29 12 75 24t76 14l14 -18q-7 -30 -7 -98v-244l37 29q57 45 120 45q62 0 96 -35t34 -116z" unicode="ĥ" glyph-name="hcircumflex"/>
<glyph horiz-adv-x="795" d="M581 364v120h-367v-120h367zM125 527v55q-1 14 -3 20t-12 10q-14 6 -50 12l-10 1l7 33q74 -8 117 -8t117 8l7 -33q-48 -5 -66 -13t-18 -30v-55h367v53q-1 14 -3 20t-12 10q-18 9 -56 14l-13 1l7 33q74 -8 117 -8t117 8l7 -33q-66 -8 -73 -23q-2 -6 -2 -20v-55h78l-8 -43 h-70v-416q0 -14 2 -20t12 -10q15 -6 50 -12l11 -1l-7 -33q-74 8 -117 8t-117 -8l-7 33q75 9 81 25q3 6 3 20v241h-367v-241q0 -14 2 -20t12 -10q19 -9 57 -14l13 -1l-7 -33q-74 8 -117 8t-117 -8l-7 33q66 8 72 23q3 6 3 20v416h-79l8 43h71z" unicode="Ħ" glyph-name="Hbar"/>
<glyph horiz-adv-x="567" d="M474 281v-215q0 -13 2 -18t12 -10q14 -7 49 -14l10 -2l-7 -30q-82 8 -104 8t-103 -8l-7 29q34 5 48 13t18 13q2 5 2 17v197q0 58 -20 84t-72 26q-51 0 -115 -50v-257q1 -14 3 -18t12 -9q19 -10 54 -16l-7 -29q-81 8 -103 8t-104 -8l-8 30q40 6 54 14t16 12q2 5 3 18v479 h-82l8 42h74v35q0 30 -17 33q-5 1 -11 1q-15 0 -34 -4l-11 -2l-5 30q29 12 75 24t76 14l14 -18q-7 -30 -7 -98v-15h151l-8 -42h-143v-187l37 29q57 45 120 45q62 0 96 -35t34 -116z" unicode="ħ" glyph-name="hbar"/>
<glyph horiz-adv-x="339" d="M102 733q-24 0 -58 -42l-27 16q9 18 35 47t40 40l23 4q12 -2 57 -22q44 -20 68 -19q24 0 59 43l27 -17q-10 -18 -36 -48t-39 -40l-23 -4q-12 2 -57 22t-69 20zM214 582v-514q0 -14 2 -20t12 -10q15 -6 52 -12l11 -1l-7 -33q-68 8 -114 8t-113 -8l-7 33q66 8 72 23 q3 6 3 20v514q-1 14 -3 20t-12 10q-14 6 -50 12l-10 1l7 33q67 -8 113 -8t114 8l7 -33q-67 -8 -75 -23q-2 -6 -2 -20z" unicode="Ĩ" glyph-name="Itilde"/>
<glyph horiz-adv-x="284" d="M71 566q-24 0 -58 -42l-27 16q10 18 36 47t39 40l23 4q12 -1 57 -21t69 -20t58 43l27 -17q-11 -18 -37 -48t-38 -40l-23 -4q-12 2 -57 22t-69 20zM187 66q1 -13 3 -18t12 -10q19 -10 48 -14l10 -2l-7 -30q-67 8 -106 8t-105 -8l-8 30q40 6 54 14t16 12q2 5 3 18v275 q0 29 -17 32q-4 1 -9 1q-14 0 -38 -5l-6 30q30 13 75 23t71 10l15 -18q-11 -42 -11 -98v-250z" unicode="ĩ" glyph-name="itilde"/>
<glyph horiz-adv-x="284" d="M187 66q1 -13 3 -18t12 -10q19 -10 48 -14l10 -2l-7 -30q-67 8 -106 8t-105 -8l-8 30q40 6 54 14t16 12q2 5 3 18v275q0 29 -17 32q-4 1 -9 1q-14 0 -38 -5l-6 30q30 13 75 23t71 10l15 -18q-11 -42 -11 -98v-250zM35 557l11 61h200l-11 -61h-200z" unicode="ī" glyph-name="imacron"/>
<glyph horiz-adv-x="339" d="M268 726q-36 -38 -94 -38t-91 37t-33 98l31 9q15 -79 96 -79t96 79l31 -9q0 -59 -36 -97zM214 582v-514q0 -14 2 -20t12 -10q15 -6 52 -12l11 -1l-7 -33q-68 8 -114 8t-113 -8l-7 33q66 8 72 23q3 6 3 20v514q-1 14 -3 20t-12 10q-14 6 -50 12l-10 1l7 33q67 -8 113 -8 t114 8l7 -33q-67 -8 -75 -23q-2 -6 -2 -20z" unicode="Ĭ" glyph-name="Ibreve"/>
<glyph horiz-adv-x="339" d="M146 -143q0 -19 12 -33t36 -14t56 14l15 -30q-49 -34 -93 -34t-70 24t-26 65q0 22 8 40t30 40q26 26 83 71h-27q-46 0 -113 -8l-7 33q66 8 72 23q3 6 3 20v514q-1 14 -3 20t-12 10q-14 6 -50 12l-10 1l7 33q67 -8 113 -8t114 8l7 -33q-67 -8 -75 -23q-2 -6 -2 -20v-514 q0 -14 2 -20t12 -10q15 -6 52 -12l11 -1l-7 -33q-31 4 -49 5q-89 -80 -89 -140z" unicode="Į" glyph-name="Iogonek"/>
<glyph horiz-adv-x="284" d="M72 599q0 24 16 40t42 16t42 -16t17 -40q-1 -23 -17 -39t-42 -16t-42 16t-16 39zM122 -143q0 -19 12 -33t36 -14t56 14l15 -30q-49 -34 -93 -34t-70 24t-26 65q0 22 8 40t30 40q26 26 83 71h-26q-39 0 -105 -8l-8 30q40 6 54 14t16 12q2 5 3 18v275q0 29 -17 32 q-4 1 -9 1q-14 0 -38 -5l-6 30q30 13 75 23t71 10l15 -18q-11 -42 -11 -98v-250q1 -13 3 -18t12 -10q19 -10 48 -14l10 -2l-7 -30q-31 4 -42 5q-89 -78 -89 -140z" unicode="į" glyph-name="iogonek"/>
<glyph horiz-adv-x="339" d="M116 750q0 23 16 38t40 15t40 -15t15 -38q1 -24 -15 -38t-40 -14t-40 14t-16 38zM214 582v-514q0 -14 2 -20t12 -10q15 -6 52 -12l11 -1l-7 -33q-68 8 -114 8t-113 -8l-7 33q66 8 72 23q3 6 3 20v514q-1 14 -3 20t-12 10q-14 6 -50 12l-10 1l7 33q67 -8 113 -8t114 8 l7 -33q-67 -8 -75 -23q-2 -6 -2 -20z" unicode="İ" glyph-name="Idot"/>
<glyph horiz-adv-x="284" d="M187 66q1 -13 3 -18t12 -10q19 -10 48 -14l10 -2l-7 -30q-67 8 -106 8t-105 -8l-8 30q40 6 54 14t16 12q2 5 3 18v275q0 29 -17 32q-4 1 -9 1q-14 0 -38 -5l-6 30q30 13 75 23t71 10l15 -18q-11 -42 -11 -98v-250z" unicode="ı" glyph-name="dotlessi"/>
<glyph horiz-adv-x="642" d="M535 582v-532q0 -79 -17 -127t-83 -112l-72 -71l-24 25q107 124 107 235v582q0 14 -2 20t-12 10q-15 6 -50 12l-11 1l7 33q68 -8 114 -8t113 8l7 -33q-67 -8 -74 -23q-3 -6 -3 -20zM214 582v-514q0 -14 2 -20t12 -10q15 -6 52 -12l11 -1l-7 -33q-68 8 -114 8t-113 -8 l-7 33q66 8 72 23q3 6 3 20v514q-1 14 -3 20t-12 10q-14 6 -50 12l-10 1l7 33q67 -8 113 -8t114 8l7 -33q-67 -8 -75 -23q-2 -6 -2 -20z" unicode="Ĳ" glyph-name="IJ"/>
<glyph horiz-adv-x="533" d="M379 -28v369q0 29 -17 32q-4 1 -8 1q-14 0 -40 -5l-5 30q31 13 75 23t71 10l14 -18q-10 -45 -10 -98v-314q0 -71 -13 -98q-35 -75 -127 -164l-21 21q52 64 74 136q7 28 7 75zM187 66q1 -13 3 -18t12 -10q19 -10 48 -14l10 -2l-7 -30q-67 8 -106 8t-105 -8l-8 30 q40 6 54 14t16 12q2 5 3 18v275q0 29 -17 32q-4 1 -9 1q-14 0 -38 -5l-6 30q30 13 75 23t71 10l15 -18q-11 -42 -11 -98v-250z" unicode="ĳ" glyph-name="ij"/>
<glyph horiz-adv-x="303" d="M145 831q25 0 41 -2q12 -9 54 -63t48 -64l-28 -21l-115 90l-115 -90l-28 21q6 10 48 64t54 63q16 2 41 2zM196 582v-532q0 -79 -17 -127t-83 -112l-72 -71l-24 25q107 124 107 235v582q-1 14 -3 20t-12 10q-14 6 -50 12l-10 1l7 33q67 -8 113 -8t114 8l7 -33 q-67 -8 -75 -23q-2 -6 -2 -20z" unicode="Ĵ" glyph-name="Jcircumflex"/>
<glyph horiz-adv-x="249" d="M124 676q25 0 41 -2q9 -8 45 -72t46 -85l-32 -19l-100 112l-100 -112l-32 19q10 21 46 85t45 72q16 2 41 2zM95 -28v369q0 29 -17 32q-4 1 -8 1q-14 0 -40 -5l-5 30q31 13 75 23t71 10l14 -18q-10 -45 -10 -98v-314q0 -71 -13 -98q-35 -75 -127 -164l-21 21q52 64 74 136 q7 28 7 75z" unicode="ĵ" glyph-name="jcircumflex"/>
<glyph horiz-adv-x="668" d="M372 -62q25 -18 25 -47t-35 -75t-69 -76l-22 18q21 20 41 50t19 51q0 21 -58 27l-7 16q8 13 25 31t29 26q27 -3 52 -21zM214 582v-507q0 -15 4 -23t18 -12l71 -13l-7 -35q-70 8 -120 8t-123 -8l-7 33q66 8 72 23q3 6 3 20v514q-1 14 -3 20t-12 10q-14 6 -50 12l-10 1 l7 33q67 -8 110 -8t110 8l7 -33q-61 -9 -68 -23q-2 -6 -2 -20zM464 602q0 14 -56 23l7 33q47 -8 95 -8t92 8l7 -33q-33 -5 -53 -15t-42 -34l-202 -213l246 -267q34 -38 56 -50t58 -21l-7 -33q-53 8 -123 8t-122 -8l-7 33l12 3t12 2q5 0 11 2t10 4l6 3q7 5 7 13t-18 28 l-225 247v18l221 231q15 16 15 26z" unicode="Ķ" glyph-name="Kcommaaccent"/>
<glyph horiz-adv-x="513" d="M307 -62q25 -18 25 -47t-35 -75t-69 -76l-22 18q20 20 40 50t20 51t-58 27l-7 16q8 13 25 31t29 26q27 -3 52 -21zM325 22q32 4 32 22q0 10 -11 22l-159 168v-168q1 -13 3 -18t13 -11l46 -15l-8 -30q-85 8 -103 8t-96 -8l-8 30q40 6 54 14t16 12q2 5 3 18v556 q0 29 -17 34h-8q-14 0 -38 -4l-10 -2l-5 31q79 33 151 37l14 -18q-7 -30 -7 -97v-367l144 123q13 11 13 19q0 13 -37 15l-3 29q40 -6 88 -6t85 6l-3 -30q-24 -4 -40 -8t-38 -24l-126 -109l175 -185q25 -27 44 -34l35 -10l-7 -30q-51 8 -95 8t-90 -8z" unicode="ķ" glyph-name="kcommaaccent"/>
<glyph horiz-adv-x="513" d="M325 22q32 4 32 22q0 10 -11 22l-159 168v-168q1 -13 3 -18t13 -11l46 -15l-8 -30q-85 8 -103 8t-96 -8l-8 30q40 6 54 14t16 12q2 5 3 18v284q-1 12 -3 18t-11 10q-20 10 -49 14l-10 2l8 30q62 -8 102 -8t92 8l8 -30q-47 -12 -54 -26q-3 -5 -3 -18v-114l144 123 q13 11 13 19q0 13 -37 15l-3 29q40 -6 88 -6t85 6l-3 -30q-24 -4 -40 -8t-38 -24l-126 -109l175 -185q25 -27 44 -34l35 -10l-7 -30q-51 8 -95 8t-90 -8z" unicode="ĸ" glyph-name="kgreenlandic"/>
<glyph horiz-adv-x="528" d="M293 817l6 -18l-188 -118l-26 27q11 14 62 66t62 59q13 1 43 -5t41 -11zM214 573v-525h211q12 12 33 56t28 69l34 -7q-2 -24 -10 -84t-14 -82h-329q-28 0 -110 -8l-7 32q40 4 58 12t17 33v512q0 24 -16 31q-13 6 -49 12l-10 1l7 33q73 -8 129 -8t126 8l7 -36 q-65 -8 -81 -13t-20 -13t-4 -23z" unicode="Ĺ" glyph-name="Lacute"/>
<glyph horiz-adv-x="528" d="M336 -62q25 -18 25 -47t-35 -75t-69 -76l-22 18q21 20 41 50t19 51q0 21 -58 27l-7 16q8 13 25 31t29 26q27 -3 52 -21zM214 573v-525h211q12 12 33 56t28 69l34 -7q-2 -24 -10 -84t-14 -82h-329q-28 0 -110 -8l-7 32q40 4 58 12t17 33v512q0 24 -16 31q-13 6 -49 12 l-10 1l7 33q73 -8 129 -8t126 8l7 -36q-65 -8 -81 -13t-20 -13t-4 -23z" unicode="Ļ" glyph-name="Lcommaaccent"/>
<glyph horiz-adv-x="284" d="M188 -62q25 -18 25 -47t-35 -75t-69 -76l-22 18q21 20 41 50t19 51q0 21 -58 27l-7 16q8 13 25 31t29 26q27 -3 52 -21zM187 66q1 -13 3 -18t12 -10q19 -10 48 -14l10 -2l-7 -30q-85 8 -107 8t-104 -8l-8 30q40 6 54 14t16 12q2 5 3 18v556q0 29 -17 34h-8q-14 0 -38 -4 l-10 -2l-5 31q79 33 151 37l14 -18q-7 -30 -7 -58v-39v-537z" unicode="ļ" glyph-name="lcommaaccent"/>
<glyph horiz-adv-x="528" d="M467 698q25 -18 25 -48t-35 -76t-69 -75l-22 18q20 21 40 51t20 50q0 21 -58 27l-7 16q8 13 25 31t29 26q27 -2 52 -20zM214 573v-525h211q12 12 33 56t28 69l34 -7q-2 -24 -10 -84t-14 -82h-329q-28 0 -110 -8l-7 32q40 4 58 12t17 33v512q0 24 -16 31q-13 6 -49 12 l-10 1l7 33q73 -8 129 -8t126 8l7 -36q-65 -8 -81 -13t-20 -13t-4 -23z" unicode="Ľ" glyph-name="Lcaron"/>
<glyph horiz-adv-x="350" d="M333 698q25 -18 25 -48t-35 -76t-69 -75l-22 18q20 21 40 51t20 50q0 21 -58 27l-7 16q8 13 25 31t29 26q27 -2 52 -20zM187 66q1 -13 3 -18t12 -10q19 -10 48 -14l10 -2l-7 -30q-85 8 -107 8t-104 -8l-8 30q40 6 54 14t16 12q2 5 3 18v556q0 29 -17 34h-8q-14 0 -38 -4 l-10 -2l-5 31q79 33 151 37l14 -18q-7 -30 -7 -58v-39v-537z" unicode="ľ" glyph-name="lcaron"/>
<glyph horiz-adv-x="528" d="M343 358q-1 23 15 38t40 15t40 -15t16 -38q0 -24 -16 -38t-40 -14t-40 14t-15 38zM214 573v-525h211q12 12 33 56t28 69l34 -7q-2 -24 -10 -84t-14 -82h-329q-28 0 -110 -8l-7 32q40 4 58 12t17 33v512q0 24 -16 31q-13 6 -49 12l-10 1l7 33q73 -8 129 -8t126 8l7 -36 q-65 -8 -81 -13t-20 -13t-4 -23z" unicode="Ŀ" glyph-name="Ldot"/>
<glyph horiz-adv-x="325" d="M254 358q0 23 16 38t40 15t40 -15t15 -38q1 -24 -15 -38t-40 -14t-40 14t-16 38zM187 66q1 -13 3 -18t12 -10q19 -10 48 -14l10 -2l-7 -30q-85 8 -107 8t-104 -8l-8 30q40 6 54 14t16 12q2 5 3 18v556q0 29 -17 34h-8q-14 0 -38 -4l-10 -2l-5 31q79 33 151 37l14 -18 q-7 -30 -7 -58v-39v-537z" unicode="ŀ" glyph-name="ldot"/>
<glyph horiz-adv-x="528" d="M214 573v-189l166 89l11 -43l-177 -95v-287h211q12 12 33 56t28 69l34 -7q-2 -24 -10 -84t-14 -82h-329q-28 0 -110 -8l-7 32q40 4 58 12t17 33v218l-89 -47l-11 43l100 53v245q0 24 -16 31q-13 6 -49 12l-10 1l7 33q73 -8 129 -8t126 8l7 -36q-65 -8 -81 -13t-20 -13 t-4 -23z" unicode="Ł" glyph-name="Lslash"/>
<glyph horiz-adv-x="284" d="M187 66q1 -13 3 -18t12 -10q19 -10 48 -14l10 -2l-7 -30q-85 8 -107 8t-104 -8l-8 30q40 6 54 14t16 12q2 5 3 18v269l-75 -59l-12 46l87 67v233q0 29 -17 34h-8q-14 0 -38 -4l-10 -2l-5 31q79 33 151 37l14 -18q-7 -30 -7 -58v-39v-153l75 58l11 -43l-86 -68v-331z" unicode="ł" glyph-name="lslash"/>
<glyph horiz-adv-x="764" d="M518 817l6 -18l-188 -118l-26 27q11 14 62 66t62 59q12 1 42 -5t42 -11zM191 77q0 -15 4 -23t18 -12l83 -14l-7 -36q-70 8 -114 8t-118 -8l-7 33q40 5 58 13t17 31v514q0 24 -16 30q-14 7 -48 11l-11 2l7 33q47 -9 95 -9t89 9q21 -40 62 -96l251 -347q17 -25 28 -59 l4 -12l5 4v431q0 23 -17 30q-16 8 -54 12l-13 2l7 35q76 -9 106 -9t105 9l7 -33q-39 -4 -57 -12t-18 -31v-390q0 -80 6 -164l2 -28l-75 -15q-35 84 -115 192l-243 329q-17 24 -31 54l-5 11l-5 -4v-491z" unicode="Ń" glyph-name="Nacute"/>
<glyph horiz-adv-x="567" d="M304 670q27 6 54 6h31l10 -16l-151 -162l-32 19q10 19 45 81t43 72zM187 64q1 -14 3 -18t12 -9q19 -10 54 -16l-7 -29q-81 8 -103 8t-104 -8l-8 30q40 6 54 14t16 12q2 5 3 18v270q0 30 -17 33q-5 1 -11 1q-14 0 -33 -4l-11 -2l-5 30q71 31 130 38l16 -18q0 -26 10 -56 l38 29q57 45 120 45q62 0 96 -35t34 -116v-215q0 -13 2 -18t12 -10q14 -7 49 -14l10 -2l-7 -30q-82 8 -104 8t-103 -8l-7 29q34 5 48 13t18 13q2 5 2 17v197q0 58 -20 84t-72 26q-51 0 -115 -50v-257z" unicode="ń" glyph-name="nacute"/>
<glyph horiz-adv-x="764" d="M433 -62q25 -18 25 -47t-35 -75t-69 -76l-22 18q20 20 40 50t20 51t-58 27l-7 16q8 13 25 31t29 26q27 -3 52 -21zM191 77q0 -15 4 -23t18 -12l83 -14l-7 -36q-70 8 -114 8t-118 -8l-7 33q40 5 58 13t17 31v514q0 24 -16 30q-14 7 -48 11l-11 2l7 33q47 -9 95 -9t89 9 q21 -40 62 -96l251 -347q17 -25 28 -59l4 -12l5 4v431q0 23 -17 30q-16 8 -54 12l-13 2l7 35q76 -9 106 -9t105 9l7 -33q-39 -4 -57 -12t-18 -31v-390q0 -80 6 -164l2 -28l-75 -15q-35 84 -115 192l-243 329q-17 24 -31 54l-5 11l-5 -4v-491z" unicode="Ņ" glyph-name="Ncommaaccent"/>
<glyph horiz-adv-x="567" d="M329 -62q25 -18 25 -47t-35 -75t-69 -76l-22 18q20 20 40 50t20 51t-58 27l-7 16q8 13 25 31t29 26q27 -3 52 -21zM187 64q1 -14 3 -18t12 -9q19 -10 54 -16l-7 -29q-81 8 -103 8t-104 -8l-8 30q40 6 54 14t16 12q2 5 3 18v270q0 30 -17 33q-5 1 -11 1q-14 0 -33 -4 l-11 -2l-5 30q71 31 130 38l16 -18q0 -26 10 -56l38 29q57 45 120 45q62 0 96 -35t34 -116v-215q0 -13 2 -18t12 -10q14 -7 49 -14l10 -2l-7 -30q-82 8 -104 8t-103 -8l-7 29q34 5 48 13t18 13q2 5 2 17v197q0 58 -20 84t-72 26q-51 0 -115 -50v-257z" unicode="ņ" glyph-name="ncommaaccent"/>
<glyph horiz-adv-x="764" d="M392 686q-25 0 -41 2q-12 8 -54 62t-48 65l28 21l115 -90l115 90l28 -21q-6 -11 -48 -65t-54 -62q-16 -2 -41 -2zM191 77q0 -15 4 -23t18 -12l83 -14l-7 -36q-70 8 -114 8t-118 -8l-7 33q40 5 58 13t17 31v514q0 24 -16 30q-14 7 -48 11l-11 2l7 33q47 -9 95 -9t89 9 q21 -40 62 -96l251 -347q17 -25 28 -59l4 -12l5 4v431q0 23 -17 30q-16 8 -54 12l-13 2l7 35q76 -9 106 -9t105 9l7 -33q-39 -4 -57 -12t-18 -31v-390q0 -80 6 -164l2 -28l-75 -15q-35 84 -115 192l-243 329q-17 24 -31 54l-5 11l-5 -4v-491z" unicode="Ň" glyph-name="Ncaron"/>
<glyph horiz-adv-x="567" d="M288 503q-25 0 -41 2q-9 9 -45 73t-46 84l32 19l100 -112l100 112l32 -19q-10 -20 -46 -84t-45 -73q-16 -2 -41 -2zM187 64q1 -14 3 -18t12 -9q19 -10 54 -16l-7 -29q-81 8 -103 8t-104 -8l-8 30q40 6 54 14t16 12q2 5 3 18v270q0 30 -17 33q-5 1 -11 1q-14 0 -33 -4 l-11 -2l-5 30q71 31 130 38l16 -18q0 -26 10 -56l38 29q57 45 120 45q62 0 96 -35t34 -116v-215q0 -13 2 -18t12 -10q14 -7 49 -14l10 -2l-7 -30q-82 8 -104 8t-103 -8l-7 29q34 5 48 13t18 13q2 5 2 17v197q0 58 -20 84t-72 26q-51 0 -115 -50v-257z" unicode="ň" glyph-name="ncaron"/>
<glyph horiz-adv-x="567" d="M126 698q25 -18 25 -48t-35 -76t-69 -75l-22 18q21 21 41 51t19 50q0 21 -58 27l-7 16q8 13 25 31t29 26q27 -2 52 -20zM187 64q1 -14 3 -18t12 -9q19 -10 54 -16l-7 -29q-81 8 -103 8t-104 -8l-8 30q40 6 54 14t16 12q2 5 3 18v270q0 30 -17 33q-5 1 -11 1q-14 0 -33 -4 l-11 -2l-5 30q71 31 130 38l16 -18q0 -26 10 -56l38 29q57 45 120 45q62 0 96 -35t34 -116v-215q0 -13 2 -18t12 -10q14 -7 49 -14l10 -2l-7 -30q-82 8 -104 8t-103 -8l-7 29q34 5 48 13t18 13q2 5 2 17v197q0 58 -20 84t-72 26q-51 0 -115 -50v-257z" unicode="ŉ" glyph-name="napostrophe"/>
<glyph horiz-adv-x="764" d="M578 -5q0 19 -37 81t-66 102l-243 329q-17 24 -31 54l-5 11l-5 -4v-491q0 -15 4 -23t18 -12l83 -14l-7 -36q-70 8 -114 8t-118 -8l-7 33q40 5 58 13t17 31v514q0 24 -16 30q-14 7 -48 11l-11 2l7 33q47 -9 95 -9t89 9q21 -40 62 -96l251 -347q17 -25 28 -59l4 -12l5 4 v431q0 23 -17 30q-16 8 -54 12l-13 2l7 35q76 -9 106 -9t105 9l7 -33q-39 -4 -57 -12t-18 -31v-533q1 -79 -15 -127t-75 -112l-72 -71l-24 25q107 121 107 230z" unicode="Ŋ" glyph-name="Eng"/>
<glyph horiz-adv-x="567" d="M394 -28v289q0 58 -20 84t-72 26q-51 0 -115 -50v-257q1 -14 3 -18t12 -9q19 -10 54 -16l-7 -29q-81 8 -103 8t-104 -8l-8 30q40 6 54 14t16 12q2 5 3 18v270q0 30 -17 33q-5 1 -11 1q-14 0 -33 -4l-11 -2l-5 30q71 31 130 38l16 -18q0 -26 10 -56l38 29q57 45 120 45 q62 0 96 -35t34 -116v-279q0 -71 -13 -98q-35 -75 -127 -164l-21 21q52 64 74 136q7 28 7 75z" unicode="ŋ" glyph-name="eng"/>
<glyph horiz-adv-x="755" d="M244 703l11 61h250l-11 -61h-250zM203 542q-55 -76 -55 -203t62 -217t174 -90t168 76q55 76 55 203t-62 217q-63 90 -175 90t-167 -76zM137 71q-90 87 -90 240q-1 153 89 254t241 101t241 -87t90 -240t-90 -254t-240 -101q-151 0 -241 87z" unicode="Ō" glyph-name="Omacron"/>
<glyph horiz-adv-x="502" d="M129 556l11 61h250l-11 -61h-250zM131 219q0 -94 35 -144t98 -50q106 0 106 172q0 93 -36 143t-98 51q-105 0 -105 -172zM96 42q-54 58 -54 158t58 166t154 66t151 -58t55 -158t-58 -166t-155 -66t-151 58z" unicode="ō" glyph-name="omacron"/>
<glyph horiz-adv-x="755" d="M472 726q-36 -38 -94 -38t-91 37t-33 98l31 9q15 -79 96 -79t96 79l31 -9q0 -59 -36 -97zM203 542q-55 -76 -55 -203t62 -217t174 -90t168 76q55 76 55 203t-62 217q-63 90 -175 90t-167 -76zM137 71q-90 87 -90 240q-1 153 89 254t241 101t241 -87t90 -240t-90 -254 t-240 -101q-151 0 -241 87z" unicode="Ŏ" glyph-name="Obreve"/>
<glyph horiz-adv-x="502" d="M356 548q-36 -38 -94 -38t-91 37t-33 98l31 9q15 -79 96 -79t96 79l31 -9q0 -59 -36 -97zM131 219q0 -94 35 -144t98 -50q106 0 106 172q0 93 -36 143t-98 51q-105 0 -105 -172zM96 42q-54 58 -54 158t58 166t154 66t151 -58t55 -158t-58 -166t-155 -66t-151 58z" unicode="ŏ" glyph-name="obreve"/>
<glyph horiz-adv-x="755" d="M332 837q24 3 50 3t35 -1l10 -17l-140 -134l-36 16q3 4 39 64t42 69zM481 837q23 3 49 3t36 -1l10 -17l-140 -134l-36 16q3 4 39 64t42 69zM203 542q-55 -76 -55 -203t62 -217t174 -90t168 76q55 76 55 203t-62 217q-63 90 -175 90t-167 -76zM137 71q-90 87 -90 240 q-1 153 89 254t241 101t241 -87t90 -240t-90 -254t-240 -101q-151 0 -241 87z" unicode="Ő" glyph-name="Ohungarumlaut"/>
<glyph horiz-adv-x="502" d="M432 687l13 -15l-124 -183l-35 14q53 150 63 164q40 17 83 20zM287 687l13 -15l-124 -183l-35 14q53 150 63 164q40 17 83 20zM131 219q0 -94 35 -144t98 -50q106 0 106 172q0 93 -36 143t-98 51q-105 0 -105 -172zM96 42q-54 58 -54 158t58 166t154 66t151 -58t55 -158 t-58 -166t-155 -66t-151 58z" unicode="ő" glyph-name="ohungarumlaut"/>
<glyph horiz-adv-x="954" d="M385 32q76 0 126 42v483q-59 61 -155 61t-146 -76t-51 -203t57 -217t169 -90zM371 666q41 0 72 -7q76 -9 113 -9h236q46 0 82 6v-155l-37 -6q-14 85 -32 108h-205v-243h135q28 0 33 15q6 14 10 47l2 12l38 -4q-8 -50 -8 -94t8 -94l-38 -4q-6 42 -12 58t-33 16h-135v-264 h215q13 12 31 56t24 69l36 -6q-1 -27 -8 -87t-13 -80h-329q-46 0 -113 -8q-32 -8 -67 -8q-146 0 -232 87t-86 241t85 254t228 100z" unicode="Œ" glyph-name="OE"/>
<glyph horiz-adv-x="756" d="M608 356q-20 34 -68 35q-48 0 -72 -43q-25 -43 -25 -102l186 24q-1 52 -21 86zM131 219q-1 -94 33 -144t95 -50q98 0 101 165v10q-1 92 -35 142t-94 49q-100 0 -100 -172zM584 47q59 0 117 43l16 -22q-89 -84 -166 -84q-104 0 -156 82q-55 -82 -151 -82t-150 58 q-52 58 -52 158t56 166t147 66q109 0 158 -81q55 81 143 81t130 -54t43 -148l-276 -20q8 -163 141 -163z" unicode="œ" glyph-name="oe"/>
<glyph horiz-adv-x="649" d="M405 817l6 -18l-188 -118l-26 27q11 14 62 66t62 59q13 1 43 -5t41 -11zM87 650l192 8q108 0 175 -40t67 -129q1 -66 -45 -115t-108 -54v-7q26 -7 54 -44t49 -79q58 -116 95 -140t85 -24l-5 -32h-142q-31 0 -92 108q-15 24 -35 60t-27 48t-13 22q-7 10 -9 13q-2 5 -6 11 t-8 9q-2 3 -6 7q-14 17 -51 17h-43v-212q0 -15 4 -23t18 -12l83 -14l-7 -36q-70 8 -126 8t-129 -8l-7 33q40 5 58 13t17 31v510q0 23 -16 30q-13 6 -49 11l-10 2l7 31q5 -3 30 -3zM214 331h55q73 0 113 36t40 109t-35 108t-108 35q-39 0 -65 -7v-281z" unicode="Ŕ" glyph-name="Racute"/>
<glyph horiz-adv-x="381" d="M230 670q27 6 54 6h31l10 -16l-151 -162l-32 19q10 19 45 81t43 72zM278 364q-38 0 -91 -75v-222q0 -13 4 -19t15 -9q17 -7 62 -11l15 -2l-7 -34q-90 8 -129 8t-105 -8l-8 30q40 6 54 14t16 12q2 5 3 18v270q0 30 -17 33q-5 1 -11 1q-14 0 -33 -4l-11 -2l-5 30 q70 31 132 38l16 -18q0 -32 9 -77l33 42q43 53 90 53q20 0 71 -19q-14 -79 -34 -129l-27 -2q0 36 -10 59t-32 23z" unicode="ŕ" glyph-name="racute"/>
<glyph horiz-adv-x="649" d="M360 -62q25 -18 25 -47t-35 -75t-69 -76l-22 18q21 20 41 50t19 51q0 21 -58 27l-7 16q8 13 25 31t29 26q27 -3 52 -21zM87 650l192 8q108 0 175 -40t67 -129q1 -66 -45 -115t-108 -54v-7q26 -7 54 -44t49 -79q58 -116 95 -140t85 -24l-5 -32h-142q-31 0 -92 108 q-15 24 -35 60t-27 48t-13 22q-7 10 -9 13q-2 5 -6 11t-8 9q-2 3 -6 7q-14 17 -51 17h-43v-212q0 -15 4 -23t18 -12l83 -14l-7 -36q-70 8 -126 8t-129 -8l-7 33q40 5 58 13t17 31v510q0 23 -16 30q-13 6 -49 11l-10 2l7 31q5 -3 30 -3zM214 331h55q73 0 113 36t40 109 t-35 108t-108 35q-39 0 -65 -7v-281z" unicode="Ŗ" glyph-name="Rcommaaccent"/>
<glyph horiz-adv-x="381" d="M189 -62q25 -18 25 -47t-35 -75t-69 -76l-22 18q20 20 40 50t20 51t-58 27l-7 16q8 13 25 31t29 26q27 -3 52 -21zM278 364q-38 0 -91 -75v-222q0 -13 4 -19t15 -9q17 -7 62 -11l15 -2l-7 -34q-90 8 -129 8t-105 -8l-8 30q40 6 54 14t16 12q2 5 3 18v270q0 30 -17 33 q-5 1 -11 1q-14 0 -33 -4l-11 -2l-5 30q70 31 132 38l16 -18q0 -32 9 -77l33 42q43 53 90 53q20 0 71 -19q-14 -79 -34 -129l-27 -2q0 36 -10 59t-32 23z" unicode="ŗ" glyph-name="rcommaaccent"/>
<glyph horiz-adv-x="649" d="M279 686q-25 0 -41 2q-12 8 -54 62t-48 65l28 21l115 -90l115 90l28 -21q-6 -11 -48 -65t-54 -62q-16 -2 -41 -2zM87 650l192 8q108 0 175 -40t67 -129q1 -66 -45 -115t-108 -54v-7q26 -7 54 -44t49 -79q58 -116 95 -140t85 -24l-5 -32h-142q-31 0 -92 108q-15 24 -35 60 t-27 48t-13 22q-7 10 -9 13q-2 5 -6 11t-8 9q-2 3 -6 7q-14 17 -51 17h-43v-212q0 -15 4 -23t18 -12l83 -14l-7 -36q-70 8 -126 8t-129 -8l-7 33q40 5 58 13t17 31v510q0 23 -16 30q-13 6 -49 11l-10 2l7 31q5 -3 30 -3zM214 331h55q73 0 113 36t40 109t-35 108t-108 35 q-39 0 -65 -7v-281z" unicode="Ř" glyph-name="Rcaron"/>
<glyph horiz-adv-x="381" d="M214 503q-25 0 -41 2q-9 9 -45 73t-46 84l32 19l100 -112l100 112l32 -19q-10 -20 -46 -84t-45 -73q-16 -2 -41 -2zM278 364q-38 0 -91 -75v-222q0 -13 4 -19t15 -9q17 -7 62 -11l15 -2l-7 -34q-90 8 -129 8t-105 -8l-8 30q40 6 54 14t16 12q2 5 3 18v270q0 30 -17 33 q-5 1 -11 1q-14 0 -33 -4l-11 -2l-5 30q70 31 132 38l16 -18q0 -32 9 -77l33 42q43 53 90 53q20 0 71 -19q-14 -79 -34 -129l-27 -2q0 36 -10 59t-32 23z" unicode="ř" glyph-name="rcaron"/>
<glyph horiz-adv-x="524" d="M403 817l6 -18l-188 -118l-26 27q11 14 62 66t62 59q13 1 43 -5t41 -11zM138 75q38 -45 102 -45t100 31t37 84q0 50 -42 86q-40 34 -129 81q-9 4 -33 20q-23 16 -33 24t-27 26q-17 16 -24 30q-19 38 -19 75q0 83 58 131t149 48q33 0 177 -26q-8 -87 -26 -154l-34 -6 q-7 85 -19 117q-37 25 -97 25t-92 -27t-32 -75q0 -63 98 -118q14 -6 50 -26t58 -34t52 -38q57 -47 57 -117q-1 -99 -67 -151t-164 -52t-183 37q-2 11 -2 73t4 89l37 9q6 -72 44 -117z" unicode="Ś" glyph-name="Sacute"/>
<glyph horiz-adv-x="381" d="M216 670q27 6 54 6h31l10 -16l-151 -162l-32 19q10 19 45 81t43 72zM179 22q81 0 81 70q0 31 -23 50t-65 39q-42 21 -57 29t-31 22q-33 29 -33 82q1 54 41 86t108 32q32 0 121 -23q-6 -61 -17 -100l-20 -4q-24 91 -91 91q-35 0 -53 -17t-17 -43q0 -26 18 -42t43 -28 t43 -21l22 -11q31 -16 37 -22t17 -14t15 -16l9 -18q10 -18 10 -46q0 -66 -46 -100q-45 -34 -117 -34t-126 27q-2 15 -2 55t2 54l29 6q8 -46 35 -75t67 -29z" unicode="ś" glyph-name="sacute"/>
<glyph horiz-adv-x="524" d="M277 831q25 0 41 -2q12 -9 54 -63t48 -64l-28 -21l-115 90l-115 -90l-28 21q6 10 48 64t54 63q16 2 41 2zM138 75q38 -45 102 -45t100 31t37 84q0 50 -42 86q-40 34 -129 81q-9 4 -33 20q-23 16 -33 24t-27 26q-17 16 -24 30q-19 38 -19 75q0 83 58 131t149 48 q33 0 177 -26q-8 -87 -26 -154l-34 -6q-7 85 -19 117q-37 25 -97 25t-92 -27t-32 -75q0 -63 98 -118q14 -6 50 -26t58 -34t52 -38q57 -47 57 -117q-1 -99 -67 -151t-164 -52t-183 37q-2 11 -2 73t4 89l37 9q6 -72 44 -117z" unicode="Ŝ" glyph-name="Scircumflex"/>
<glyph horiz-adv-x="381" d="M200 676q25 0 41 -2q9 -8 45 -72t46 -85l-32 -19l-100 112l-100 -112l-32 19q10 21 46 85t45 72q16 2 41 2zM179 22q81 0 81 70q0 31 -23 50t-65 39q-42 21 -57 29t-31 22q-33 29 -33 82q1 54 41 86t108 32q32 0 121 -23q-6 -61 -17 -100l-20 -4q-24 91 -91 91 q-35 0 -53 -17t-17 -43q0 -26 18 -42t43 -28t43 -21l22 -11q31 -16 37 -22t17 -14t15 -16l9 -18q10 -18 10 -46q0 -66 -46 -100q-45 -34 -117 -34t-126 27q-2 15 -2 55t2 54l29 6q8 -46 35 -75t67 -29z" unicode="ŝ" glyph-name="scircumflex"/>
<glyph horiz-adv-x="524" d="M55 21q-2 11 -2 73t4 89l37 9q6 -72 44 -117t102 -45t100 31t37 84q0 50 -42 86q-40 34 -129 81q-9 4 -33 20q-23 16 -33 24t-27 26q-17 16 -24 30q-19 38 -19 75q0 83 58 131t149 48q33 0 177 -26q-8 -87 -26 -154l-34 -6q-7 85 -19 117q-37 25 -97 25t-92 -27t-32 -75 q0 -63 98 -118q14 -6 50 -26t58 -34t52 -38q57 -47 57 -117q0 -91 -57 -142t-151 -59l-17 -57q32 -1 54 -23t23 -60t-27 -60q-28 -24 -70 -25h-2q-40 0 -90 28l15 31q40 -18 68 -18q53 0 53 40q0 26 -24 40q-14 8 -29 8t-28 -3l-13 21l43 76q-85 3 -162 37z" unicode="Ş" glyph-name="Scedilla"/>
<glyph horiz-adv-x="381" d="M46 66q0 40 2 54l29 6q8 -46 35 -75t67 -29q81 0 81 70q0 31 -23 50t-65 39q-42 21 -57 29t-31 22q-33 29 -33 82q1 54 41 86t108 32q32 0 121 -23q-6 -61 -17 -100l-20 -4q-24 91 -91 91q-35 0 -53 -17t-17 -43q0 -26 18 -42t43 -28t43 -21l22 -11q31 -16 37 -22t17 -14 t15 -16l9 -18q10 -18 10 -46q0 -58 -37 -92t-102 -40l-17 -57q33 -1 55 -23t22 -60t-28 -60q-28 -24 -68 -25h-3q-40 0 -90 28l15 31q40 -18 68 -18q53 0 53 40q0 26 -23 40q-15 8 -30 8t-28 -3l-13 21l43 77q-59 3 -106 26q-2 15 -2 55z" unicode="ş" glyph-name="scedilla"/>
<glyph horiz-adv-x="524" d="M277 686q-25 0 -41 2q-12 8 -54 62t-48 65l28 21l115 -90l115 90l28 -21q-6 -11 -48 -65t-54 -62q-16 -2 -41 -2zM138 75q38 -45 102 -45t100 31t37 84q0 50 -42 86q-40 34 -129 81q-9 4 -33 20q-23 16 -33 24t-27 26q-17 16 -24 30q-19 38 -19 75q0 83 58 131t149 48 q33 0 177 -26q-8 -87 -26 -154l-34 -6q-7 85 -19 117q-37 25 -97 25t-92 -27t-32 -75q0 -63 98 -118q14 -6 50 -26t58 -34t52 -38q57 -47 57 -117q-1 -99 -67 -151t-164 -52t-183 37q-2 11 -2 73t4 89l37 9q6 -72 44 -117z" unicode="Š" glyph-name="Scaron"/>
<glyph horiz-adv-x="381" d="M200 503q-25 0 -41 2q-9 9 -45 73t-46 84l32 19l100 -112l100 112l32 -19q-10 -20 -46 -84t-45 -73q-16 -2 -41 -2zM179 22q81 0 81 70q0 31 -23 50t-65 39q-42 21 -57 29t-31 22q-33 29 -33 82q1 54 41 86t108 32q32 0 121 -23q-6 -61 -17 -100l-20 -4q-24 91 -91 91 q-35 0 -53 -17t-17 -43q0 -26 18 -42t43 -28t43 -21l22 -11q31 -16 37 -22t17 -14t15 -16l9 -18q10 -18 10 -46q0 -66 -46 -100q-45 -34 -117 -34t-126 27q-2 15 -2 55t2 54l29 6q8 -46 35 -75t67 -29z" unicode="š" glyph-name="scaron"/>
<glyph horiz-adv-x="573" d="M327 -62q25 -18 25 -47t-35 -75t-69 -76l-22 18q20 20 40 50t20 51t-58 27l-7 16q8 13 25 31t29 26q27 -3 52 -21zM422 -8q-66 8 -136 8t-135 -8l-8 34q65 8 79 14t17 13q3 6 3 19v531h-167q-15 -42 -21 -125l-37 6q-9 69 -9 111t1 62q56 -7 101 -7h353q45 0 101 7 q1 -19 1 -59t-10 -114l-36 -6q-6 83 -21 125h-167v-531q0 -13 3 -19t12 -10q15 -6 68 -15l16 -2z" unicode="Ţ" glyph-name="Tcommaaccent"/>
<glyph horiz-adv-x="336" d="M227 -62q25 -18 25 -47t-35 -75t-69 -76l-22 18q20 20 40 50t20 51t-58 27l-7 16q8 13 25 31t29 26q27 -3 52 -21zM165 124q0 -47 17 -63q18 -16 52 -16t81 31l15 -23q-84 -69 -139 -69q-106 0 -106 125v263h-58l-5 26l63 18v67l80 37v-110l128 9l-8 -53l-120 4v-246z " unicode="ţ" glyph-name="tcommaaccent"/>
<glyph horiz-adv-x="573" d="M286 686q-25 0 -41 2q-12 8 -54 62t-48 65l28 21l115 -90l115 90l28 -21q-6 -11 -48 -65t-54 -62q-16 -2 -41 -2zM422 -8q-66 8 -136 8t-135 -8l-8 34q65 8 79 14t17 13q3 6 3 19v531h-167q-15 -42 -21 -125l-37 6q-9 69 -9 111t1 62q56 -7 101 -7h353q45 0 101 7 q1 -19 1 -59t-10 -114l-36 -6q-6 83 -21 125h-167v-531q0 -13 3 -19t12 -10q15 -6 68 -15l16 -2z" unicode="Ť" glyph-name="Tcaron"/>
<glyph horiz-adv-x="336" d="M295 698q25 -18 25 -48t-35 -76t-69 -75l-22 18q20 21 40 51t20 50q0 21 -58 27l-7 16q8 13 25 31t29 26q27 -2 52 -20zM165 124q0 -47 17 -63q18 -16 52 -16t81 31l15 -23q-84 -69 -139 -69q-106 0 -106 125v263h-58l-5 26l63 18v67l80 37v-110l128 9l-8 -53l-120 4 v-246z" unicode="ť" glyph-name="tcaron"/>
<glyph horiz-adv-x="573" d="M422 -8q-66 8 -136 8t-135 -8l-8 34q65 8 79 14t17 13q3 6 3 19v243h-165l9 46h156v242h-167q-15 -42 -21 -125l-37 6q-9 69 -9 111t1 62q56 -7 101 -7h353q45 0 101 7q1 -19 1 -59t-10 -114l-36 -6q-6 83 -21 125h-167v-242h165l-9 -46h-156v-243q0 -13 3 -19t12 -10 q15 -6 68 -15l16 -2z" unicode="Ŧ" glyph-name="Tbar"/>
<glyph horiz-adv-x="336" d="M165 265h119l-8 -42h-111v-99q0 -47 17 -63q18 -16 52 -16t81 31l15 -23q-84 -69 -139 -69q-106 0 -106 125v114h-78l8 42h70v107h-58l-5 26l63 18v67l80 37v-110l128 9l-8 -53l-120 4v-105z" unicode="ŧ" glyph-name="tbar"/>
<glyph horiz-adv-x="724" d="M303 733q-24 0 -58 -42l-27 16q10 18 36 47t39 40l23 4q12 -2 57 -22t69 -19q24 0 58 43l27 -17q-11 -18 -37 -48t-38 -40l-23 -4q-12 2 -57 22t-69 20zM558 229v352q0 13 -2 19t-12 10q-19 8 -52 12l-12 2l7 34q67 -8 103 -8t103 8l7 -34q-42 -4 -60 -12t-17 -30v-337 q-1 -127 -69 -193t-198 -66t-192 60q-63 60 -63 187v349q-1 14 -3 20t-12 10q-14 6 -50 12l-10 1l7 33q67 -8 115 -8t115 8l7 -33q-71 -9 -78 -25q-2 -5 -2 -19v-332q0 -103 46 -153t138 -50t138 49t46 134z" unicode="Ũ" glyph-name="Utilde"/>
<glyph horiz-adv-x="550" d="M201 566q-24 0 -58 -42l-27 16q10 18 36 47t39 40l23 4q12 -1 57 -21t69 -20t58 43l27 -17q-11 -18 -37 -48t-38 -40l-23 -4q-12 2 -57 22t-69 20zM453 85q0 -27 15 -33t32 -6t32 2l7 -30q-69 -14 -117 -34q-47 34 -47 73l-36 -27q-59 -46 -119 -46q-127 0 -127 151v203 q0 32 -17 35q-4 1 -9 1q-13 0 -31 -4l-10 -2l-5 30q59 25 145 34l14 -18q-7 -30 -7 -98v-161q-1 -57 21 -83t69 -27q47 0 109 47v246q0 32 -16 35q-5 1 -11 1q-15 0 -35 -4l-11 -2l-6 30q66 29 152 34l15 -18q-7 -30 -7 -98v-231z" unicode="ũ" glyph-name="utilde"/>
<glyph horiz-adv-x="724" d="M241 703l11 61h250l-11 -61h-250zM558 229v352q0 13 -2 19t-12 10q-19 8 -52 12l-12 2l7 34q67 -8 103 -8t103 8l7 -34q-42 -4 -60 -12t-17 -30v-337q-1 -127 -69 -193t-198 -66t-192 60q-63 60 -63 187v349q-1 14 -3 20t-12 10q-14 6 -50 12l-10 1l7 33q67 -8 115 -8 t115 8l7 -33q-71 -9 -78 -25q-2 -5 -2 -19v-332q0 -103 46 -153t138 -50t138 49t46 134z" unicode="Ū" glyph-name="Umacron"/>
<glyph horiz-adv-x="550" d="M140 557l11 61h250l-11 -61h-250zM453 85q0 -27 15 -33t32 -6t32 2l7 -30q-69 -14 -117 -34q-47 34 -47 73l-36 -27q-59 -46 -119 -46q-127 0 -127 151v203q0 32 -17 35q-4 1 -9 1q-13 0 -31 -4l-10 -2l-5 30q59 25 145 34l14 -18q-7 -30 -7 -98v-161q-1 -57 21 -83 t69 -27q47 0 109 47v246q0 32 -16 35q-5 1 -11 1q-15 0 -35 -4l-11 -2l-6 30q66 29 152 34l15 -18q-7 -30 -7 -98v-231z" unicode="ū" glyph-name="umacron"/>
<glyph horiz-adv-x="724" d="M470 726q-36 -38 -94 -38t-92 37q-33 37 -33 98l31 9q15 -79 96 -79t96 79l31 -9q1 -59 -35 -97zM558 229v352q0 13 -2 19t-12 10q-19 8 -52 12l-12 2l7 34q67 -8 103 -8t103 8l7 -34q-42 -4 -60 -12t-17 -30v-337q-1 -127 -69 -193t-198 -66t-192 60q-63 60 -63 187v349 q-1 14 -3 20t-12 10q-14 6 -50 12l-10 1l7 33q67 -8 115 -8t115 8l7 -33q-71 -9 -78 -25q-2 -5 -2 -19v-332q0 -103 46 -153t138 -50t138 49t46 134z" unicode="Ŭ" glyph-name="Ubreve"/>
<glyph horiz-adv-x="550" d="M368 549q-36 -38 -94 -38t-92 37q-33 37 -33 98l31 9q15 -79 96 -79t96 79l31 -9q1 -59 -35 -97zM453 85q0 -27 15 -33t32 -6t32 2l7 -30q-69 -14 -117 -34q-47 34 -47 73l-36 -27q-59 -46 -119 -46q-127 0 -127 151v203q0 32 -17 35q-4 1 -9 1q-13 0 -31 -4l-10 -2 l-5 30q59 25 145 34l14 -18q-7 -30 -7 -98v-161q-1 -57 21 -83t69 -27q47 0 109 47v246q0 32 -16 35q-5 1 -11 1q-15 0 -35 -4l-11 -2l-6 30q66 29 152 34l15 -18q-7 -30 -7 -98v-231z" unicode="ŭ" glyph-name="ubreve"/>
<glyph horiz-adv-x="724" d="M284 754q0 34 26 60t60 25q34 1 60 -25t26 -60t-26 -60t-60 -25q-34 -1 -60 25t-26 60zM322 754q0 -22 14 -37t34 -15t34 15t14 37t-14 37t-34 15t-34 -15t-14 -37zM558 229v352q0 13 -2 19t-12 10q-19 8 -52 12l-12 2l7 34q67 -8 103 -8t103 8l7 -34q-42 -4 -60 -12 t-17 -30v-337q-1 -127 -69 -193t-198 -66t-192 60q-63 60 -63 187v349q-1 14 -3 20t-12 10q-14 6 -50 12l-10 1l7 33q67 -8 115 -8t115 8l7 -33q-71 -9 -78 -25q-2 -5 -2 -19v-332q0 -103 46 -153t138 -50t138 49t46 134z" unicode="Ů" glyph-name="Uring"/>
<glyph horiz-adv-x="550" d="M182 588q0 34 26 60t60 25q34 1 60 -25t26 -60t-26 -60t-60 -25q-34 -1 -60 25t-26 60zM220 588q0 -22 14 -37t34 -15t34 15t14 37t-14 37t-34 15t-34 -15t-14 -37zM453 85q0 -27 15 -33t32 -6t32 2l7 -30q-69 -14 -117 -34q-47 34 -47 73l-36 -27q-59 -46 -119 -46 q-127 0 -127 151v203q0 32 -17 35q-4 1 -9 1q-13 0 -31 -4l-10 -2l-5 30q59 25 145 34l14 -18q-7 -30 -7 -98v-161q-1 -57 21 -83t69 -27q47 0 109 47v246q0 32 -16 35q-5 1 -11 1q-15 0 -35 -4l-11 -2l-6 30q66 29 152 34l15 -18q-7 -30 -7 -98v-231z" unicode="ů" glyph-name="uring"/>
<glyph horiz-adv-x="724" d="M329 837q23 3 49 3t36 -1l10 -17l-140 -134l-36 16q3 4 39 64t42 69zM478 837q24 3 50 3t35 -1l10 -17l-140 -134l-36 16q3 4 39 64t42 69zM558 229v352q0 13 -2 19t-12 10q-19 8 -52 12l-12 2l7 34q67 -8 103 -8t103 8l7 -34q-42 -4 -60 -12t-17 -30v-337 q-1 -127 -69 -193t-198 -66t-192 60q-63 60 -63 187v349q-1 14 -3 20t-12 10q-14 6 -50 12l-10 1l7 33q67 -8 115 -8t115 8l7 -33q-71 -9 -78 -25q-2 -5 -2 -19v-332q0 -103 46 -153t138 -50t138 49t46 134z" unicode="Ű" glyph-name="Uhungarumlaut"/>
<glyph horiz-adv-x="550" d="M443 688l13 -15l-124 -183l-35 14q53 150 63 164q40 17 83 20zM298 688l13 -15l-124 -183l-35 14q53 150 63 164q40 17 83 20zM453 85q0 -27 15 -33t32 -6t32 2l7 -30q-69 -14 -117 -34q-47 34 -47 73l-36 -27q-59 -46 -119 -46q-127 0 -127 151v203q0 32 -17 35 q-4 1 -9 1q-13 0 -31 -4l-10 -2l-5 30q59 25 145 34l14 -18q-7 -30 -7 -98v-161q-1 -57 21 -83t69 -27q47 0 109 47v246q0 32 -16 35q-5 1 -11 1q-15 0 -35 -4l-11 -2l-6 30q66 29 152 34l15 -18q-7 -30 -7 -98v-231z" unicode="ű" glyph-name="uhungarumlaut"/>
<glyph horiz-adv-x="724" d="M333 -143q-1 -19 11 -33t37 -14t56 14l15 -30q-50 -34 -94 -34t-69 24q-26 24 -26 62q1 40 25 69t78 71h-9q-130 0 -193 60t-63 187v349q-1 14 -3 20t-12 10q-14 6 -50 12l-10 1l7 33q67 -8 115 -8t115 8l7 -33q-71 -9 -78 -25q-2 -5 -2 -19v-332q0 -103 46 -153t138 -50 t138 49t46 134v352q0 13 -2 19t-12 10q-19 8 -52 12l-12 2l7 34q67 -8 103 -8t103 8l7 -34q-42 -4 -60 -12t-17 -30v-337q1 -113 -53 -177t-156 -78q-81 -75 -81 -133z" unicode="Ų" glyph-name="Uogonek"/>
<glyph horiz-adv-x="550" d="M351 -143q-1 -19 11 -33t37 -14t56 14l15 -30q-50 -34 -94 -34t-69 24q-26 24 -26 65q-1 22 7 40q8 17 29 39t35 34t50 38q-27 25 -27 57l-36 -27q-59 -46 -119 -46q-127 0 -127 151v203q0 32 -17 35q-4 1 -9 1q-13 0 -31 -4l-10 -2l-5 30q59 25 145 34l14 -18 q-7 -30 -7 -98v-161q-1 -57 21 -83t69 -27q47 0 109 47v246q0 32 -16 35q-5 1 -11 1q-15 0 -35 -4l-11 -2l-6 30q66 29 152 34l15 -18q-7 -30 -7 -98v-231q0 -27 15 -33t32 -6t32 2l7 -30q-70 -15 -110 -31q-78 -72 -78 -130z" unicode="ų" glyph-name="uogonek"/>
<glyph horiz-adv-x="1018" d="M529 831q25 0 41 -2q12 -9 54 -63t48 -64l-28 -21l-115 90l-115 -90l-28 21q6 10 48 64t54 63q16 2 41 2zM5 658q53 -8 117 -8t121 8l6 -33q-37 -5 -61 -13t-23 -28q0 -6 2 -13l142 -432l6 -29l6 -1l4 33l167 507h72l168 -514l6 -26l5 -1l6 30l135 433q3 8 3 14 q0 20 -26 27l-61 13l6 33q54 -8 104 -8t103 8l7 -33q-42 -9 -52 -20t-26 -56l-189 -557h-68l-169 501l-6 27l-5 1l-8 -34l-165 -495h-69l-185 557q-14 43 -26 55t-54 21z" unicode="Ŵ" glyph-name="Wcircumflex"/>
<glyph horiz-adv-x="686" d="M364 676q25 0 41 -2q9 -8 45 -72t46 -85l-32 -19l-100 112l-100 -112l-32 19q10 21 46 85t45 72q16 2 41 2zM-2 423q66 -7 103 -7t103 7l-2 -29q-40 -6 -54 -10t-14 -14t3 -17l86 -235l5 -26l5 -2l7 29l101 297h48l100 -297l5 -27l6 -2l9 32l84 231q3 7 3 13q0 14 -16 19 l-52 9l-2 29q50 -6 85 -6t85 6l-6 -31q-23 -1 -31 -8t-17 -31l-136 -362h-47l-101 292l-5 26l-6 2l-7 -29l-99 -291h-48l-141 362q-10 24 -18 31t-30 8z" unicode="ŵ" glyph-name="wcircumflex"/>
<glyph horiz-adv-x="592" d="M307 831q25 0 41 -2q12 -9 54 -63t48 -64l-28 -21l-115 90l-115 -90l-28 21q6 10 48 64t54 63q16 2 41 2zM-2 659q54 -9 120 -9t133 9l-3 -32q-30 -5 -51 -13t-21 -22t8 -29l132 -233l131 234q7 12 7 23t-11 19q-12 8 -69 21l-3 32q70 -9 116 -9t107 9l-4 -32 q-31 -3 -48 -15t-37 -50l-166 -286v-208q0 -24 16 -31q16 -8 58 -13l14 -1l-8 -31q-65 8 -123 8t-124 -8l-7 32q49 4 67 12t18 32v206l-171 295q-18 33 -33 44t-44 14z" unicode="Ŷ" glyph-name="Ycircumflex"/>
<glyph horiz-adv-x="466" d="M241 676q25 0 41 -2q9 -8 45 -72t46 -85l-32 -19l-100 112l-100 -112l-32 19q10 21 46 85t45 72q16 2 41 2zM65 -244h-12q-23 38 -32 97l18 9q28 -13 51 -13q48 0 75 58l42 92l-160 354q-12 25 -19 31t-29 8l-6 31q63 -7 99 -7t100 7l-2 -29q-32 -6 -46 -10t-14 -17 q0 -6 3 -14l105 -240l5 -25h6l7 30l94 234q4 8 4 14q0 13 -16 18l-45 9l-2 29q50 -6 84 -6t84 6l-7 -31q-22 -1 -29 -7t-17 -32l-211 -491q-45 -105 -130 -105z" unicode="ŷ" glyph-name="ycircumflex"/>
<glyph horiz-adv-x="592" d="M347 741q-1 23 15 38t40 15t40 -15t16 -38t-16 -37t-40 -15q-24 1 -40 15t-15 37zM155 741q-1 23 15 38t40 15t40 -15t16 -38t-16 -37t-40 -15q-24 1 -40 15t-15 37zM-2 659q54 -9 120 -9t133 9l-3 -32q-30 -5 -51 -13t-21 -22t8 -29l132 -233l131 234q7 12 7 23t-11 19 q-12 8 -69 21l-3 32q70 -9 116 -9t107 9l-4 -32q-31 -3 -48 -15t-37 -50l-166 -286v-208q0 -24 16 -31q16 -8 58 -13l14 -1l-8 -31q-65 8 -123 8t-124 -8l-7 32q49 4 67 12t18 32v206l-171 295q-18 33 -33 44t-44 14z" unicode="Ÿ" glyph-name="Ydieresis"/>
<glyph horiz-adv-x="587" d="M410 817l6 -18l-188 -118l-26 27q11 14 62 66t62 59q12 1 42 -5t42 -11zM58 463q-1 11 -1 31q-1 20 3 74t9 82l24 12q30 -12 71 -12h347l14 -50l-376 -547h285q16 16 44 70t39 83l36 -9q-1 -27 -14 -99t-21 -98h-469l-9 47l378 550h-274q-29 -41 -51 -141z" unicode="Ź" glyph-name="Zacute"/>
<glyph horiz-adv-x="405" d="M229 670q27 6 54 6h31l10 -16l-151 -162l-32 19q10 19 45 81t43 72zM165 416h193l11 -23l-238 -350h165q9 9 27 43t24 52l31 -6q-2 -39 -27 -132h-316l-6 23l239 352h-154q-8 -11 -20 -41t-18 -50l-29 5q0 19 4 67t7 63l20 11q44 -14 87 -14z" unicode="ź" glyph-name="zacute"/>
<glyph horiz-adv-x="587" d="M229 750q-1 23 15 38t40 15t40 -15t16 -38q0 -24 -16 -38t-40 -14t-40 14t-15 38zM58 463q-1 11 -1 31q-1 20 3 74t9 82l24 12q30 -12 71 -12h347l14 -50l-376 -547h285q16 16 44 70t39 83l36 -9q-1 -27 -14 -99t-21 -98h-469l-9 47l378 550h-274q-29 -41 -51 -141z" unicode="Ż" glyph-name="Zdot"/>
<glyph horiz-adv-x="405" d="M158 591q0 23 16 38t40 15t40 -15t15 -38q1 -23 -15 -37t-40 -15q-24 1 -40 15t-16 37zM165 416h193l11 -23l-238 -350h165q9 9 27 43t24 52l31 -6q-2 -39 -27 -132h-316l-6 23l239 352h-154q-8 -11 -20 -41t-18 -50l-29 5q0 19 4 67t7 63l20 11q44 -14 87 -14z" unicode="ż" glyph-name="zdotaccent"/>
<glyph horiz-adv-x="587" d="M284 686q-25 0 -41 2q-12 8 -54 62t-48 65l28 21l115 -90l115 90l28 -21q-6 -11 -48 -65t-54 -62q-16 -2 -41 -2zM58 463q-1 11 -1 31q-1 20 3 74t9 82l24 12q30 -12 71 -12h347l14 -50l-376 -547h285q16 16 44 70t39 83l36 -9q-1 -27 -14 -99t-21 -98h-469l-9 47 l378 550h-274q-29 -41 -51 -141z" unicode="Ž" glyph-name="Zcaron"/>
<glyph horiz-adv-x="405" d="M213 503q-25 0 -41 2q-9 9 -45 73t-46 84l32 19l100 -112l100 112l32 -19q-10 -20 -46 -84t-45 -73q-16 -2 -41 -2zM165 416h193l11 -23l-238 -350h165q9 9 27 43t24 52l31 -6q-2 -39 -27 -132h-316l-6 23l239 352h-154q-8 -11 -20 -41t-18 -50l-29 5q0 19 4 67t7 63 l20 11q44 -14 87 -14z" unicode="ž" glyph-name="zcaron"/>
<glyph horiz-adv-x="327" d="M107 474q-1 100 49 172t140 72q43 0 110 -18q-7 -51 -35 -125l-29 -2q0 42 -20 72t-58 30q-38 1 -58 -43q-19 -44 -19 -101v-464q0 -13 3 -18t12 -10q17 -9 60 -15l14 -2l-8 -30q-84 8 -114 8t-112 -8l-8 30q40 6 54 14t16 12q2 5 3 18v306l-63 1l-3 28l66 15v58z" unicode="ſ" glyph-name="longs"/>
<glyph horiz-adv-x="327" d="M-16 -170q-23 0 -51 11t-39 21q15 42 43 90h16q15 -68 54 -68q58 0 76 137l39 295l-55 -1v36l60 3l10 68q9 68 29 120t62 88q40 36 90 36t107 -23q-9 -48 -40 -122h-24q0 43 -17 71t-44 28q-26 0 -42 -18t-22 -40q-6 -20 -10 -50l-22 -153l105 8l-9 -55l-102 4l-32 -229 q-18 -125 -65 -191t-117 -66z" unicode="ƒ" glyph-name="florin"/>
<glyph horiz-adv-x="755" d="M203 542q-55 -76 -55 -203t62 -217t174 -90t168 76q55 76 55 203t-62 217q-63 90 -175 90t-167 -76zM137 71q-90 87 -90 240q-1 153 89 254t239 101q118 0 200 -54q68 23 68 61q1 13 -13 25t-31 16v23q12 9 38 23t40 17q18 -8 29 -28t11 -41q0 -85 -108 -120 q99 -88 99 -245t-90 -258t-240 -101q-151 0 -241 87z" unicode="Ơ" glyph-name="Ohorn"/>
<glyph horiz-adv-x="527" d="M131 219q0 -94 35 -144t98 -50q106 0 106 172q0 93 -36 143t-98 51q-105 0 -105 -172zM96 42q-54 58 -54 158t58 166t152 66t149 -55q63 23 63 59q0 13 -14 25t-30 16v23q12 10 38 24t40 16q18 -8 29 -28t11 -41q0 -86 -114 -122q36 -53 36 -130q0 -103 -58 -169 t-155 -66t-151 58z" unicode="ơ" glyph-name="ohorn"/>
<glyph horiz-adv-x="724" d="M558 229v352q0 13 -2 19t-12 10q-19 8 -52 12l-12 2l7 34q67 -8 111 -8t63 5q73 19 73 62q0 13 -14 25t-30 16v23q12 9 38 23t40 17q18 -8 29 -28t11 -41q0 -56 -40 -85t-107 -46l-22 -6q-16 -5 -16 -33v-337q-1 -127 -69 -193t-198 -66t-192 60q-63 60 -63 187v349 q-1 14 -3 20t-12 10q-14 6 -50 12l-10 1l7 33q67 -8 115 -8t115 8l7 -33q-71 -9 -78 -25q-2 -5 -2 -19v-332q0 -103 46 -153t138 -50t138 49t46 134z" unicode="Ư" glyph-name="Uhorn"/>
<glyph horiz-adv-x="555" d="M453 85q0 -27 15 -33t32 -6t32 2l7 -30q-69 -14 -117 -34q-47 34 -47 73l-36 -27q-59 -46 -119 -46q-127 0 -127 151v203q0 32 -17 35q-4 1 -9 1q-13 0 -31 -4l-10 -2l-5 30q59 25 145 34l14 -18q-7 -30 -7 -98v-161q-1 -57 21 -83t69 -27q47 0 109 47v246q0 32 -16 35 q-5 1 -11 1q-15 0 -35 -4l-11 -2l-6 30q26 12 73 22t78 12q69 24 69 61q0 13 -14 25t-30 16v23q12 9 38 23t40 17q18 -8 29 -28t11 -41q0 -91 -130 -126q-4 -24 -4 -86v-231z" unicode="ư" glyph-name="uhorn"/>
<glyph horiz-adv-x="249" d="M124 503q-25 0 -41 2q-9 9 -45 73t-46 84l32 19l100 -112l100 112l32 -19q-10 -20 -46 -84t-45 -73q-16 -2 -41 -2zM95 -28v369q0 29 -17 32q-4 1 -8 1q-14 0 -40 -5l-5 30q31 13 75 23t71 10l14 -18q-10 -45 -10 -98v-314q0 -71 -13 -98q-35 -75 -127 -164l-21 21 q52 64 74 136q7 28 7 75z" unicode="ǰ" glyph-name="jcaron"/>
<glyph horiz-adv-x="650" d="M433 993l6 -18l-188 -118l-26 27q11 14 62 66t62 59q13 1 43 -5t41 -11zM224 766q0 34 26 60t60 25q34 1 60 -25t26 -60t-26 -60t-60 -25q-34 -1 -60 25t-26 60zM262 766q0 -22 14 -37t34 -15t34 15t14 37t-14 37t-34 15t-34 -15t-14 -37zM294 537l-87 -250h198l-88 243 l-11 42l-7 3zM134 65q0 -20 25 -27l59 -13l-6 -33q-55 8 -104 8t-105 -8l-7 33q42 9 54 21t28 55l199 544q44 10 76 29l215 -573q16 -43 29 -55t55 -21l-7 -33q-55 8 -119 8t-120 -8l-6 33q35 5 59 13t24 27q0 7 -3 14l-57 158h-233l-54 -158q-2 -5 -2 -14z" unicode="Ǻ" glyph-name="Aringacute"/>
<glyph horiz-adv-x="455" d="M344 817l6 -18l-188 -118l-26 27q11 14 62 66t62 59q12 1 42 -5t42 -11zM132 588q0 34 26 60t60 25q34 1 60 -25t26 -60t-26 -60t-60 -25q-34 -1 -60 25t-26 60zM170 588q0 -22 14 -37t34 -15t34 15t14 37t-14 37t-34 15t-34 -15t-14 -37zM363 286v-204q0 -36 39 -36 l27 1l8 -29q-49 -11 -104 -34q-37 25 -47 67q-46 -39 -74 -53t-56 -14q-52 0 -82 32t-30 86t39 82q39 26 108 33l92 10v45q0 57 -17 86q-18 29 -62 29t-66 -12q-6 -21 -6 -92l-42 -12q-22 73 -25 112q108 49 156 49q74 0 108 -36t34 -110zM145 64q18 -20 52 -20t86 40v114 l-77 -14q-79 -13 -79 -72q0 -28 18 -48z" unicode="ǻ" glyph-name="aringacute"/>
<glyph horiz-adv-x="857" d="M655 817l6 -18l-188 -118l-26 27q11 14 62 66t62 59q13 1 43 -5t41 -11zM414 603h-22l-111 -243h133v243zM459 650h236q46 0 82 6v-155l-37 -6q-14 85 -32 108h-205v-243h135q28 0 33 15q6 14 11 47l1 12l38 -4q-8 -50 -8 -94t8 -94l-38 -4q-5 42 -11 58t-34 16h-135 v-264h215q12 12 30 56t25 69l36 -6q-1 -27 -8 -87t-13 -80h-329q-46 0 -113 -8l-7 33q39 5 57 13t18 31v243h-155l-106 -233q-9 -19 -9 -29t8 -13q13 -6 47 -11l11 -1l-6 -33q-60 8 -109 8t-100 -8l-7 33q43 8 57 17q17 9 40 59l261 555q47 -6 113 -6z" unicode="Ǽ" glyph-name="AEacute"/>
<glyph horiz-adv-x="679" d="M359 670q27 6 54 6h31l10 -16l-151 -162l-32 19q10 19 45 81t43 72zM191 44q49 0 110 55q-18 42 -18 99l-77 -14q-79 -13 -79 -72q0 -28 18 -48t46 -20zM532 356q-20 34 -68 35q-48 0 -73 -43t-25 -102l186 24q0 52 -20 86zM507 47q59 0 117 43l16 -22q-89 -84 -166 -84 q-108 0 -160 87q-91 -87 -158 -87q-52 0 -82 32t-30 86t39 82q39 26 108 33l92 10v45q0 57 -17 86t-63 29t-70 -13q-4 -20 -4 -88l-41 -10q-16 50 -23 107q108 49 156 49q93 0 124 -57q52 57 132 57q81 0 123 -54t42 -148l-276 -20q8 -163 141 -163z" unicode="ǽ" glyph-name="aeacute"/>
<glyph horiz-adv-x="755" d="M500 817l6 -18l-188 -118l-26 27q11 14 62 66t62 59q12 1 42 -5t42 -11zM148 345q0 -121 49 -204l303 434q-57 43 -134 43q-108 0 -163 -76t-55 -197zM607 305q0 150 -72 235l-307 -441q62 -67 166 -67t158 76q55 76 55 197zM143 64q-96 88 -96 244q-1 156 89 257 t239 101q92 0 165 -34l45 65l34 -37l-37 -52q126 -87 126 -267q0 -155 -90 -256t-238 -101q-115 0 -197 51l-46 -66l-35 36z" unicode="Ǿ" glyph-name="Oslashacute"/>
<glyph horiz-adv-x="502" d="M266 670q27 6 54 6h31l10 -16l-151 -162l-32 19q10 19 45 81t43 72zM131 219q0 -67 16 -109l173 248q-33 33 -84 33q-105 0 -105 -172zM370 197q0 77 -25 125l-176 -252q34 -45 95 -45q106 0 106 172zM98 40q-56 58 -56 160t58 166q58 66 150 66q60 0 106 -23l41 60 l30 -30l-37 -52q70 -59 70 -165t-58 -172t-151 -66q-70 0 -121 30l-38 -55l-29 30z" unicode="ǿ" glyph-name="oslashacute"/>
<glyph horiz-adv-x="524" d="M269 -62q25 -18 25 -47t-35 -75t-69 -76l-22 18q20 20 40 50t20 51t-58 27l-7 16q8 13 25 31t29 26q27 -3 52 -21zM138 75q38 -45 102 -45t100 31t37 84q0 50 -42 86q-40 34 -129 81q-9 4 -33 20q-23 16 -33 24t-27 26q-17 16 -24 30q-19 38 -19 75q0 83 58 131t149 48 q33 0 177 -26q-8 -87 -26 -154l-34 -6q-7 85 -19 117q-37 25 -97 25t-92 -27t-32 -75q0 -63 98 -118q14 -6 50 -26t58 -34t52 -38q57 -47 57 -117q-1 -99 -67 -151t-164 -52t-183 37q-2 11 -2 73t4 89l37 9q6 -72 44 -117z" unicode="Ș" glyph-name="Scommaaccent"/>
<glyph horiz-adv-x="381" d="M207 -62q25 -18 25 -47t-35 -75t-69 -76l-22 18q20 20 40 50t20 51t-58 27l-7 16q8 13 25 31t29 26q27 -3 52 -21zM179 22q81 0 81 70q0 31 -23 50t-65 39q-42 21 -57 29t-31 22q-33 29 -33 82q1 54 41 86t108 32q32 0 121 -23q-6 -61 -17 -100l-20 -4q-24 91 -91 91 q-35 0 -53 -17t-17 -43q0 -26 18 -42t43 -28t43 -21l22 -11q31 -16 37 -22t17 -14t15 -16l9 -18q10 -18 10 -46q0 -66 -46 -100q-45 -34 -117 -34t-126 27q-2 15 -2 55t2 54l29 6q8 -46 35 -75t67 -29z" unicode="ș" glyph-name="scommaaccent"/>
<glyph horiz-adv-x="249" d="M95 -28v369q0 29 -17 32q-4 1 -8 1q-14 0 -40 -5l-5 30q31 13 75 23t71 10l14 -18q-10 -45 -10 -98v-314q0 -71 -13 -98q-35 -75 -127 -164l-21 21q52 64 74 136q7 28 7 75z" unicode="ȷ" glyph-name="dotlessj"/>
<glyph d="M161 676q25 0 41 -2q9 -8 45 -72t46 -85l-32 -19l-100 112l-100 -112l-32 19q10 21 46 85t45 72q16 2 41 2z" unicode="ˆ" glyph-name="circumflex"/>
<glyph d="M161 503q-25 0 -41 2q-9 9 -45 73t-46 84l32 19l100 -112l100 112l32 -19q-10 -20 -46 -84t-45 -73q-16 -2 -41 -2z" unicode="ˇ" glyph-name="caron"/>
<glyph d="M252 549q-36 -38 -94 -38t-91 37t-33 98l31 9q15 -79 96 -79t96 79l31 -9q0 -59 -36 -97z" unicode="˘" glyph-name="breve"/>
<glyph horiz-adv-x="285" d="M87 591q-1 23 15 38t40 15t40 -15t16 -38t-16 -37t-40 -15q-24 1 -40 15t-15 37z" unicode="˙" glyph-name="dotaccent"/>
<glyph d="M75 588q-1 34 25 60t61 25q35 1 61 -25t25 -60q1 -34 -25 -60t-61 -25q-35 -1 -61 25t-25 60zM113 588q0 -22 14 -37t34 -15t34 15t14 37t-14 37t-34 15t-34 -15t-14 -37z" unicode="˚" glyph-name="ring"/>
<glyph horiz-adv-x="276" d="M125 -143q-1 -19 11 -33t37 -14t56 14l15 -30q-50 -34 -94 -34t-69 24q-26 24 -26 65q-1 22 7 40t30 39q25 25 85 72h41q-93 -81 -93 -143z" unicode="˛" glyph-name="ogonek"/>
<glyph horiz-adv-x="443" d="M152 566q-24 0 -58 -42l-27 16q9 18 35 47t40 40l23 4q12 -1 57 -21q44 -20 68 -20t59 43l27 -17q-10 -18 -36 -48t-39 -40l-23 -4q-12 2 -57 22t-69 20z" unicode="˜" glyph-name="tilde"/>
<glyph d="M300 688l13 -15l-124 -183l-35 14q53 150 63 164q40 17 83 20zM155 688l13 -15l-124 -183l-35 14q53 150 63 164q40 17 83 20z" unicode="˝" glyph-name="hungarumlaut"/>
<glyph d="M75 -159q-1 33 25 59t61 26t61 -26t25 -59q1 -33 -25 -59t-61 -26t-61 26t-25 59zM113 -159q0 -22 14 -37t34 -15t34 15t14 37t-14 37t-34 15t-34 -15t-14 -37z" unicode="˳" glyph-name="uni02F3"/>
<glyph d="M184 635q0 33 -37 33t-71 -25l-18 35q58 31 98 31t68 -17q28 -18 28 -48t-23 -50t-47 -30t-23 -20q0 -20 9 -41l-35 -11q-6 6 -19 32t-15 36l9 20q2 2 18 8t25 10q10 6 17 11q16 13 16 26z" unicode="̉" glyph-name="hook"/>
<glyph horiz-adv-x="0" d="M-413 673l13 15q43 -3 83 -20q10 -14 63 -164l-35 -14zM-268 673l13 15q43 -3 83 -20q10 -14 63 -164l-35 -14z" unicode="̏" glyph-name="uni030F"/>
<glyph horiz-adv-x="650" d="M221 -159q-1 33 25 59t61 26t61 -26t25 -59q1 -33 -25 -59t-61 -26t-61 26t-25 59zM259 -159q0 -22 14 -37t34 -15t34 15t14 37t-14 37t-34 15t-34 -15t-14 -37zM294 537l-87 -250h198l-88 243l-11 42l-7 3zM134 65q0 -20 25 -27l59 -13l-6 -33q-55 8 -104 8t-105 -8 l-7 33q42 9 54 21t28 55l199 544q44 10 76 29l215 -573q16 -43 29 -55t55 -21l-7 -33q-55 8 -119 8t-120 -8l-6 33q35 5 59 13t24 27q0 7 -3 14l-57 158h-233l-54 -158q-2 -5 -2 -14z" unicode="Ḁ" glyph-name="uni1E00"/>
<glyph horiz-adv-x="455" d="M164 -159q0 33 26 59t60 26t60 -26t26 -59t-26 -59t-60 -26t-60 26t-26 59zM202 -159q0 -22 14 -37t34 -15t34 15t14 37t-14 37t-34 15t-34 -15t-14 -37zM363 286v-204q0 -36 39 -36l27 1l8 -29q-49 -11 -104 -34q-37 25 -47 67q-46 -39 -74 -53t-56 -14q-52 0 -82 32 t-30 86t39 82q39 26 108 33l92 10v45q0 57 -17 86q-18 29 -62 29t-66 -12q-6 -21 -6 -92l-42 -12q-22 73 -25 112q108 49 156 49q74 0 108 -36t34 -110zM145 64q18 -20 52 -20t86 40v114l-77 -14q-79 -13 -79 -72q0 -28 18 -48z" unicode="ḁ" glyph-name="uni1E01"/>
<glyph horiz-adv-x="926" d="M591 817l6 -18l-188 -118l-26 27q11 14 62 66t62 59q13 1 43 -5t41 -11zM669 659q41 -9 91 -9t97 9l7 -33q-38 -5 -56 -12t-18 -35l30 -507q2 -26 18 -34q13 -6 55 -13l-7 -33q-67 8 -119 8t-118 -8l-7 35q52 6 71 15q18 7 17 30l-29 500l-6 5q-11 -50 -21 -74l-144 -361 q-20 -52 -41 -120l-7 -22l-60 -17q-28 94 -49 146l-149 373l-19 66l-7 -5l-35 -491q-1 -13 3 -19t12 -11q15 -6 60 -13l13 -2l-7 -35q-67 8 -104 8t-104 -8l-7 33q35 5 54 13q16 8 17 31l37 513q2 24 -16 31q-13 7 -47 11l-11 2l7 33q47 -9 102 -9t96 9q8 -36 20 -68 l166 -433l13 -47l7 -2q3 33 9 48l163 428z" unicode="Ḿ" glyph-name="Macute"/>
<glyph horiz-adv-x="836" d="M460 670q27 6 54 6h31l10 -16l-151 -162l-32 19q10 19 45 81t43 72zM339 432q96 0 118 -79l46 35q57 44 118 44t91 -34t31 -117v-215q1 -13 3 -18t11 -10q12 -7 48 -14l10 -2l-7 -30q-82 8 -104 8t-103 -8l-7 29q34 5 48 13t18 13q2 5 2 17v197q0 60 -18 85t-64 25 t-117 -54q2 -22 2 -36v-215q1 -13 3 -18t11 -10q18 -10 53 -16l-7 -30q-83 8 -101 8t-100 -8l-7 29q57 10 65 25q3 5 3 18v197q1 60 -17 85t-68 25t-113 -50v-257q1 -14 3 -18t12 -9q19 -10 54 -16l-7 -29q-81 8 -103 8t-104 -8l-8 30q40 6 54 14t16 12q2 5 3 18v270 q0 30 -17 33q-5 1 -11 1q-14 0 -33 -4l-11 -2l-5 30q71 31 130 38l16 -18q0 -26 10 -56l38 29q57 45 115 45z" unicode="ḿ" glyph-name="macute"/>
<glyph horiz-adv-x="1018" d="M382 799l6 18q12 5 42 11t42 5q11 -7 62 -59t62 -66l-26 -27zM5 658q53 -8 117 -8t121 8l6 -33q-37 -5 -61 -13t-23 -28q0 -6 2 -13l142 -432l6 -29l6 -1l4 33l167 507h72l168 -514l6 -26l5 -1l6 30l135 433q3 8 3 14q0 20 -26 27l-61 13l6 33q54 -8 104 -8t103 8l7 -33 q-42 -9 -52 -20t-26 -56l-189 -557h-68l-169 501l-6 27l-5 1l-8 -34l-165 -495h-69l-185 557q-14 43 -26 55t-54 21z" unicode="Ẁ" glyph-name="Wgrave"/>
<glyph horiz-adv-x="686" d="M263 676h13q45 0 72 -6q8 -10 43 -72t45 -81l-32 -19l-151 162zM-2 423q66 -7 103 -7t103 7l-2 -29q-40 -6 -54 -10t-14 -14t3 -17l86 -235l5 -26l5 -2l7 29l101 297h48l100 -297l5 -27l6 -2l9 32l84 231q3 7 3 13q0 14 -16 19l-52 9l-2 29q50 -6 85 -6t85 6l-6 -31 q-23 -1 -31 -8t-17 -31l-136 -362h-47l-101 292l-5 26l-6 2l-7 -29l-99 -291h-48l-141 362q-10 24 -18 31t-30 8z" unicode="ẁ" glyph-name="wgrave"/>
<glyph horiz-adv-x="1018" d="M655 817l6 -18l-188 -118l-26 27q11 14 62 66t62 59q13 1 43 -5t41 -11zM5 658q53 -8 117 -8t121 8l6 -33q-37 -5 -61 -13t-23 -28q0 -6 2 -13l142 -432l6 -29l6 -1l4 33l167 507h72l168 -514l6 -26l5 -1l6 30l135 433q3 8 3 14q0 20 -26 27l-61 13l6 33q54 -8 104 -8 t103 8l7 -33q-42 -9 -52 -20t-26 -56l-189 -557h-68l-169 501l-6 27l-5 1l-8 -34l-165 -495h-69l-185 557q-14 43 -26 55t-54 21z" unicode="Ẃ" glyph-name="Wacute"/>
<glyph horiz-adv-x="686" d="M380 670q27 6 54 6h31l10 -16l-151 -162l-32 19q10 19 45 81t43 72zM-2 423q66 -7 103 -7t103 7l-2 -29q-40 -6 -54 -10t-14 -14t3 -17l86 -235l5 -26l5 -2l7 29l101 297h48l100 -297l5 -27l6 -2l9 32l84 231q3 7 3 13q0 14 -16 19l-52 9l-2 29q50 -6 85 -6t85 6l-6 -31 q-23 -1 -31 -8t-17 -31l-136 -362h-47l-101 292l-5 26l-6 2l-7 -29l-99 -291h-48l-141 362q-10 24 -18 31t-30 8z" unicode="ẃ" glyph-name="wacute"/>
<glyph horiz-adv-x="1018" d="M569 741q-1 23 15 38t40 15t40 -15t16 -38t-16 -37t-40 -15q-24 1 -40 15t-15 37zM377 741q-1 23 15 38t40 15t40 -15t16 -38t-16 -37t-40 -15q-24 1 -40 15t-15 37zM5 658q53 -8 117 -8t121 8l6 -33q-37 -5 -61 -13t-23 -28q0 -6 2 -13l142 -432l6 -29l6 -1l4 33 l167 507h72l168 -514l6 -26l5 -1l6 30l135 433q3 8 3 14q0 20 -26 27l-61 13l6 33q54 -8 104 -8t103 8l7 -33q-42 -9 -52 -20t-26 -56l-189 -557h-68l-169 501l-6 27l-5 1l-8 -34l-165 -495h-69l-185 557q-14 43 -26 55t-54 21z" unicode="Ẅ" glyph-name="Wdieresis"/>
<glyph horiz-adv-x="686" d="M404 591q0 23 16 38t40 15t40 -15t15 -38q1 -23 -15 -37t-40 -15q-24 1 -40 15t-16 37zM212 591q0 23 16 38t40 15t40 -15t15 -38q1 -23 -15 -37t-40 -15q-24 1 -40 15t-16 37zM-2 423q66 -7 103 -7t103 7l-2 -29q-40 -6 -54 -10t-14 -14t3 -17l86 -235l5 -26l5 -2l7 29 l101 297h48l100 -297l5 -27l6 -2l9 32l84 231q3 7 3 13q0 14 -16 19l-52 9l-2 29q50 -6 85 -6t85 6l-6 -31q-23 -1 -31 -8t-17 -31l-136 -362h-47l-101 292l-5 26l-6 2l-7 -29l-99 -291h-48l-141 362q-10 24 -18 31t-30 8z" unicode="ẅ" glyph-name="wdieresis"/>
<glyph horiz-adv-x="592" d="M160 799l6 18q12 5 42 11t42 5q11 -7 62 -59t62 -66l-26 -27zM-2 659q54 -9 120 -9t133 9l-3 -32q-30 -5 -51 -13t-21 -22t8 -29l132 -233l131 234q7 12 7 23t-11 19q-12 8 -69 21l-3 32q70 -9 116 -9t107 9l-4 -32q-31 -3 -48 -15t-37 -50l-166 -286v-208q0 -24 16 -31 q16 -8 58 -13l14 -1l-8 -31q-65 8 -123 8t-124 -8l-7 32q49 4 67 12t18 32v206l-171 295q-18 33 -33 44t-44 14z" unicode="Ỳ" glyph-name="Ygrave"/>
<glyph horiz-adv-x="466" d="M140 676h13q45 0 72 -6q8 -10 43 -72t45 -81l-32 -19l-151 162zM65 -244h-12q-23 38 -32 97l18 9q28 -13 51 -13q48 0 75 58l42 92l-160 354q-12 25 -19 31t-29 8l-6 31q63 -7 99 -7t100 7l-2 -29q-32 -6 -46 -10t-14 -17q0 -6 3 -14l105 -240l5 -25h6l7 30l94 234 q4 8 4 14q0 13 -16 18l-45 9l-2 29q50 -6 84 -6t84 6l-7 -31q-22 -1 -29 -7t-17 -32l-211 -491q-45 -105 -130 -105z" unicode="ỳ" glyph-name="ygrave"/>
<glyph horiz-adv-x="592" d="M239 -153q-1 23 15 38t40 15t40 -15t16 -38t-16 -37t-40 -15q-24 1 -40 15t-15 37zM-2 659q54 -9 120 -9t133 9l-3 -32q-30 -5 -51 -13t-21 -22t8 -29l132 -233l131 234q7 12 7 23t-11 19q-12 8 -69 21l-3 32q70 -9 116 -9t107 9l-4 -32q-31 -3 -48 -15t-37 -50 l-166 -286v-208q0 -24 16 -31q16 -8 58 -13l14 -1l-8 -31q-65 8 -123 8t-124 -8l-7 32q49 4 67 12t18 32v206l-171 295q-18 33 -33 44t-44 14z" unicode="Ỵ" glyph-name="uni1EF4"/>
<glyph horiz-adv-x="466" d="M272 -153q0 23 16 38t40 15t40 -15t15 -38q1 -23 -15 -37t-40 -15q-24 1 -40 15t-16 37zM65 -244h-12q-23 38 -32 97l18 9q28 -13 51 -13q48 0 75 58l42 92l-160 354q-12 25 -19 31t-29 8l-6 31q63 -7 99 -7t100 7l-2 -29q-32 -6 -46 -10t-14 -17q0 -6 3 -14l105 -240 l5 -25h6l7 30l94 234q4 8 4 14q0 13 -16 18l-45 9l-2 29q50 -6 84 -6t84 6l-7 -31q-22 -1 -29 -7t-17 -32l-211 -491q-45 -105 -130 -105z" unicode="ỵ" glyph-name="uni1EF5"/>
<glyph horiz-adv-x="466" d="M301 635q0 33 -37 33t-71 -25l-18 35q57 31 97 31t69 -17q28 -17 28 -44q-1 -27 -15 -45t-32 -26q-46 -21 -46 -33q0 -20 9 -41l-35 -11q-6 6 -19 32t-15 36l9 20q1 2 17 8t26 10q10 6 16 11q17 13 17 26zM65 -244h-12q-23 38 -32 97l18 9q28 -13 51 -13q48 0 75 58 l42 92l-160 354q-12 25 -19 31t-29 8l-6 31q63 -7 99 -7t100 7l-2 -29q-32 -6 -46 -10t-14 -17q0 -6 3 -14l105 -240l5 -25h6l7 30l94 234q4 8 4 14q0 13 -16 18l-45 9l-2 29q50 -6 84 -6t84 6l-7 -31q-22 -1 -29 -7t-17 -32l-211 -491q-45 -105 -130 -105z" unicode="Ỷ" glyph-name="uni1EF6"/>
<glyph horiz-adv-x="592" d="M367 805q0 33 -37 33t-71 -25l-18 35q57 31 97 31t69 -17q28 -17 28 -44q-1 -27 -15 -45t-32 -26q-46 -21 -46 -33q0 -20 9 -41l-35 -11q-6 6 -19 32t-15 36l9 20q1 2 17 8t26 10q10 6 16 11q17 13 17 26zM-2 659q54 -9 120 -9t133 9l-3 -32q-30 -5 -51 -13t-21 -22 t8 -29l132 -233l131 234q7 12 7 23t-11 19q-12 8 -69 21l-3 32q70 -9 116 -9t107 9l-4 -32q-31 -3 -48 -15t-37 -50l-166 -286v-208q0 -24 16 -31q16 -8 58 -13l14 -1l-8 -31q-65 8 -123 8t-124 -8l-7 32q49 4 67 12t18 32v206l-171 295q-18 33 -33 44t-44 14z" unicode="ỷ" glyph-name="uni1EF7"/>
<glyph horiz-adv-x="592" d="M238 733q-24 0 -58 -42l-27 16q9 18 35 47t40 40l23 4q12 -2 57 -22q44 -20 68 -19q24 0 59 43l27 -17q-10 -18 -36 -48t-39 -40l-23 -4q-12 2 -57 22t-69 20zM-2 659q54 -9 120 -9t133 9l-3 -32q-30 -5 -51 -13t-21 -22t8 -29l132 -233l131 234q7 12 7 23t-11 19 q-12 8 -69 21l-3 32q70 -9 116 -9t107 9l-4 -32q-31 -3 -48 -15t-37 -50l-166 -286v-208q0 -24 16 -31q16 -8 58 -13l14 -1l-8 -31q-65 8 -123 8t-124 -8l-7 32q49 4 67 12t18 32v206l-171 295q-18 33 -33 44t-44 14z" unicode="Ỹ" glyph-name="Ytilde"/>
<glyph horiz-adv-x="466" d="M172 566q-24 0 -58 -42l-27 16q9 18 35 47t40 40l23 4q12 -1 57 -21q44 -20 68 -20t59 43l27 -17q-10 -18 -36 -48t-39 -40l-23 -4q-12 2 -57 22t-69 20zM65 -244h-12q-23 38 -32 97l18 9q28 -13 51 -13q48 0 75 58l42 92l-160 354q-12 25 -19 31t-29 8l-6 31 q63 -7 99 -7t100 7l-2 -29q-32 -6 -46 -10t-14 -17q0 -6 3 -14l105 -240l5 -25h6l7 30l94 234q4 8 4 14q0 13 -16 18l-45 9l-2 29q50 -6 84 -6t84 6l-7 -31q-22 -1 -29 -7t-17 -32l-211 -491q-45 -105 -130 -105z" unicode="ỹ" glyph-name="ytilde"/>
<glyph horiz-adv-x="567" d="M-4 194l8 61h567l-8 -61h-567z" unicode="–" glyph-name="endash"/>
<glyph horiz-adv-x="836" d="M-4 194l8 61h836l-8 -61h-836z" unicode="—" glyph-name="emdash"/>
<glyph horiz-adv-x="222" d="M58 442q-26 24 -26 56t41 92t80 98l23 -19q-69 -101 -69 -132q0 -15 15 -21t49 -10l8 -19q-25 -42 -67 -71q-28 2 -54 26z" unicode="‘" glyph-name="quoteleft"/>
<glyph horiz-adv-x="222" d="M164 650q26 -24 26 -56q0 -33 -40 -92t-80 -98l-23 19q68 99 68 132q-1 15 -15 21t-48 10l-8 19q23 41 66 71q28 -2 54 -26z" unicode="’" glyph-name="quoteright"/>
<glyph horiz-adv-x="222" d="M164 84q26 -24 26 -57t-40 -92t-80 -98l-23 19q68 99 68 132q-1 16 -15 22t-48 9l-8 19q23 41 66 71q28 -1 54 -25z" unicode="‚" glyph-name="quotesinglbase"/>
<glyph horiz-adv-x="408" d="M244 442q-26 24 -26 56t41 92t80 98l23 -19q-69 -101 -69 -132q0 -15 15 -21t49 -10l8 -19q-9 -15 -29 -37t-38 -34q-28 2 -54 26zM58 442q-26 24 -26 56t41 92t80 98l23 -19q-69 -101 -69 -132q0 -15 15 -21t49 -10l8 -19q-25 -42 -67 -71q-28 2 -54 26z" unicode="“" glyph-name="quotedblleft"/>
<glyph horiz-adv-x="408" d="M162 650q26 -24 26 -56t-40 -92q-40 -59 -80 -98l-23 19q68 99 68 132q-1 15 -15 21t-48 10l-8 19q23 41 66 71q28 -2 54 -26zM348 650q26 -24 26 -56q0 -33 -40 -92t-80 -98l-23 19q69 101 69 132q0 15 -15 21t-49 10l-8 19q23 41 66 71q28 -2 54 -26z" unicode="”" glyph-name="quotedblright"/>
<glyph horiz-adv-x="408" d="M162 82q26 -24 26 -56t-40 -91t-80 -98l-23 19q68 99 68 132q-1 16 -15 22t-48 9l-8 19q23 41 66 71q28 -3 54 -27zM348 84q26 -24 26 -57t-40 -92t-80 -98l-23 19q69 101 69 132q0 16 -15 22t-49 9l-8 19q23 41 66 71q28 -1 54 -25z" unicode="„" glyph-name="quotedblbase"/>
<glyph horiz-adv-x="433" d="M125 182q-32 34 -32 100q-1 66 27 100t90 34t96 -36t34 -102t-29 -98q-29 -33 -91 -33q-62 1 -95 35z" unicode="•" glyph-name="bullet"/>
<glyph horiz-adv-x="831" d="M630 6q-14 14 -14 36t14 36t38 15q24 -1 38 -15t15 -36q-1 -22 -15 -36t-38 -14t-38 14zM363 42q0 22 14 36t38 15q25 -1 39 -15t14 -36t-14 -36t-38 -14t-38 14t-15 36zM110 42q0 22 14 36t38 15q24 -1 38 -15t15 -36q-1 -22 -15 -36t-38 -14t-38 14t-14 36z" unicode="…" glyph-name="ellipsis"/>
<glyph horiz-adv-x="288" d="M218 28l-173 168v24l173 168l23 -22l-103 -158l103 -158z" unicode="‹" glyph-name="guilsinglleft"/>
<glyph horiz-adv-x="288" d="M243 196l-173 -168l-23 22l103 158l-103 158l23 22l173 -168v-24z" unicode="›" glyph-name="guilsinglright"/>
<glyph horiz-adv-x="118" d="M-141 8l360 679l40 -24l-360 -679z" unicode="⁄" glyph-name="fraction"/>
<glyph horiz-adv-x="450" d="M302 382q31 34 31 104t-31 104t-76 35q-45 0 -77 -35q-32 -36 -32 -104t32 -104t77 -35q45 0 76 35zM360 618q52 -48 52 -130q0 -80 -52 -131t-136 -51q-82 0 -134 50t-52 129q0 81 52 131t136 50q82 0 134 -48z" unicode="⁰" glyph-name="zerosuperior"/>
<glyph horiz-adv-x="335" d="M173 461v139l-2 1l-6 -14l-90 -121l3 -5h95zM243 415v-45q0 -14 11 -19l29 -9l-4 -32q-50 5 -73 5t-83 -5l-4 32q32 4 43 10t11 18v45h-130l-22 37l159 214h63v-205h49l-10 -46h-39z" unicode="⁴" glyph-name="foursuperior"/>
<glyph horiz-adv-x="304" d="M254 667q0 -4 -16 -52h-109l-12 -85l3 -4q9 1 17 1q51 0 90 -23q39 -22 39 -78t-38 -88t-86 -32t-109 18q2 33 21 94l29 -5q-2 -16 -2 -31t3 -26q18 -9 44 -9t42 18t17 46q0 76 -80 76q-11 0 -23 -1l-17 21l26 152l105 7q33 2 49 10z" unicode="⁵" glyph-name="fivesuperior"/>
<glyph horiz-adv-x="329" d="M128 491q22 35 53 35q55 0 85 -28t30 -78t-38 -82t-95 -32t-91 39t-34 101q0 100 62 158t150 62l5 -25q-138 -20 -138 -193q1 -40 13 -70t38 -31q51 0 51 64q-1 34 -13 57t-34 23t-42 -16z" unicode="⁶" glyph-name="sixsuperior"/>
<glyph horiz-adv-x="284" d="M42 551q-3 23 -3 57t2 52q21 -3 56 -3h174l13 -25q-154 -208 -156 -318q-27 -8 -77 -8l-5 7q7 90 165 293l-3 4h-125q-6 -14 -13 -60z" unicode="⁷" glyph-name="sevensuperior"/>
<glyph horiz-adv-x="311" d="M201 584q0 43 -48 43q-19 -1 -31 -11t-12 -30t14 -36t44 -35q33 33 33 69zM104 401q0 -25 14 -41t37 -15t37 13t14 26t-2 22t-6 14q-4 8 -9 13q-4 5 -12 11t-12 10q-7 7 -27 20q-34 -31 -34 -73zM70 521q-22 23 -22 57t34 61t76 27t72 -20t30 -53t-22 -56t-49 -32l-1 -4 q36 -12 62 -37t26 -64q0 -38 -38 -66t-88 -28t-82 22q-33 22 -33 63q1 39 27 61t57 32l-1 4q-26 10 -48 33z" unicode="⁸" glyph-name="eightsuperior"/>
<glyph horiz-adv-x="320" d="M119 510q13 -21 37 -21t47 18v17q0 101 -49 101q-47 0 -47 -63q0 -31 12 -52zM200 473q-26 -24 -67 -24q-41 1 -72 29t-31 74t38 80t94 33q56 1 88 -39t32 -104q0 -98 -65 -156t-150 -60l-3 25q49 9 88 43t48 99z" unicode="⁹" glyph-name="ninesuperior"/>
<glyph horiz-adv-x="398" d="M221 333q41 13 41 33v124q0 63 -54 63q-28 0 -66 -28v-159q0 -11 11 -19l30 -14l-5 -24q-50 6 -80 6t-71 -6l-6 24q27 5 39 13t12 22v167q0 22 -12 23q-8 1 -24 0t-18 -3l-3 25q56 23 108 30l11 -13q0 -20 7 -39l23 20q35 32 77 32q91 0 91 -106v-136q0 -13 11 -20 l40 -15l-5 -24q-54 6 -76 6t-76 -6z" unicode="ⁿ" glyph-name="nsuperior"/>
<glyph horiz-adv-x="492" d="M125 200v329q0 25 -16 30q-26 9 -59 13l7 33q76 -9 113 -9h221q45 0 82 6q2 -18 2 -56t-3 -101l-37 -6q-20 95 -32 110h-189v-203h108l75 6l8 -13q-2 -27 -17 -48q-34 4 -59 4h-115v-95h126l-8 -42h-118v-81q0 -15 4 -23t18 -12l83 -14l-7 -36q-70 8 -126 8t-129 -8 l-7 33q40 5 58 13t17 31v89h-78l8 42h70z" unicode="₣" glyph-name="franc"/>
<glyph horiz-adv-x="511" d="M127 352v14q0 100 54 172t150 72q45 0 115 -18q-8 -62 -35 -142l-34 -2q0 38 -10 100q-25 17 -69 17t-65 -43t-21 -99v-71h153l-8 -42h-145v-53h139l-8 -42h-131v-28q0 -78 -38 -118l-21 -7l3 -6h232q10 11 28 52t23 63l34 -7q-1 -24 -8 -84t-11 -80h-304q-28 0 -110 -8 l-7 32q12 1 33 8q61 22 61 93v90h-88l8 42h80v53h-74l8 42h66z" unicode="₤" glyph-name="lira"/>
<glyph horiz-adv-x="537" d="M214 440h202q-13 131 -145 131q-27 0 -57 -7v-124zM228 276l33 -4q148 0 155 128h-202v-323q0 -15 4 -23t18 -12l83 -14l-7 -36q-70 8 -126 8t-129 -8l-7 33q40 5 58 13t17 31v331h-78l8 40h70v91q0 23 -16 30q-13 6 -49 11l-10 2l7 31q57 5 220 5q229 0 238 -170h45 l-8 -40h-39q-11 -70 -75 -118t-140 -47q-14 0 -35 9t-31 16z" unicode="₧" glyph-name="peseta"/>
<glyph horiz-adv-x="498" d="M57 -156v49h410v-49h-410zM160 78q29 -34 74 -35q45 0 88 40v185q-16 26 -40 42t-48 17q-46 1 -74 -35t-29 -108q0 -72 29 -106zM322 479v35q0 31 -18 34h-10q-16 0 -42 -4l-11 -2l-5 30q28 12 77 24t81 14l15 -18q-7 -30 -7 -98v-15h82l-8 -42h-74v-352q0 -27 15 -33 t32 -6t32 2l7 -30q-65 -13 -117 -34q-37 28 -46 68q-41 -38 -67 -53t-50 -15q-82 0 -124 47t-42 134t54 145t147 58q41 0 79 -21v90h-151l8 42h143z" unicode="₫" glyph-name="dong"/>
<glyph horiz-adv-x="592" d="M364 610q44 0 74 -6t42 -7q38 -6 72 -16q-11 -107 -25 -159l-31 -6q-11 92 -31 126q-41 24 -115 24t-120 -50t-60 -140h187l-8 -42h-183q-1 -11 -1 -33v-20h178l-8 -42h-165q14 -91 66 -151t122 -60t105 34q34 34 53 109l31 -4q-1 -63 -19 -153q-84 -30 -172 -30 q-118 0 -196 68t-89 187h-76l8 42h67q0 19 4 53h-65l8 42h64q25 106 99 170t184 64z" unicode="€" glyph-name="Euro"/>
<glyph horiz-adv-x="460" d="M414 186h-368v58h368v-58z" unicode="−" glyph-name="minus"/>
<glyph horiz-adv-x="218" glyph-name="CR"/>
<glyph horiz-adv-x="0" glyph-name="0041"/>
<glyph d="M256 817l6 -18l-188 -118l-26 27q11 14 62 66t62 59q12 1 42 -5t42 -11z" glyph-name="acute.case"/>
<glyph horiz-adv-x="353" d="M76 799l6 18q12 5 42 11t42 5q11 -7 62 -59t62 -66l-26 -27z" glyph-name="grave.case"/>
<glyph d="M161 831q25 0 41 -2q12 -9 54 -63t48 -64l-28 -21l-115 90l-115 -90l-28 21q6 10 48 64t54 63q16 2 41 2z" glyph-name="circumflex.case"/>
<glyph horiz-adv-x="218" d="M150 -62q25 -18 25 -47t-35 -75t-69 -76l-22 18q21 20 41 50t19 51q0 21 -58 27l-7 16q8 13 25 31t29 26q27 -3 52 -21z" glyph-name="commaaccent"/>
<glyph d="M161 686q-25 0 -41 2q-12 8 -54 62t-48 65l28 21l115 -90l115 90l28 -21q-6 -11 -48 -65t-54 -62q-16 -2 -41 -2z" glyph-name="caron.case"/>
<glyph horiz-adv-x="331" d="M35 557l11 61h250l-11 -61h-250z" glyph-name="macron"/>
<glyph horiz-adv-x="331" d="M35 703l11 61h250l-11 -61h-250z" glyph-name="macron.case"/>
<glyph horiz-adv-x="339" d="M214 582v-514q0 -14 2 -20t12 -10q15 -6 52 -12l11 -1l-7 -33q-68 8 -114 8t-113 -8l-7 33q66 8 72 23q3 6 3 20v514q-1 14 -3 20t-12 10q-14 6 -50 12l-10 1l7 33q67 -8 113 -8t114 8l7 -33q-67 -8 -75 -23q-2 -6 -2 -20zM65 703l11 61h200l-11 -61h-200z" glyph-name="Imacron"/>
<glyph d="M252 726q-36 -38 -94 -38t-91 37t-33 98l31 9q15 -79 96 -79t96 79l31 -9q0 -59 -36 -97z" glyph-name="breve.case"/>
<glyph horiz-adv-x="284" d="M238 549q-36 -38 -94 -38t-92 37q-33 37 -33 98l31 9q15 -79 96 -79t96 79l31 -9q1 -59 -35 -97zM187 66q1 -13 3 -18t12 -10q19 -10 48 -14l10 -2l-7 -30q-67 8 -106 8t-105 -8l-8 30q40 6 54 14t16 12q2 5 3 18v275q0 29 -17 32q-4 1 -9 1q-14 0 -38 -5l-6 30 q30 13 75 23t71 10l15 -18q-11 -42 -11 -98v-250z" glyph-name="ibreve"/>
<glyph horiz-adv-x="285" d="M87 750q-1 23 15 38t40 15t40 -15t16 -38q0 -24 -16 -38t-40 -14t-40 14t-15 38z" glyph-name="dotaccent.case"/>
<glyph horiz-adv-x="285" d="M87 -153q-1 23 15 38t40 15t40 -15t16 -38t-16 -37t-40 -15q-24 1 -40 15t-15 37z" glyph-name="dotbelow"/>
<glyph d="M87 837q23 3 49 3t36 -1l10 -17l-140 -134l-36 16q3 4 39 64t42 69zM236 837q24 3 50 3t35 -1l10 -17l-140 -134l-36 16q3 4 39 64t42 69z" glyph-name="hungarumlaut.case"/>
<glyph horiz-adv-x="573" d="M242 72v531h-167q-15 -42 -21 -125l-37 6q-9 69 -9 111t1 62q56 -7 101 -7h353q45 0 101 7q1 -19 1 -59t-10 -114l-36 -6q-6 83 -21 125h-167v-531q0 -13 3 -19t12 -10q15 -6 68 -15l16 -2l-8 -34q-45 6 -103 8l-22 -71q33 -1 55 -23t22 -60t-28 -60q-28 -24 -68 -25h-3 q-40 0 -90 28l15 31q40 -18 68 -18q53 0 53 40q0 26 -23 40q-15 8 -30 8t-28 -3l-13 21l52 92q-67 0 -128 -8l-8 34q65 8 79 14t17 13q3 6 3 19z" glyph-name="Tcedilla"/>
<glyph horiz-adv-x="336" d="M85 109v263h-58l-5 26l63 18v67l80 37v-110l128 9l-8 -53l-120 4v-246q0 -47 17 -63q18 -16 52 -16t81 31l15 -23q-69 -57 -115 -66l-18 -58q33 -1 55 -23t22 -60t-28 -60q-28 -24 -68 -25h-3q-40 0 -90 28l15 31q40 -18 68 -18q53 0 53 40q0 26 -23 40q-15 8 -30 8 t-28 -3l-13 21l43 77q-85 11 -85 124z" glyph-name="tcedilla"/>
<glyph horiz-adv-x="443" d="M152 733q-24 0 -58 -42l-27 16q9 18 35 47t40 40l23 4q12 -2 57 -22q44 -20 68 -19q24 0 59 43l27 -17q-10 -18 -36 -48t-39 -40l-23 -4q-12 2 -57 22t-69 20z" glyph-name="tilde.case"/>
</font>
</defs>
</svg>
